<svg xmlns="http://www.w3.org/2000/svg" xml:space="preserve" id="Layer_1" x="0" y="0" viewBox="0 0 116.6 91.9"><style>.st0{fill:#fdbb20}</style><path d="M74.4 6.5c8.9 0 16.2 37.7 16.2 84.1h12.9c0-50-13-90.6-29.1-90.6-9.1 0-17.3 12.2-22.6 31.2C46.4 12.2 38.3 0 29.1 0 13 0 0 40.6 0 90.6h12.9c0-46.5 7.2-84.1 16.2-84.1 8.9 0 16.2 34.8 16.2 77.6h12.9c0-42.9 7.3-77.6 16.2-77.6M111.2 87h.9c.7 0 1.4 0 1.4-.9 0-.7-.6-.8-1.2-.8h-1.1zm-.8-2.3h2q1.8 0 1.8 1.5c0 1-.6 1.4-1.4 1.4l1.5 2.3h-.9l-1.4-2.3h-.9V90h-.8v-5.3zm1.7 6.5c2.1 0 3.7-1.7 3.7-3.9s-1.6-3.8-3.7-3.8-3.7 1.7-3.7 3.8c0 2.2 1.6 3.9 3.7 3.9m0-8.4c2.5 0 4.5 1.9 4.5 4.5s-2.1 4.5-4.5 4.5c-2.5 0-4.5-1.9-4.5-4.5 0-2.5 2-4.5 4.5-4.5" class="st0"/></svg>