<svg xmlns="http://www.w3.org/2000/svg" xml:space="preserve" id="Layer_1" x="0" y="0" viewBox="0 0 112 112"><style>.st3{fill:#fff}.st5{fill:#565f64}.st7{fill:#a4aaae;fill-opacity:.6}</style><g id="Logo_with_name"><g id="Group" transform="translate(77)"><linearGradient id="outer_1_" x1="-219.281" x2="-218.514" y1="290.835" y2="290.193" gradientTransform="matrix(109.55 0 0 -109.55 23959.227 31881.826)" gradientUnits="userSpaceOnUse"><stop offset="0" style="stop-color:#fff"/><stop offset=".1" style="stop-color:#e7e8e6"/><stop offset=".1" style="stop-color:#cdd0d0"/><stop offset=".2" style="stop-color:#b5bbbd"/><stop offset=".2" style="stop-color:#a5acaf"/><stop offset=".3" style="stop-color:#9ba3a7"/><stop offset=".3" style="stop-color:#98a0a4"/><stop offset=".4" style="stop-color:#828a8f"/><stop offset=".5" style="stop-color:#667075"/><stop offset=".6" style="stop-color:#535c63"/><stop offset=".7" style="stop-color:#475158"/><stop offset=".8" style="stop-color:#434d54"/><stop offset="1" style="stop-color:#475157"/></linearGradient><path id="outer_24_" d="M33.8 56c0 30.3-24.5 54.8-54.8 54.8S-75.8 86.3-75.8 56-51.3 1.2-21 1.2 33.8 25.7 33.8 56M-21 4.6c-28.5 0-51.4 22.9-51.4 51.5s23.1 51.4 51.4 51.4c28.5 0 51.4-23.1 51.4-51.4C30.4 27.5 7.5 4.6-21 4.6" style="fill:url(#outer_1_)"/><linearGradient id="Shape_25_" x1="-219.242" x2="-218.476" y1="290.773" y2="290.13" gradientTransform="matrix(102.9 0 0 -102.9 22499.549 29943.348)" gradientUnits="userSpaceOnUse"><stop offset="0" style="stop-color:#0b1f2a"/><stop offset=".2" style="stop-color:#333f47"/><stop offset=".5" style="stop-color:#777f84"/><stop offset=".5" style="stop-color:#81898d"/><stop offset=".7" style="stop-color:#b3b8b8"/><stop offset=".8" style="stop-color:#d2d5d3"/><stop offset=".8" style="stop-color:#dee0dd"/><stop offset="1" style="stop-color:#fbfbfb"/></linearGradient><path id="Shape" d="M-21 4.6c-28.5 0-51.4 22.9-51.4 51.5s23.1 51.4 51.4 51.4c28.5 0 51.4-23.1 51.4-51.4C30.4 27.5 7.5 4.6-21 4.6m0 99.5c-26.6 0-48.1-21.5-48.1-48.1S-47.6 7.9-21 7.9 27.1 29.4 27.1 56 5.6 104.1-21 104.1" style="fill:url(#Shape_25_)"/><linearGradient id="Shape_30_" x1="-218.74" x2="-219.082" y1="290.066" y2="291.007" gradientTransform="matrix(112 0 0 -112 24497 32596)" gradientUnits="userSpaceOnUse"><stop offset="0" style="stop-color:#e1e3e1"/><stop offset=".1" style="stop-color:#c1c5c4"/><stop offset=".3" style="stop-color:#9ba1a2"/><stop offset=".5" style="stop-color:#7d8487"/><stop offset=".7" style="stop-color:#687074;stop-opacity:0"/><stop offset=".8" style="stop-color:#5b6469;stop-opacity:0"/><stop offset="1" style="stop-color:#576065;stop-opacity:0"/></linearGradient><path id="Shape_1_" d="M-21 110.8c30.3 0 54.8-24.5 54.8-54.8S9.3 1.2-21 1.2-75.8 25.7-75.8 56s24.5 54.8 54.8 54.8M-21 0C9.8 0 35 25.2 35 56s-25.2 56-56 56-56-25.2-56-56S-51.8 0-21 0" style="opacity:.4;fill:url(#Shape_30_)"/><path id="Shape_2_" d="M-73.2 56.2c0-28.7 23.3-52.3 52.2-52.3s52.2 23.4 52.2 52.3c0 28.7-23.3 52-52.2 52s-52.2-23.3-52.2-52m16.3-36.1c-9.3 9.3-15.1 22-15.1 36s5.8 26.8 14.9 35.9c9.3 9.1 22 14.9 36 14.9S5.7 101.3 14.8 92c9.3-9.1 14.9-21.9 14.9-35.9s-5.8-26.8-14.9-36C5.8 10.9-7 5.1-21 5.1s-26.8 5.8-35.9 15" class="st3"/><linearGradient id="Shape_31_" x1="-219.067" x2="-218.567" y1="290.815" y2="289.949" gradientTransform="matrix(96.6 0 0 -96.6 21116.701 28106.902)" gradientUnits="userSpaceOnUse"><stop offset="0" style="stop-color:#e1e3e1"/><stop offset=".1" style="stop-color:#c1c5c4"/><stop offset=".3" style="stop-color:#9ba1a2"/><stop offset=".5" style="stop-color:#7d8487"/><stop offset=".7" style="stop-color:#687074;stop-opacity:0"/><stop offset=".8" style="stop-color:#5b6469;stop-opacity:0"/><stop offset="1" style="stop-color:#576065;stop-opacity:0"/></linearGradient><path id="Shape_3_" d="M-21 104.3c-13 0-25-5.1-34.1-14.2S-69.3 68.9-69.3 56s5.1-25 14.2-34.1S-34 7.7-21 7.7s25 5.1 34.1 14.2S27.3 43 27.3 56s-5.1 25-14.2 34.1-21.2 14.2-34.1 14.2m0-1.4c12.4 0 24.3-4.9 33.1-13.7 8.9-8.9 13.7-20.7 13.7-33.1S20.9 31.8 12.1 23C3.2 14.2-8.6 9.4-21 9.4s-24.3 4.9-33.1 13.7C-63 31.7-67.9 43.6-67.9 56s4.9 24.3 13.7 33.1c8.9 8.9 20.8 13.8 33.2 13.8" style="opacity:.4;fill:url(#Shape_31_)"/><path id="Shape_4_" d="M21.5 78.8c-.9-.7-34.7-27.5-34.7-27.5l-7.9-45c-.5.2-1.2.7-1.6 1.4l-5.6 43.8L-63 78.2s-.7.9-1.1 1.4c-.2.3-.2.9-.2 1.4l43-17.7 43 17.7c.5-.8.2-1.7-.2-2.2" class="st3"/><path id="Shape_5_" d="m-20.7 57.4-.3 8 39.6 15.9c1.4.7 2.4.3 3.5-.3l-42.2-23.8c-.2-.2-.6 0-.6.2" class="st5"/><linearGradient id="Shape_32_" x1="-217.954" x2="-218.024" y1="287.122" y2="287.056" gradientTransform="matrix(42.7 0 0 -24.604 9307.352 7133.534)" gradientUnits="userSpaceOnUse"><stop offset="0" style="stop-color:#27343c"/><stop offset="1" style="stop-color:#00111e;stop-opacity:0"/></linearGradient><path id="Shape_6_" d="M-20.7 57.4s2.3 4 4.9 6.8c3.7 4 8.6 6.8 8.6 6.8l25.7 10.3c1.4.7 2.4.3 3.5-.3l-42.2-23.8c-.1-.2-.5 0-.5.2" style="fill:url(#Shape_32_)"/><path id="Shape_7_" d="M21.9 79.4c0-.2-.2-.3-.3-.7l-36.1-26.4-4.9 3.1s.3.2.5 0c.5-.2 1.6-.3 2.6 0 .9.4 38.2 24.2 38.2 24.2z" class="st7"/><path id="Shape_8_" d="m20.7 77.9-33.6-26.6-1.6 1 36.1 26.6c-.3-.3-.6-.7-.9-1" style="fill:#333e46"/><path id="Shape_9_" d="m-20.1 54.8-.2.2s0 .3.3.2c.2-.2 5.2-2.8 7-3.8l-6.1-42c-.1-1.7-.9-2.4-2.1-2.9l.7 48.7z" class="st5"/><path id="Shape_10_" d="M-23.1 9.3v2.3L-27 50.2c0 .5.2 1.1.7 1.4l2.3 1.8 1.6-42.7.2-3.3c-.6.3-.7 1-.9 1.9" class="st7"/><path id="Shape_11_" d="m-25.2 54.1-2.1-1.8L-62.8 78s-1 .7-1.2 1.4l1.2-.7 37.3-23.5c.7-.2.8-.6.3-1.1" class="st7"/><path id="Shape_12_" d="M-21.5 57.4c0-.2-.2-.4-.3-.2l-42.3 24c1 .7 2.1.9 3.5.4l39.5-15.9z" class="st5"/><linearGradient id="Shape_33_" x1="-210.525" x2="-210.541" y1="288.808" y2="288.974" gradientTransform="matrix(7.35 0 0 -47.425 1530.7 13747.8)" gradientUnits="userSpaceOnUse"><stop offset=".1" style="stop-color:#02131f"/><stop offset=".9" style="stop-color:#02131f;stop-opacity:0"/></linearGradient><path id="Shape_13_" d="m-20.3 55 .2-.2zs0 .2.2.2h.2c.2-.2 5.2-2.8 7-3.8l-.7-5.1L-19 9.4c0-.7-.2-1.2-.5-1.6 0 0 2.6 35.3 2.6 39.2-.1 5-3.4 8-3.4 8" style="fill:url(#Shape_33_)"/><linearGradient id="Shape_34_" x1="-217.463" x2="-217.634" y1="287.208" y2="287.18" gradientTransform="matrix(43.05 0 0 -24.7027 9340.775 7162.355)" gradientUnits="userSpaceOnUse"><stop offset=".2" style="stop-color:#02131f"/><stop offset=".9" style="stop-color:#02131f;stop-opacity:0"/></linearGradient><path id="Shape_14_" d="M-21.5 57.4c0-.2-.2-.4-.3-.2l-42.3 24c1 .7 2.1.9 3.5.4l39.5-15.9z" style="fill:url(#Shape_34_);fill-opacity:.8"/><linearGradient id="Shape_35_" x1="-217.876" x2="-217.901" y1="286.949" y2="286.986" gradientTransform="matrix(41.475 0 0 -23.9908 8995.85 6955.057)" gradientUnits="userSpaceOnUse"><stop offset="0" style="stop-color:#02131f"/><stop offset=".1" style="stop-color:#02131f"/><stop offset="1" style="stop-color:#02131f;stop-opacity:0"/></linearGradient><path id="Shape_15_" d="m-60.7 81.4 39.5-15.9-.4-7.7c-.7 2.1-1.9 4.4-5.2 6.1-2.4 1.4-25.9 12.9-34.3 17-.5.3-1.2.5-1.6.7.7.3 1.3.1 2-.2" style="opacity:.8;fill:url(#Shape_35_)"/><linearGradient id="Shape_36_" x1="-211.482" x2="-211.503" y1="289.318" y2="289.304" gradientTransform="matrix(8.225 0 0 -48.699 1722.326 14118.582)" gradientUnits="userSpaceOnUse"><stop offset=".3" style="stop-color:#02131f"/><stop offset=".3" style="stop-color:#02131f"/><stop offset=".8" style="stop-color:#02131f;stop-opacity:0"/></linearGradient><path id="Shape_16_" d="m-20.1 54.8-.2.2s0 .3.3.2c.2-.2 5.2-2.8 7-3.8l-6.1-42c-.1-1.7-.9-2.4-2.1-2.9l.7 48.7z" style="fill:url(#Shape_36_)"/><linearGradient id="Shape_37_" x1="-211.481" x2="-211.495" y1="289.318" y2="289.308" gradientTransform="matrix(8.225 0 0 -48.699 1722.326 14118.582)" gradientUnits="userSpaceOnUse"><stop offset=".4" style="stop-color:#27343c"/><stop offset="1" style="stop-color:#3b474e;stop-opacity:0"/></linearGradient><path id="Shape_17_" d="m-20.1 54.8-.2.2s0 .3.3.2c.2-.2 5.2-2.8 7-3.8l-6.1-42c-.1-1.7-.9-2.4-2.1-2.9l.7 48.7z" style="fill:url(#Shape_37_)"/><linearGradient id="Shape_38_" x1="-218.064" x2="-217.681" y1="290.065" y2="289.665" gradientTransform="matrix(39.025 0 0 -70.525 8443.726 20520.3)" gradientUnits="userSpaceOnUse"><stop offset="0" style="stop-color:#24303a;stop-opacity:0"/><stop offset="0" style="stop-color:#25323b;stop-opacity:0"/><stop offset=".1" style="stop-color:#27343c"/></linearGradient><path id="Shape_18_" d="M-68.1 77.7c-1.2-2.8-8.2-16.4-.5-42.7h-3c-1.6 5.2-2.8 8.4-3.5 13.1 0 0-.4 1.8-.5 3.7-.2 1.9-.2 3-.2 4.2 0 10.5 2.6 16.6 2.6 16.6 2.8 8.8 7.7 16.6 14.4 22.6 5.8 5.1 14.7 8.9 22 10.3-1.2-.2-22.2-9.1-31.3-27.8" style="fill:url(#Shape_38_)"/><linearGradient id="Shape_39_" x1="-177.595" x2="-177.595" y1="277.963" y2="278.975" gradientTransform="matrix(1.575 0 0 -8.2975 258.625 2371.845)" gradientUnits="userSpaceOnUse"><stop offset=".3" style="stop-color:#a5abaf"/><stop offset="1" style="stop-color:#a5abaf;stop-opacity:0"/></linearGradient><path id="Shape_19_" d="M-20.3 57h-1.6c.2 0 .3 0 .3.2l.4 8.1h.2l.3-8.1c0-.2.2-.3.4-.2" style="fill:url(#Shape_39_)"/><linearGradient id="Shape_40_" x1="-218.295" x2="-218.295" y1="290.988" y2="289.988" gradientTransform="matrix(54.775 0 0 -106.75 11963.5 31067.025)" gradientUnits="userSpaceOnUse"><stop offset="0" style="stop-color:#dee0dd"/><stop offset="0" style="stop-color:#c5c9c7"/><stop offset="0" style="stop-color:#9ea4a5"/><stop offset="0" style="stop-color:#82898c"/><stop offset="0" style="stop-color:#71797d"/><stop offset="0" style="stop-color:#6b7378"/><stop offset=".2" style="stop-color:#333f47"/><stop offset=".5" style="stop-color:#27343c"/><stop offset=".8" style="stop-color:#333f47"/><stop offset="1" style="stop-color:#434d54"/></linearGradient><path id="Shape_20_" d="M-3.5 4c18.4 7 35.7 26.2 35.7 50.6C32.2 84 8.8 108-21 108v2.8c29.8 0 54.8-24.5 54.8-54.8 0-24.1-15.4-44.4-37.3-52" style="fill:url(#Shape_40_)"/><linearGradient id="Shape_41_" x1="-94.286" x2="-93.286" y1="184" y2="184" gradientTransform="matrix(.525 0 0 -1 28.5 185.225)" gradientUnits="userSpaceOnUse"><stop offset="0" style="stop-color:#dee0dd"/><stop offset="0" style="stop-color:#c5c9c7"/><stop offset="0" style="stop-color:#9ea4a5"/><stop offset="0" style="stop-color:#82898c"/><stop offset="0" style="stop-color:#71797d"/><stop offset="0" style="stop-color:#6b7378"/><stop offset=".2" style="stop-color:#333f47"/><stop offset=".5" style="stop-color:#27343c"/><stop offset=".8" style="stop-color:#333f47"/><stop offset="1" style="stop-color:#434d54"/></linearGradient><path id="Shape_21_" d="M-20.5 1.2h-.5z" style="fill:url(#Shape_41_)"/><linearGradient id="Shape_42_" x1="-217.945" x2="-218.158" y1="290.377" y2="289.892" gradientTransform="matrix(46.1837 0 0 -71.575 10078.669 20797.324)" gradientUnits="userSpaceOnUse"><stop offset=".7" style="stop-color:#27343c"/><stop offset=".7" style="stop-color:#2b373f"/><stop offset=".7" style="stop-color:#36424a"/><stop offset=".7" style="stop-color:#49545b"/><stop offset=".8" style="stop-color:#646d73;stop-opacity:0"/><stop offset=".8" style="stop-color:#868d92;stop-opacity:0"/><stop offset=".8" style="stop-color:#b0b5b8;stop-opacity:0"/><stop offset=".8" style="stop-color:#e1e3e4;stop-opacity:0"/><stop offset=".8" style="stop-color:#fff;stop-opacity:0"/></linearGradient><path id="Shape_22_" d="M25.9 35.3C13.7 7.2-14 5.6-15.6 5.4h-.2C5.4 9.3 18.9 23.1 23.6 37.6v.2c2.1 5.6 3.2 11.5 3.3 18 .2 6.1-1.2 13-3.8 19.2-.2.9-.3 1.9-.5 1.9h2.8c8.4-15.7 4.7-31.6.5-41.6" style="fill:url(#Shape_42_)"/><path id="Shape_23_" d="M-73.2 56.2c0-28.7 23.3-52.3 52.2-52.3s52.2 23.4 52.2 52.3c0 28.7-23.3 52-52.2 52s-52.2-23.3-52.2-52m16.3-36.1c-9.3 9.3-15.1 22-15.1 36s5.8 26.8 14.9 35.9c9.3 9.1 22 14.9 36 14.9S5.7 101.3 14.8 92c9.3-9.1 14.9-21.9 14.9-35.9s-5.8-26.8-14.9-36C5.8 10.9-7 5.1-21 5.1s-26.8 5.8-35.9 15" style="fill:#fbfbfb"/><path id="Shape_24_" d="m-63.2 78.4 35.7-25.7c1.9 1 5.1 2.5 5.4 2.5.3.2.3-.2.3-.2l-4.4-3.7c-.5-.4-.7-.9-.7-1.4l4.2-42.2c-.2.2-.2.5-.3.7-.2.4-.2.5-.2.9l-6.1 42.2-33.6 26.4c-.1.2-.3.3-.3.5" style="fill:#333f47"/></g></g></svg>