<svg xmlns="http://www.w3.org/2000/svg" data-name="Layer 2" viewBox="0 0 454.57 402.42"><path d="M283.3 376.04h34.43a.1.1 0 0 0 .1-.09v-11a.1.1 0 0 0-.1-.1H283.3a.09.09 0 0 1-.1-.08v-12.38a.1.1 0 0 1 .08-.1h38a.08.08 0 0 0 .1-.08v-11.82a.09.09 0 0 0-.08-.1h-51.74a.09.09 0 0 0-.09.09v60.76a.11.11 0 0 0 .09.1h51.92a.1.1 0 0 0 .1-.1v-11.8a.1.1 0 0 0-.1-.1H283.3a.09.09 0 0 1-.1-.08v-13a.11.11 0 0 1 .07-.13ZM189.67 342.27c-3.38-1.4-7.76-2-13.34-2H141.8a.1.1 0 0 0-.1.1v60.76a.12.12 0 0 0 .1.1h13.74a.1.1 0 0 0 .1-.1v-18.59a.1.1 0 0 1 .08-.1h20.58c8 0 13.94-1.6 17.92-5 4-3.2 6-8.59 6-16 0-5.39-.8-9.59-2.59-12.59a13.77 13.77 0 0 0-7.96-6.58m-5.57 26.18c-1.8 1.6-4.58 2.2-8.56 2.2h-19.81a.11.11 0 0 1-.09-.1v-18.59a.11.11 0 0 1 .09-.1h19.81c3 0 5.17.2 6.76 1a7.22 7.22 0 0 1 3.39 3 13.2 13.2 0 0 1 1 5.19c-.01 3.6-1 6-2.59 7.4M55.13 342.67c-5.17-2.4-11.94-3.6-19.9-3.6-8.16 0-14.73 1.2-19.9 3.6a23 23 0 0 0-11.55 10.59C1.2 357.9 0 363.65 0 370.65c0 7.19 1.2 13 3.78 17.58a24 24 0 0 0 11.52 10.6c5.17 2.4 11.74 3.59 19.9 3.59s14.73-1.19 19.9-3.59a24.32 24.32 0 0 0 11.74-10.6c2.59-4.59 3.78-10.39 3.78-17.58 0-7-1.19-12.79-3.78-17.39a23.32 23.32 0 0 0-11.71-10.59m-1 39a11.78 11.78 0 0 1-6.57 6.23c-3 1.4-7.17 2.2-12.34 2.2a34.1 34.1 0 0 1-12.34-2 13.66 13.66 0 0 1-6.58-6.43 27.7 27.7 0 0 1-2-10.77 28.8 28.8 0 0 1 2-11 11.9 11.9 0 0 1 6.57-6.2c3-1.4 7-2.2 12.34-2.2a34.2 34.2 0 0 1 12.53 2 12.5 12.5 0 0 1 6.37 6.4 27.35 27.35 0 0 1 2 10.79 27.9 27.9 0 0 1-2 11ZM417.75 388.74v-48.35a.09.09 0 0 0-.1-.1h-13.54a.1.1 0 0 0-.1.1v60.76a.12.12 0 0 0 .1.1h50.37a.11.11 0 0 0 .09-.1v-12.2a.11.11 0 0 0-.09-.1h-36.63a.09.09 0 0 1-.1-.08ZM452.45 166.79l-248.65-27h-.06l-68.06 35.6a.1.1 0 0 0 0 .19h300.4l16.36-8.54a.13.13 0 0 0 .13-.12.12.12 0 0 0-.12-.13M227.3 9.9a129.94 129.94 0 0 1 129.91 129.93c0 2.2-.05 4.38-.16 6.56l10 1.08c.14-2.53.21-5.07.21-7.64A140 140 0 0 0 95 94.1h10.67A130 130 0 0 1 227.3 9.9"/><path d="M227.3 269.77a129.94 129.94 0 0 1-130-129.94c0-2.21.06-4.4.17-6.59l-10-1.08q-.21 3.81-.21 7.67a140 140 0 0 0 272.28 45.7H348.9a130 130 0 0 1-121.6 84.24M250.74 139.8h.05l68.07-35.5a.1.1 0 0 0 .06-.13.09.09 0 0 0-.06-.06H18.42l-16.34 8.54a.1.1 0 0 0 0 .19Z"/></svg>