<svg xmlns="http://www.w3.org/2000/svg" xml:space="preserve" width="100" height="60" viewBox="0 0 100 60"><title>Pokémon Go logo</title><linearGradient id="a" x1="426.751" x2="416.734" y1="732.71" y2="714.041" gradientTransform="translate(-408 -677.5)" gradientUnits="userSpaceOnUse"><stop offset="0" style="stop-color:#0070b6"/><stop offset="1" style="stop-color:#1d2c5e"/></linearGradient><path d="m5.451 38.243 12.026 20.301 4.801-4.579L9.189 34.446z" style="fill:url(#a)" transform="matrix(.36546 0 0 .35412 -1.33 .16)"/><path d="m184.009 22.288-.465 2.676 5.752-1.856-.717-3.278z" style="fill:#0071b9" transform="matrix(.36546 0 0 .35412 -1.33 .16)"/><linearGradient id="b" x1="548.927" x2="561.642" y1="694.573" y2="680.949" gradientTransform="translate(-408 -677.5)" gradientUnits="userSpaceOnUse"><stop offset="0" style="stop-color:#0070b6"/><stop offset="1" style="stop-color:#1d2c5e"/></linearGradient><path d="m150.495 4.012-18.508 21.224 5.386-1.549 17.621-22.001z" style="fill:url(#b)" transform="matrix(.36546 0 0 .35412 -1.33 .16)"/><path d="m249.507 33.031 4.543-2.421-1.298 11.376zm-28.236 7.295 4.038.827 5.154-2.502-4.473-1.669z" style="fill:#1d2c5e" transform="matrix(.36546 0 0 .35412 -1.33 .16)"/><linearGradient id="c" x1="493.453" x2="491.937" y1="717.286" y2="704.548" gradientTransform="translate(-408 -677.5)" gradientUnits="userSpaceOnUse"><stop offset="0" style="stop-color:#0070b6"/><stop offset="1" style="stop-color:#1d2c5e"/></linearGradient><path d="m82.049 28.247.646 13.183 5.636-2.277-1.687-13.371z" style="fill:url(#c)" transform="matrix(.36546 0 0 .35412 -1.33 .16)"/><linearGradient id="d" x1="632.348" x2="631.742" y1="714.834" y2="703.336" gradientTransform="translate(-408 -677.5)" gradientUnits="userSpaceOnUse"><stop offset="0" style="stop-color:#125d9e"/><stop offset="1" style="stop-color:#1d2c5e"/></linearGradient><path d="m221.105 26.761.166 13.565 4.566-2.34 1.433-6.566-1.629-7.107z" style="fill:url(#d)" transform="matrix(.36546 0 0 .35412 -1.33 .16)"/><path d="m225.018 41.191-4.995 44.37 7.985-1.575 1.564-45.188z" style="fill:#312370" transform="matrix(.36546 0 0 .35412 -1.33 .16)"/><path d="m234.938 93.705 15.328 4.885 4.562-2.418-15.04-11.652-15.235-1.338-4.53 2.379 14.773 2.127zm-19.842-8.793-30.728-18.723-21.798 3.736-4.252 4.041 19.616 3.139 3.767-2.029 2.401 4.436 3.55-1.951.707 5.848 22.284 3.952z" style="fill:#21386e" transform="matrix(.36546 0 0 .35412 -1.33 .16)"/><linearGradient id="e" x1="589.911" x2="576.568" y1="698.261" y2="719.489" gradientTransform="translate(-408 -677.5)" gradientUnits="userSpaceOnUse"><stop offset="0" style="stop-color:#125d9e"/><stop offset="1" style="stop-color:#1d2c5e"/></linearGradient><path d="m166.377 24.969-8.059 48.997 4.514-2.345 7.736-27.511.27-21.596z" style="fill:url(#e)" transform="matrix(.36546 0 0 .35412 -1.33 .16)"/><path d="m135.24 29.081-3.554 1.893.299 1.185 8.458-5.373-3.696-3.966-4.76 2.416z" style="fill:#1d2c5e" transform="matrix(.36546 0 0 .35412 -1.33 .16)"/><path d="m144.957 86.958-36.34-18.001 4.562-3.449 36.3 19.008z" style="fill:#21386e" transform="matrix(.36546 0 0 .35412 -1.33 .16)"/><path d="m112.032 19.963-5.507 10.443 5.819-1.762 4.199-11.128z" style="fill:#1d2c5e" transform="matrix(.36546 0 0 .35412 -1.33 .16)"/><linearGradient id="f" x1="471.821" x2="480.919" y1="732.31" y2="750.203" gradientTransform="matrix(.36546 0 0 .35412 -150.439 -239.756)" gradientUnits="userSpaceOnUse"><stop offset="0" style="stop-color:#105fa1"/><stop offset="1" style="stop-color:#1d2c5e"/></linearGradient><path d="m21.36 22.507-1.698 1.129s.36 1.836.825 3.113c.467 1.281 1.578 2.31 1.578 2.31a6.14 6.14 0 0 0 2.566 1.445c1.878.524 3.998.183 5.818-.942.476-.291 1.121-.758 1.518-1.127-1.788 1.052-10.607-5.928-10.607-5.928" style="fill:url(#f)"/><path d="m91.187 87.131 17.324-2.563 4.635-2.429-21.499-44.588-4.423 1.49-4.529 2.389 4.252-1.075z" style="fill:#1d2c5e" transform="matrix(.36546 0 0 .35412 -1.33 .16)"/><linearGradient id="g" x1="437.492" x2="448.022" y1="726.202" y2="750.612" gradientTransform="translate(-408 -677.5)" gradientUnits="userSpaceOnUse"><stop offset="0" style="stop-color:#105fa1"/><stop offset="1" style="stop-color:#1d2c5e"/></linearGradient><path d="m17.477 58.544 4.524-1.942L41.357 100.5l18.389-5.932 4.49-3.018-38.168-39.935-4.776 2.862z" style="fill:url(#g)" transform="matrix(.37063 0 0 .35412 -2.054 .16)"/><path d="m76.818 27.538.095.763c.579-.063 1.187-.136 1.708-.315.606-.201 1.924-.77 2.425-1.189-.188.066-3.276.842-4.228.74m-23.777-3.968.253 1.228c1.36-.196 2.527-.683 3.675-1.352.72-.416 1.512-1.043 1.761-1.21-.176.11-5.689 1.334-5.689 1.334" style="fill:#1d2c5e"/><path d="m46.389 96.338-1.437-3.193L26.6 52.186l-.377-.84-.834.385-.557.256-3.267 1.604c-.482-.808-1.282-2.162-1.838-3.101L12.34 38.006l-1.932-3.259 3.196-2.025c3.023-1.928 6.437-3.709 10.151-5.295 7.395-3.15 14.943-4.816 21.826-4.816 2.264 0 4.455.183 6.513.541 3.431.391 6.604 1.517 9.225 3.263 3.906 2.184 6.981 5.572 8.718 9.58 1.426 3.294 1.704 7.152.798 11.154l-.532 2.351 1.953-1.416a22.6 22.6 0 0 1 4.25-2.426c2.6-1.099 5.29-1.66 7.985-1.66 2.551 0 4.963.505 7.17 1.498l1.423.638-.143-1.553-.619-6.711-.1-1.064-1.036.269-3.109.806-.545-11.427 22.774-7.276-.184 8.881 1.715.44 4.974-9.532 14.897 13.212.621.553.606-.57c2.041-1.918 4.46-3.457 7.189-4.574l1.14-.466-.781-.953-2.686-3.274L154.9 3.181l8.957 13.365-13.711 7.37-3.045 1.638 3.457.073c6.5.137 12.256 2.887 16.205 7.742l1.428 1.761.92 1.131-1.528 1.622-1.019 1.082-3.426 3.654-.637.679.689.622 3.211 2.891 1.242 1.117.266-1.648 1.232-7.627.315-1.958.01.011.324-2 1.839-11.26h17.188l.13-.759.321-1.928h14.785l3.582 22.621.233 1.465 1.2-.871a20.7 20.7 0 0 1 4.766-2.576c2.279-.86 4.625-1.299 6.967-1.299 2.788 0 5.495.644 7.836 1.861.062.045.15.103.27.151l1.111.446.131-1.192.268-2.465.088-.808-.795-.177-2.998-.67-.146-11.792 22.857 5.031 1.717 8.485 1.775.035 1.771-7.302 19.06 4.635-19.478 58.703-13.938-4.377-.099-5.407-.014-.775-.769-.108-13.908-1.963.787-7.069.187-1.682-1.505.771c-.713.363-1.403.668-2.055.908-2.274.86-4.603 1.295-6.922 1.295-.671 0-1.345-.037-2.001-.111l-1.188-.133.186 1.18.979 6.217-20.291-3.579-1.063-9.226-.342-2.957-1.367 2.643-2.336 4.505-4.301-7.94-1.293-2.385-.408 2.68-.937 6.146-17.784-2.799 1.379-8.435.315-1.934-1.681 1.005c-2.911 1.745-6.254 3.058-10.217 4.015a28 28 0 0 1-4.305.694l-.834.07v16.755L113.52 65.735l-1.316-.649.001 1.467.024 14.804-15.659 2.307-.658-7.109-.178-1.902-1.365 1.338c-2.069 2.025-4.4 3.595-6.927 4.667-2.585 1.099-5.252 1.655-7.925 1.655-2.669 0-5.177-.558-7.455-1.649-4.22-2.03-7.264-5.713-8.57-10.36-.622-2.183-.791-4.488-.502-6.854l.309-2.52-1.838 1.75a44 44 0 0 1-4.152 3.484l-.495.365.156.595 5.275 20.248.932 3.593-3.532 1.123-9.932 3.18zm4.458-54.356c-.512 0-1.041.047-1.574.143l-.676.13-.998.192.301.972.196.632 2.84 9.293.284.893.422 1.34 1.05-.934.697-.621c2.753-2.474 3.718-4.986 3.137-8.154-.366-1.901-1.838-2.848-2.684-3.244-.884-.426-1.896-.642-2.995-.642m76.135.305-1.775 1.728-4.675 4.543-1.018.989 1.325.512 5.014 1.935 1.54.593-.318-1.618a21.5 21.5 0 0 1-.328-6.217zm20.416-5.167a7.022 7.022 0 0 0-6.125 10.389l.381.715.613 1.143.863-.966.555-.615 6.858-7.83.539-.62.865-.994-1.234-.457-.769-.284a7 7 0 0 0-2.546-.481" style="fill:#ffcb05" transform="matrix(.36546 0 0 .35412 -1.33 .16)"/><path d="M56.373 17.412a.4.4 0 0 0-.066.074q.038-.033.076-.063z" style="fill:#7d7f68"/><path d="m163.802 43.241 3.425-3.654-1.172 1.244.034-.157-1.036 1.093-3.422 3.643 3.206 2.884.581-3.592 1.596 1.429z" style="fill:#7d7f68" transform="matrix(.36546 0 0 .35412 -1.33 .16)"/><path d="m163.802 43.241 3.212 2.89 1.23-7.626-1.017 1.082z" style="fill:#7d7f68" transform="matrix(.36546 0 0 .35412 -1.33 .16)"/><path d="m42.952 17.585.019.008z" style="fill:#7d7f68"/><path d="M49.882 18.709c.1.098.007.027.12.102l.765-.523a3 3 0 0 1-.33-.255c-1.11-.981-.822-3.187-.1-4.395-1.898 1.483-1.8 3.766-.455 5.07" style="fill:#c7a008"/><path d="M59.124 19.944c-1.264 1.013-2.705 1.674-4.61 2.12a9 9 0 0 1-1.223.194c-3.023.288-5.559-1.057-6.521-3.239a4.6 4.6 0 0 1-.282-.817c-.445-1.837-.065-3.479.871-4.765a8 8 0 0 1 .293-.366c-.048.04-.097.074-.136.111-.36.31-.68.65-.95 1.023-.938 1.287-1.318 2.93-.869 4.764q.102.427.277.814c.963 2.187 3.5 3.531 6.52 3.245a9 9 0 0 0 1.225-.2c1.907-.445 3.347-1.103 4.612-2.116q.462-.37.895-.809l-.026-.024c-.03.024-.05.045-.075.065" style="fill:#c7a008"/><path d="m107.129 40.185 9.241-12.986-.375-.346-8.916 12.524zm61.115-1.68-1.23 7.626-1.596-1.429-.581 3.592-3.206-2.884 3.422-3.643 1.036-1.093-.034.157 1.172-1.244zm-11.419-21.39 3.236-1.388-5.915-7.591-1.938 2.707z" style="fill:#c7a008" transform="matrix(.36546 0 0 .35412 -1.33 .16)"/><path d="M23.243 12.88c-5.46-6.443-15.295-2.98-18.83.034l.138.231q1.22-.677 2.572-1.227c3.511-1.453 6.859-1.879 9.543-1.424.948.106 1.953.378 2.828.946 1.21.657 2.128 1.591 2.665 2.789.952 2.12.113 4.941-2.129 7.303 2.812-2.5 4.736-4.893 3.213-8.652m11.136 7.507c-.026-.117-.051-.236-.09-.35a4.42 4.42 0 0 0-1.834-2.495c-1.401-.923-3.357-1.112-5.306-.315a7.3 7.3 0 0 0-2.623 1.88A7.2 7.2 0 0 1 26.357 18c1.945-.8 3.901-.61 5.307.31a4.45 4.45 0 0 1 1.923 2.85q.128.61.106 1.241c-.04 1.233-.512 2.475-1.297 3.535a8 8 0 0 1-.397.48 7.2 7.2 0 0 0 1.186-1.25c.788-1.054 1.259-2.298 1.3-3.538a5 5 0 0 0-.106-1.24" style="fill:#c7a008"/><path d="M29.004 18.814c-.007.012.792-.768.783-.768-1-.036-1.423.878-1.458.95q.309-.147.675-.182m1.884 1.117a1.35 1.35 0 0 1-.069.98c.16-.081 1.317-.625.868-1.777.024.036-.828.794-.799.797m-4.55.641c0-.473.837-1.623 1.098-2.006-1.322.814-1.891 1.913-1.891 2.78 0 1.483 1.345 2.676 2.953 2.676.761 0 2.155-.39 3.066-1.82-.478.305-1.692 1.034-2.329 1.034-1.608 0-2.897-1.172-2.897-2.664" style="fill:#c7a008"/><path d="m106.678 61.477.057 16.955 2.691.154-.532-19.328zm-15.446-32.28.055 1.506 12.753-3.797.945 16.24 2.128-2.982-.454-16.297zm38.551 5.815-11.979-10.994-1.434 3.181 10.543 9.905z" style="fill:#c7a008" transform="matrix(.36546 0 0 .35412 -1.33 .16)"/><path d="m45.436 19.814-5.14-1.647-.75.766 5.121 1.986c.581 1.06 1.461 1.968 2.57 2.632 1.072.636 2.298 1.017 3.596 1.137v2.45l.794.385.25-3.682zm8.254-.694c1.262-.294 1.99-.932 2.616-1.634-.47.374-2.828.871-3.224 1.001l-.777.802c.355.03.949-.063 1.384-.168m-2.296-8.469c-2.327.295-3.54 2.189-3.74 2.42.859-.704 1.936-1.226 3.15-1.505 2.88-.675 5.42.176 6.989 2.057l.971-.797c-1.554-1.848-4.49-2.848-7.37-2.175m7.807 9.227c.28-.23.78-.46 1.045-.73l-3.117-2.698c-.238.276-.455.732-.746.972zm15.994 7.231c-3.27-2.604-3.074-8.188-1.469-9.96l-1.44-8.752-3.152.394-.14.77h2.384l1.263 7.942c-1.607 1.777-2.383 4.158-1.846 6.338.416 1.685 1.483 3.048 3.02 3.837q.233.121.478.22l.02.117.938.144s.098-.974-.056-1.05" style="fill:#c7a008"/><path d="m175.001 26.9-.371 2.178h9.834l2.897 15.881 2.182-2.204-2.294-16.765zm16.835 30.83-3.175 8.202.786 2.134 4.541-12.491zm-9.429-5.166-2.186 2.183-2.343 14.814 2.244.857z" style="fill:#c7a008" transform="matrix(.36546 0 0 .35412 -1.33 .16)"/><path d="M81.475 17.098c.47.326.871.737 1.173 1.227q.36.565.534 1.258c.391 1.577-.077 3.283-1.112 4.651-.104.139-.218.273-.328.405.42-.35 5.525-3.999.538-8.79-5.486-1.753-7.563 1.715-7.757 1.935a6.9 6.9 0 0 1 1.973-1.14c1.857-.682 3.683-.446 4.979.454" style="fill:#c7a008"/><path d="M78.71 17.444c.015.033.787-.78.803-.78-.977.039-1.445.495-1.397.706a1.3 1.3 0 0 0-.143.253c.208-.101.593-.178.736-.18m1.836 1.19q.053.189.049.402c-.009.183-.058.35-.13.506.149-.065 1.332-.42.88-1.682.012.036-.812.774-.8.774m-2.591 4.005c1.104.045 2.325-.612 3.2-1.773-2.246.446-4.608-3.18-4.371-3.534-.85.596-1.6 1.746-1.635 2.55-.058 1.49 1.194 2.694 2.806 2.757" style="fill:#c7a008"/><path d="m250.629 90.15 1.441.964 17.588-52.785-13.163-3.042-.165 3.092 10.618 2.356zm-20.887-60.521.115 2.948 13.995 2.811 5.388 25.553 2.181-2.198-5.133-25.816zm10.77 29.119-3.853 21.792 2.219.719 3.825-24.657zM58.896 88.536 52.35 64.803l-2.396 1.676 6.067 22.737z" style="fill:#c7a008" transform="matrix(.36546 0 0 .35412 -1.33 .16)"/><path d="M19.574 18.874c-.552.568-1.775 1.67-2.472 2.105l-.424-1.317-.926-2.886-.59-1.955-.574.715.587 1.957.926 2.885.422 1.32c.954-.595 2.342-1.713 3.05-2.824" style="fill:#c7a008"/><path d="M53.471 13.905c-.755-.281-1.824-.197-2.402.415a4.2 4.2 0 0 0-.477.667c.558-.431 1.554-.524 2.206-.296zm-34.588 2.608c-.084-.432-.521-.775-.735-.87-.383-.18-1.046-.208-1.53-.122.087.29.187.632.23.772.196.026.518.083.687.158.212.099.584.333.67.768.115.58.085 1.122-.164 1.563.684-.65 1.016-1.359.842-2.27" style="fill:#7d7f68"/><path d="M58.588 46.145c-.899-4.824-7.207-7.483-13.461-4.072l1.612 5.521 2.536 8.159 1.157 3.716c4.692-3.017 9.408-6.642 8.156-13.324m-6.212 7.418c-.683-2.229-2.181-7.042-2.181-7.042.007.022-.295-1.03-.653-2.234 1.326-.237 2.6-.141 3.648.363.586.279 1.616.93 1.841 2.164.518 2.774-.417 4.754-2.655 6.749" style="fill:#3c5aa6" transform="matrix(.36546 0 0 .35412 -1.33 .16)"/><path d="M153.223 38.491c-3.496-3.207-8.93-2.958-12.119.535-3.208 3.487-2.956 8.924.545 12.118.285.275.593.5.903.721l11.277-12.771a12 12 0 0 0-.606-.603m-10.648 8.983c-1.103-2.025-.88-4.596.769-6.398a5.55 5.55 0 0 1 6.088-1.421z" style="fill:#3567b0" transform="matrix(.36546 0 0 .35412 -1.33 .16)"/><path d="m168.291 37.089-6.245 6.017 5.933 5.328z" style="fill:#1e2d5f" transform="matrix(.36546 0 0 .35412 -1.33 .16)"/><path d="M81.338 17.86c.034.133.052.266.048.407-.038.845-.858 1.498-1.835 1.453-.977-.032-1.744-.75-1.705-1.593.033-.79.76-1.416 1.656-1.456a3 3 0 0 0-.534-.063c-1.634-.068-2.97 1.054-3.027 2.45-.063 1.494 1.173 2.712 2.782 2.78 1.637.063 2.972-1.063 3.037-2.55a2.4 2.4 0 0 0-.422-1.429" style="fill:#3466af"/><linearGradient id="h" x1="639.706" x2="655.635" y1="-982.769" y2="-982.769" gradientTransform="matrix(.36546 0 0 -.35412 -207.451 -327.4)" gradientUnits="userSpaceOnUse"><stop offset="0" style="stop-color:#3c5aa6"/><stop offset=".933" style="stop-color:#2b73b9"/><stop offset="1" style="stop-color:#2a75bb"/></linearGradient><path d="M31.746 19.565c0 .848-.796 1.528-1.772 1.528-.978 0-1.771-.68-1.771-1.528 0-.79.698-1.443 1.593-1.519a3 3 0 0 0-.534-.047c-1.635 0-2.924 1.175-2.924 2.573 0 1.493 1.29 2.664 2.897 2.664 1.636 0 2.924-1.172 2.924-2.664 0-.516-.176-1.003-.479-1.404.041.12.066.255.066.397" style="fill:url(#h)"/><g transform="matrix(.36546 0 0 .35412 -1.33 .16)"><linearGradient id="i" x1="573.178" x2="838.921" y1="-974.57" y2="-974.57" gradientTransform="matrix(1 0 0 -1 -564 -925)" gradientUnits="userSpaceOnUse"><stop offset="0" style="stop-color:#3c5aa6"/><stop offset=".933" style="stop-color:#2b73b9"/><stop offset="1" style="stop-color:#2a75bb"/></linearGradient><path d="m254.02 30.598-1.986 8.185-1.834-9.063-24.559-5.406.172 13.656 3.701.83-.267 2.463c-.048-.019-.078-.048-.104-.069-4.588-2.421-10.276-2.669-15.629-.647a21.6 21.6 0 0 0-4.975 2.688l-3.705-23.388h-16.333l-.45 2.689H170.86l-1.963 12.023-1.426-1.761c-4.166-5.118-10.205-7.937-16.895-8.077l14.596-7.845-10.178-15.189-18.389 21.189 3.174 3.87c-2.875 1.175-5.387 2.795-7.468 4.752l-15.767-13.989-5.513 10.566.212-10.154-24.651 7.875.632 13.244 4.194-1.088.62 6.712c-4.792-2.152-10.552-2.099-15.894.158a23.6 23.6 0 0 0-4.419 2.524c.924-4.089.705-8.12-.853-11.715-1.84-4.248-5.078-7.759-9.048-9.974-2.783-1.854-6.1-3.009-9.571-3.402-8.53-1.491-18.773.04-28.854 4.335-3.706 1.581-7.163 3.375-10.281 5.361L9.177 34.45l2.38 4.019 7.386 12.483s2.26 3.825 2.275 3.823l3.994-1.963.557-.256 18.353 40.961 1.77 3.937 4.098-1.32 9.93-3.181 4.352-1.383-1.148-4.43-5.274-20.245a45 45 0 0 0 4.24-3.561c-.295 2.419-.14 4.868.526 7.212 1.379 4.908 4.593 8.785 9.053 10.933 4.817 2.315 10.694 2.321 16.131.015 2.727-1.157 5.152-2.845 7.207-4.854l.749 8.063 17.39-2.561-.027-15.593 36.337 17.959V67.119a29 29 0 0 0 4.442-.719c4.002-.967 7.427-2.293 10.47-4.116l-1.526 9.339 19.592 3.083 1.075-7.05 5.117 9.453 3.128-6.027 1.143 9.896 22.213 3.916-1.178-7.473c3.041.344 6.246-.064 9.342-1.232a20 20 0 0 0 2.15-.955l-.885 7.951 14.784 2.086.11 6.063 15.416 4.839 20.071-60.495zm-86.793 8.99 1.019-1.083-1.231 7.627-3.211-2.892zM154.209 8.432l5.382 7.311-15.387 7.628-1.063-1.615zM52.32 64.809l6.139 23.555-9.936 3.174-20.389-45.534c-1.109.583-3.157 1.561-5.038 2.483l-7.383-12.472c2.936-1.875 6.156-3.537 9.581-4.984 9.612-4.088 18.783-5.308 26.118-4.012 2.595.292 5.342 1.057 7.748 2.654 3.301 1.859 5.826 4.505 7.282 7.875 3.551 8.206-2.381 20.015-14.122 27.261m45.681-4.192c-.114 3.507-1.402 7.021-3.558 9.994a19.9 19.9 0 0 1-8.287 6.699c-8.62 3.652-17.24 0-19.543-8.184-2.231-7.913 2.96-17.333 11.312-20.931 5.334-2.252 10.686-1.718 14.52.887 2.368 1.606 4.174 4.021 5.017 7.047.106.321.176.658.247.988a14.4 14.4 0 0 1 .292 3.5m46.901 16.653-36.055-18.033.064 18.894-9.327 1.272-.65-7.788c2.88-4.938 3.933-10.757 2.43-16.093-.825-2.933-2.349-5.479-4.42-7.519l-1.338-15.879-4.188 1.086-.185-4.015 14.978-4.46.918 15.448 11.034-15.503 10.787 10.273-15.085 15.892 14.172 5.606c1.583 3 3.998 5.549 7.028 7.427 2.929 1.808 6.285 2.877 9.835 3.228zm-18.721-26.126-5.015-1.935 4.675-4.544c-.2 2.086-.097 4.267.34 6.479m39.237 4.724c-3.46 2.862-7.404 4.728-12.615 5.987a25 25 0 0 1-3.347.547c-8.271.813-15.21-2.985-17.843-9.145a13.3 13.3 0 0 1-.772-2.307c-1.218-5.188-.178-9.825 2.385-13.458a16.3 16.3 0 0 1 2.598-2.896c2.414-2.154 5.496-3.72 9-4.562 7.879-1.9 14.818.505 19.072 5.725L148.882 51.74c1.018.192 2.637-.075 3.832-.361 3.576-.872 5.577-2.77 7.34-4.838l6 5.398 1.818 1.642a32 32 0 0 1-2.454 2.287m31.853 21.327-3.266-21.635-4.619 11.935-6.916-14.917h-.078l-2.733 17.275-11.527-2.006 1.621-9.64c.435-.409.863-.819 1.284-1.252l3.736-3.847-3.631-3.252L175 26.899h11.63l2.911 15.892 3.262-18.417h8.319l3.452 22.438c-4.393 5.004-6.527 11.731-5.059 17.885 1.135 4.771 4.067 8.613 8.27 10.857.423.213.861.424 1.313.606l.44 2.909zm28.725-7.049a18 18 0 0 1-4.174 2.229c-2.969 1.131-5.922 1.366-8.553.843a12.8 12.8 0 0 1-4.961-2.112c-2.314-1.674-4.018-4.146-4.769-7.25-.876-3.729-.069-7.711 1.937-11.199 1-1.705 2.283-3.307 3.801-4.688a19 19 0 0 1 5.84-3.601c5.083-1.896 10.096-1.242 13.625 1.295a11.9 11.9 0 0 1 3.224 3.452 12.4 12.4 0 0 1 1.447 3.554c1.081 4.478-.206 9.274-3.031 13.138a19.5 19.5 0 0 1-4.386 4.339m25.955 20.392-8.524-2.539-.743-31.426-4.287 24.243-9.299-1.484.666-6.98c6.072-5.131 9.291-13.225 7.527-20.56-.775-3.248-2.445-6.076-4.799-8.226l.785-8.232-3.516-.936.235-4.395 16.021 3.22 5.387 25.546 5.525-22.903 12.188 2.693z" style="fill:url(#i)"/></g><path d="M19728.31 8450.008c-914.153 0-1723.575 554.714-1997.011 1358.33-273.424-803.616-1082.833-1358.33-1996.973-1358.33-1154.812 0-2094.317 872.91-2094.317 1945.879 0 1072.96 939.505 1945.879 2094.317 1945.879 695.1 0 1343.401-319.704 1734.204-855.224l12.024-16.479-535.741-443.256h771l5.578-15.548a2204 2204 0 0 0 9.835-28.05c273.387 803.694 1082.87 1358.557 1997.084 1358.557 1154.794 0 2094.292-872.919 2094.292-1945.879 0-1072.97-939.498-1945.879-2094.292-1945.879" style="fill:#15192a;fill-opacity:1;fill-rule:nonzero;stroke:none" transform="matrix(.00631 0 0 -.00691 -59.745 117.707)"/><path d="M19728.31 12364.497c-238.93 0-473.443-36.687-697.021-109.038-216.129-69.931-417.836-171.718-599.507-302.521-179.787-129.438-335.294-283.892-462.214-459.076-100.486-138.713-181.01-287.678-240.299-444.325h-720.189l471.743 390.306 32.011 26.492-24.06 32.971c-395.353 541.759-1051.226 865.191-1754.448 865.191-286.011 0-563.496-52.064-824.736-154.715-252.31-99.162-478.896-241.103-673.467-421.878-194.571-180.776-347.334-391.306-454.054-625.726-110.5-242.728-166.524-500.548-166.524-766.291 0-265.731 56.024-523.552 166.524-766.279 106.72-234.432 259.483-444.96 454.054-625.734 194.571-180.778 421.157-322.72 673.467-421.882 261.24-102.66 538.725-154.714 824.736-154.714 238.929 0 473.43 36.675 697.021 109.026 216.116 69.941 417.811 171.73 599.482 302.52 179.787 129.44 335.294 283.905 462.202 459.09 99.349 137.143 179.175 284.278 238.268 438.959 59.081-154.68 138.92-301.816 238.269-438.959 126.92-175.185 282.427-329.65 462.214-459.09 181.671-130.79 383.378-232.579 599.507-302.52 223.578-72.351 458.091-109.026 697.021-109.026 286.01 0 563.483 52.054 824.736 154.714 252.299 99.162 478.886 241.104 673.449 421.882 194.576 180.774 347.331 391.302 454.055 625.734 110.493 242.727 166.516 500.548 166.516 766.279 0 265.743-56.023 523.563-166.516 766.291-106.724 234.42-259.479 444.95-454.055 625.726-194.563 180.775-421.138 322.716-673.449 421.866-261.253 102.663-538.726 154.727-824.736 154.727m0-45.461c1143.137 0 2069.828-861.02 2069.828-1923.149s-926.691-1923.148-2069.828-1923.148c-954.262 0-1757.555 600.027-1997.011 1416.11-239.455-816.083-1042.736-1416.11-1996.973-1416.11-1143.147 0-2069.853 861.02-2069.853 1923.148s926.706 1923.149 2069.853 1923.149c713.143 0 1341.774-335.252 1713.947-845.245l-567.727-469.715h817.629c11.963-33.346 23.106-67.032 33.124-101.173 239.456 816.116 1042.749 1416.133 1997.011 1416.133" style="fill:#4b4f50;fill-opacity:1;fill-rule:nonzero;stroke:none" transform="matrix(.00631 0 0 -.00691 -59.745 117.707)"/><path d="M20835.411 10206.69c50.335-7.66 100.658-15.639 150.907-23.81-50.249 8.171-100.572 16.15-150.907 23.81m-253.131 36.141c-.02-.05-.05-.102-.05-.17 20.599-2.762 41.235-5.433 61.834-8.285a16562 16562 0 0 1-61.785 8.455m442.632-66.282c50.188-8.308 100.364-16.786 150.43-25.617-50.066 8.831-100.242 17.309-150.43 25.617m-342.425 52.439c50.359-7.114 100.694-14.377 150.968-22.003-50.274 7.626-100.609 14.889-150.968 22.003m-2031.627 166.786c70.53-2.148 141.549-4.728 212.862-7.604v.09a22010 22010 0 0 1-212.862 7.513m1981.793-229.293c12.416-1.739 24.856-3.455 37.259-5.228-12.403 1.773-24.843 3.489-37.259 5.228m544.352-15.844c50.115-8.876 100.108-18.127 150.027-27.526-49.919 9.399-99.912 18.65-150.027 27.526m-2851.176 183.936c-11.547.182-23.058.329-34.568.534 11.51-.182 23.021-.352 34.568-.534m468.452-12.343c-.869.02-1.737.06-2.581.08.844-.05 1.712-.06 2.581-.08m2027.554-183.106c.05-.02.122-.02.183-.05-.06.02-.134.02-.183.05m-2671.463 197.654c-.82 0-1.652 0-2.484.02.832-.02 1.664-.02 2.484-.02m-173.415.841c11.193-.02 22.422-.07 33.663-.09-11.241.02-22.47.07-33.663.09m492.024-5.751c-.869.02-1.713.03-2.557.06zm2843.336-276.119c12.452-2.33 24.892-4.705 37.369-7.081-12.477 2.376-24.893 4.751-37.369 7.081m-3366.686 350.663v-.113c11.131 0 22.128.05 33.271.05-11.058 0-22.213.07-33.271.07m3533.042-312.96c0 .02.03.07.03.09a12358 12358 0 0 1-113.673 22.321c37.932-7.262 75.802-14.797 113.648-22.412" style="fill:#15192a;fill-opacity:1;fill-rule:nonzero;stroke:none" transform="matrix(.00631 0 0 -.00691 -59.745 117.707)"/><path d="M19724.811 12048.418c984.622 0 1782.778-741.628 1782.778-1656.475 0-78.261-5.982-155.192-17.284-230.566-3.413-22.765-7.242-45.382-11.608-67.828 0-.02-.03-.07-.03-.09a1584 1584 0 0 0-14.788-67.237v-.102c-5.456-22.424-11.425-44.666-17.823-66.76-66.848-230.124-185.609-440.462-344.076-619.363 255.528 286.68 409.127 654.596 409.127 1055.891 0 914.846-798.193 1656.475-1782.802 1656.475-554.811 0-1050.406-235.477-1377.37-604.723 327.013 366.973 821.03 600.779 1373.871 600.779" style="fill:#15192a;fill-opacity:1;fill-rule:nonzero;stroke:none" transform="matrix(.00631 0 0 -.00691 -59.745 117.707)"/><path d="M18863.721 10388.261v-.09c.294-23.185 1.529-46.165 3.902-68.85v-.09c2.435-23.367 6.092-46.371 10.63-69.101 74.604-374.644 427.854-658.446 852.674-658.446 369.727 0 685.217 214.985 810.095 517.676 8.966 21.639 16.868 43.722 23.791 66.237.02.03.02.09.05.136 6.728 21.969 12.623 44.245 17.369 66.93 0 .07.03.125.05.17 4.661 22.276 8.392 44.859 11.034 67.749 3.302 28.64 5.125 57.667 5.125 87.126 0 445.143-388.369 806.012-867.512 806.012-457.614 0-832.234-329.354-864.869-746.822-1.542-19.56-2.594-39.256-2.594-59.19 0-3.171.221-6.274.257-9.445m2109.752-273.075c12.415-1.989 24.806-4.034 37.222-6.08-12.44 2.046-24.807 4.091-37.222 6.08m-4011.182 272.028a22459 22459 0 0 1-120.829-4.967c39.901 1.739 80.083 3.41 120.829 4.967m-269.008-11.752c-38.691-1.887-76.757-3.864-114.529-5.865 37.772 2.001 75.838 3.978 114.529 5.865m118.504 5.501c-39.62-1.762-78.983-3.569-117.722-5.456 38.739 1.887 78.102 3.694 117.722 5.456m274.904 10.728c-41.614-1.409-82.995-2.864-123.813-4.443 40.818 1.579 82.199 3.034 123.813 4.443m-2184.577-93.081c2.654-23.015 6.507-45.7 11.278-68.101 4.844-22.753 10.85-45.154 17.773-67.191a752 752 0 0 1 24.415-66.441c126.358-298.645 444.318-511.164 815.893-511.164 273.619 0 518.151 115.244 678.55 295.224-160.448-177.719-403.426-291.28-675.028-291.28-482.091 0-874.276 357.562-874.276 797.056 0 191.073 74.163 366.575 197.585 504.038-125.525-138.031-201.108-315.113-201.108-507.993 0-28.413 1.713-56.485 4.918-84.148m869.359 1757.387c520.878 0 1017.403-206.268 1362.446-565.956l4.073 3.375c-345.055 360.04-841.849 566.524-1362.997 566.524-564.89 0-1070.376-238.556-1403.953-611.962 333.606 371.144 837.534 608.019 1400.431 608.019" style="fill:#15192a;fill-opacity:1;fill-rule:nonzero;stroke:none" transform="matrix(.00631 0 0 -.00691 -59.745 117.707)"/><path d="m17542.155 10798.013-.04-37.347c23.669-94.388 38.372-190.97 43.999-288.188 1.321-22.867 2.042-45.768 2.336-68.681v-.06c.11-6.99.33-13.98.33-20.981 0-15.956-.306-31.845-.783-47.722v-.07c-.697-22.991-1.981-45.904-3.694-68.702-26.8-357.2-175.848-683.893-408.882-944.783 260.275 289.565 416.87 660.879 416.87 1065.231 0 127.382-15.706 254.514-46.653 377.895l.02 37.358-27.339.523h-1781.847v-3.933h1778.337l27.339-.545m-991.967-429.943" style="fill:#15192a;fill-opacity:1;fill-rule:nonzero;stroke:none" transform="matrix(.00631 0 0 -.00691 -59.745 117.707)"/><path d="M16434.111 10430.426c386.143 22.549 772.163 36.585 1152.006 42.052-5.627 97.218-20.33 193.8-43.999 288.188l.04 37.347-27.339.545h-1778.337v-417.65c218.306 18.218 451.792 35.164 697.632 49.518m263.623-123.551c-.147-.02-.294-.02-.44-.03.146.01.293.01.44.03m-115.336-5.91c-9.211-.489-18.373-1.001-27.535-1.466 9.15.465 18.324.977 27.535 1.466m261.925 12.592c-9.614-.397-19.229-.829-28.794-1.25 9.565.421 19.18.853 28.794 1.25m561.796 18.219c-10.496-.227-20.978-.443-31.425-.716 10.447.273 20.929.489 31.425.716m-160.216-3.921h-.38zm-126.627-3.853c-10.055-.33-20.073-.659-30.079-1.012 9.994.353 20.024.682 30.079 1.012m469.174 79.739v.06c-62.078-.897-123.52-1.977-184.276-3.307 60.695 1.33 122.259 2.364 184.276 3.251m-50.788-69.423c-.452 0-.88-.01-1.308-.01.428 0 .856.01 1.308.01" style="fill:#15192a;fill-opacity:1;fill-rule:nonzero;stroke:none" transform="matrix(.00631 0 0 -.00691 -59.745 117.707)"/><path d="M17946.706 10337.686c-.734 19.321-1.223 38.71-1.223 58.201 0 3.478.122 6.933.147 10.411h-3.462c-.04-4.796-.195-9.547-.195-14.355 0-18.173.428-36.243 1.076-54.257zm3380.325-214.576c-49.919 9.399-99.912 18.65-150.027 27.526-.538.07-1.088.182-1.663.296-50.066 8.831-100.242 17.309-150.43 25.617a16649 16649 0 0 1-38.593 6.331c-50.249 8.171-100.572 16.15-150.907 23.81-.66.09-1.296.182-1.957.295-50.274 7.626-100.609 14.889-150.968 22.003a22028 22028 0 0 1-38.421 5.388c-20.599 2.852-41.235 5.523-61.834 8.285-4.746-22.685-10.641-44.961-17.369-66.93 22.605-3.023 45.185-6.126 67.79-9.251 12.416-1.739 24.856-3.455 37.259-5.228 50.702-7.149 101.331-14.446 151.923-22.129.05-.02.122-.02.183-.05 50.543-7.66 101.025-15.673 151.458-23.89 12.415-1.989 24.782-4.034 37.222-6.08 100.829-16.684 201.401-34.448 301.619-53.36 12.476-2.33 24.892-4.705 37.369-7.081 38.127-7.33 76.206-14.797 114.199-22.446a1584 1584 0 0 1 14.788 67.237c-37.846 7.615-75.716 15.15-113.648 22.412a9999 9999 0 0 1-37.993 7.24" style="fill:#fff;fill-opacity:1;fill-rule:nonzero;stroke:none" transform="matrix(.00631 0 0 -.00691 -59.745 117.707)"/><path d="M18010.619 10337.527c45.528-.114 91.227-.33 137.268-.728.832-.02 1.664-.02 2.484-.02 46.665-.41 93.71-.978 140.889-1.671 11.51-.205 23.021-.352 34.568-.534 46.653-.75 93.477-1.614 140.595-2.648l2.557-.06c47.68-1.069 95.691-2.341 143.8-3.739 11.865-.353 23.73-.705 35.62-1.046 47.595-1.455 95.325-2.989 143.299-4.773.844-.02 1.712-.06 2.581-.08 24.391-.921 48.867-1.909 73.343-2.909-2.373 22.685-3.608 45.665-3.902 68.85-71.313 2.876-142.332 5.456-212.862 7.604-11.242.341-22.459.67-33.688.988a22801 22801 0 0 1-290.291 6.524l-32.44.511a23809 23809 0 0 1-284.041 2.467c-10.52.03-21.027.06-31.498.08-11.143 0-22.14-.05-33.271-.05-.03-3.478-.147-6.933-.147-10.411 0-19.491.489-38.88 1.223-58.201 10.055 0 20.159-.07 30.25-.07 11.193-.02 22.422-.07 33.663-.09" style="fill:#fff;fill-opacity:1;fill-rule:nonzero;stroke:none" transform="matrix(.00631 0 0 -.00691 -59.745 117.707)"/><path d="M17945.63 10406.411c.159 23.004.783 45.916 1.945 68.703-1.138 0-2.239.01-3.388.01-.184-3.853-.282-7.74-.453-11.604v-57.111l-.04 56.202a1587 1587 0 0 1-1.529-56.202h3.462m1.079-68.837c-1.223 0-2.446-.02-3.657-.02.807-22.98 2.006-45.858 3.816-68.612 1.297 0 2.532-.02 3.792-.02-1.871 22.753-3.082 45.654-3.951 68.657m2697.359-103.201c12.831-1.785 25.614-3.58 38.421-5.388 50.359-7.114 100.694-14.377 150.968-22.003a60 60 0 0 1 1.957-.295c50.335-7.66 100.658-15.639 150.907-23.81 12.856-2.092 25.725-4.206 38.593-6.331 50.188-8.308 100.364-16.786 150.43-25.617.575-.114 1.125-.227 1.663-.296 50.115-8.876 100.108-18.127 150.027-27.526a9999 9999 0 0 0 37.993-7.24 12358 12358 0 0 0 113.673-22.321c4.366 22.446 8.195 45.063 11.608 67.828-287.112 57.667-586.406 107.344-896.991 149.203-2.642-22.89-6.373-45.473-11.034-67.749a16562 16562 0 0 0 61.785-8.455" style="fill:#2a367e;fill-opacity:1;fill-rule:nonzero;stroke:none" transform="matrix(.00631 0 0 -.00691 -59.745 117.707)"/><path d="M18010.399 10406.264c93.6-.25 188.301-1.069 284.041-2.467l32.44-.511a22801 22801 0 0 0 290.291-6.524c11.229-.318 22.446-.647 33.688-.988 70.554-2.148 141.5-4.649 212.862-7.513-.04 3.171-.257 6.274-.257 9.445 0 19.934 1.052 39.63 2.594 59.19-298.916 11.945-605.024 18.162-918.483 18.218-1.162-22.787-1.786-45.699-1.945-68.703 11.058 0 22.213-.07 33.271-.07 10.471-.02 20.978-.05 31.498-.08m3301.917-350.513c-100.218 18.912-200.79 36.676-301.619 53.36-12.416 2.046-24.807 4.091-37.222 6.08-50.433 8.217-100.915 16.23-151.458 23.89-.06.02-.134.02-.183.05-50.592 7.683-101.221 14.98-151.923 22.129-12.403 1.773-24.843 3.489-37.259 5.228-22.617 3.125-45.234 6.069-67.839 9.115-6.923-22.515-14.825-44.598-23.791-66.237 313.777-41.87 615.738-91.809 905.039-149.999 6.398 22.094 12.367 44.336 17.823 66.76-38.018 7.66-76.072 15.218-114.199 22.548-12.477 2.376-24.917 4.751-37.369 7.081m-2444.693 263.476c-24.427.977-48.977 2.079-73.343 3-.869.02-1.737.03-2.581.08-47.974 1.784-95.704 3.318-143.299 4.773-11.89.341-23.755.693-35.62 1.046-48.109 1.398-96.12 2.67-143.8 3.739-.869.02-1.713.03-2.557.06a23952 23952 0 0 1-140.595 2.648c-11.547.182-23.058.352-34.568.534a23900 23900 0 0 1-140.889 1.671c-.82 0-1.652 0-2.484.02-46.041.398-91.74.614-137.268.728-11.241.02-22.47.07-33.663.09-10.152 0-20.146-.05-30.25-.05.869-23.003 2.08-45.904 3.951-68.657 316.799-.09 626.038-6.433 927.596-18.787-4.538 22.73-8.195 45.734-10.63 69.101m-920.917 18.461h-3.657v-.137c1.211 0 2.434.02 3.657.02v.114m344.554-2.577" style="fill:#2a367e;fill-opacity:1;fill-rule:nonzero;stroke:none" transform="matrix(.00631 0 0 -.00691 -59.745 117.707)"/><path d="M18794.28 10322.229c24.366-.921 48.916-2.023 73.343-3v.09c-24.476 1-48.952 1.988-73.343 2.909m2381.061-171.296c.575-.114 1.125-.227 1.663-.296-.538.07-1.088.182-1.663.296m-3027.454 185.867c-46.041.398-91.74.614-137.268.728 45.528-.114 91.227-.33 137.268-.728m2674.13-197.721c50.543-7.66 101.025-15.673 151.458-23.89-50.433 8.217-100.915 16.23-151.458 23.89m641.867-112.959v.102a13325 13325 0 0 1-114.199 22.446c38.127-7.33 76.181-14.888 114.199-22.548m-3137.004 377.167-32.44.511zm-347.979 3.057c10.471-.02 20.978-.05 31.498-.08-10.52.03-21.027.06-31.498.08m812.798-84.034c-47.974 1.784-95.704 3.318-143.299 4.773 47.595-1.455 95.325-2.989 143.299-4.773m-178.919 5.819c-48.109 1.398-96.12 2.67-143.8 3.739 47.68-1.069 95.691-2.341 143.8-3.739m2057.131-166.876c50.702-7.149 101.331-14.446 151.923-22.129-50.592 7.683-101.221 14.98-151.923 22.129m-2723.205 176.434v-.114c10.104 0 20.098.05 30.25.05-10.091 0-20.195.07-30.25.07m3063.991-228.584c100.829-16.684 201.401-34.448 301.619-53.36-100.218 18.912-200.79 36.676-301.619 53.36m-445.835 66.623c-.03-.05-.03-.102-.05-.136 22.605-3.046 45.222-5.99 67.839-9.115-22.605 3.125-45.185 6.228-67.79 9.251m-2098.438 156.193" style="fill:#2a367e;fill-opacity:1;fill-rule:nonzero;stroke:none" transform="matrix(.00631 0 0 -.00691 -59.745 117.707)"/><path d="M15736.479 10311.841c-1.175-.09-2.337-.193-3.511-.261v-69.021c1.174.102 2.336.204 3.511.318zm-1752.896-206.813c-1.606-.25-2.963-.466-4.105-.671a1554 1554 0 0 1 13.848-67.521c1.198.216 2.627.443 4.286.728a1524 1524 0 0 0-14.029 67.464" style="fill:#fff;fill-opacity:1;fill-rule:nonzero;stroke:none" transform="matrix(.00631 0 0 -.00691 -59.745 117.707)"/><path d="M14913.394 10230.511c-531.8-60.701-872.851-116.027-929.811-125.483a1524 1524 0 0 1 14.029-67.464c58.79 9.762 400.959 65.157 933.555 125.756-6.923 22.037-12.929 44.438-17.773 67.191m1641.472 68.988c9.162.465 18.324.977 27.535 1.466 37.907 2.011 76.095 3.989 114.896 5.875.146.01.293.01.44.03 38.763 1.875 78.151 3.682 117.795 5.432 9.565.421 19.18.853 28.794 1.25a25790 25790 0 0 0 244.874 9.433c10.006.353 20.024.682 30.079 1.012 41.748 1.364 83.741 2.659 126.247 3.853h.38c42.518 1.205 85.539 2.262 128.791 3.205 10.447.273 20.929.489 31.425.716 43.105.932 86.444 1.796 130.235 2.534.428 0 .856.01 1.308.01 16.673.272 33.553.488 50.335.716.477 15.877.783 31.766.783 47.722 0 7.001-.22 13.991-.33 20.981-62.017-.887-123.581-1.921-184.276-3.251-10.104-.227-20.183-.443-30.263-.659-87.116-2-172.778-4.376-256.873-7.126-10.129-.33-20.244-.671-30.348-1.012-41.614-1.409-82.995-2.864-123.813-4.443-.196-.01-.38-.01-.587-.03a22510 22510 0 0 1-120.829-4.967c-9.92-.443-19.828-.864-29.675-1.284-39.62-1.762-78.983-3.569-117.722-5.456-.256-.02-.526-.02-.782-.05-38.691-1.887-76.757-3.864-114.529-5.865-9.566-.5-19.095-1.011-28.575-1.534a23441 23441 0 0 1-111.422-6.239c-247.406-14.446-482.519-31.562-702.28-49.985v-68.964c221.009 18.559 457.688 35.823 706.916 50.382 36.623 2.114 73.907 4.194 111.471 6.24" style="fill:#fff;fill-opacity:1;fill-rule:nonzero;stroke:none" transform="matrix(.00631 0 0 -.00691 -59.745 117.707)"/><path d="M15736.479 10242.877a349 349 0 0 0-3.511-.318v-69.01c1.174.113 2.336.216 3.511.295zm-1764.03-69.862c-1.437-.25-2.775-.466-3.936-.66 3.124-22.821 6.851-45.472 10.965-67.998 1.142.205 2.499.421 4.105.671-4.158 22.526-7.961 45.165-11.134 67.987m1764.03 207.893c-1.175-.102-2.349-.193-3.511-.284v-69.044c1.174.07 2.336.17 3.511.261zm-1738.867-343.344c-1.659-.285-3.088-.512-4.286-.728a1557 1557 0 0 1 16.899-66.975c1.301.227 2.791.443 4.364.727-6.169 22.14-11.774 44.484-16.977 66.976" style="fill:#2a367e;fill-opacity:1;fill-rule:nonzero;stroke:none" transform="matrix(.00631 0 0 -.00691 -59.745 117.707)"/><path d="M17537.665 10334.322c-.452 0-.88-.01-1.308-.01-43.791-.738-87.13-1.602-130.235-2.534-10.496-.227-20.978-.443-31.425-.716-43.24-.943-86.285-2-128.791-3.205h-.38a27546 27546 0 0 1-126.247-3.853c-10.055-.33-20.085-.659-30.079-1.012a25790 25790 0 0 1-244.874-9.433c-9.614-.397-19.229-.829-28.794-1.25-39.644-1.75-79.032-3.557-117.795-5.432-.147-.02-.294-.02-.44-.03-38.801-1.886-77.001-3.864-114.896-5.875-9.211-.489-18.385-1.001-27.535-1.466a34483 34483 0 0 1-111.471-6.24c-249.228-14.559-485.907-31.823-706.916-50.382v-69.033a27791 27791 0 0 0 711.564 50.814c380.969 22.231 761.717 36.13 1136.263 41.609 1.713 22.798 2.997 45.711 3.694 68.702-16.745-.215-33.699-.375-50.335-.647m-2606.498-171.009c-532.596-60.599-874.765-115.994-933.555-125.756 5.203-22.492 10.808-44.836 16.977-66.976 68.623 11.286 412.173 66.43 940.993 126.291a752 752 0 0 0-24.415 66.441m1619.014 204.745c9.48.523 19.009 1.034 28.575 1.534 37.772 2.001 75.838 3.978 114.529 5.865.256.02.526.02.782.05 38.739 1.887 78.102 3.694 117.722 5.456 9.859.42 19.755.841 29.675 1.284a22459 22459 0 0 0 120.829 4.967c.207.02.391.02.587.03 40.818 1.579 82.199 3.034 123.813 4.443 10.104.341 20.219.682 30.348 1.012 84.095 2.75 169.757 5.126 256.873 7.126 10.08.216 20.159.432 30.263.659 60.756 1.33 122.198 2.41 184.276 3.307-.294 22.913-1.015 45.814-2.336 68.681-379.843-5.467-765.863-19.503-1152.006-42.052-245.84-14.354-479.326-31.3-697.632-49.518v-69.067c219.761 18.423 454.874 35.539 702.28 49.985a23353 23353 0 0 0 111.422 6.239m-1648.065-69.454c-527.517-60.247-866.599-115.119-929.667-125.597 3.173-22.822 6.976-45.461 11.134-67.987 56.96 9.456 398.011 64.782 929.811 125.483-4.771 22.401-8.624 45.086-11.278 68.101" style="fill:#2a367e;fill-opacity:1;fill-rule:nonzero;stroke:none" transform="matrix(.00631 0 0 -.00691 -59.745 117.707)"/><path d="M17536.357 10334.31c-43.791-.738-87.13-1.602-130.235-2.534 43.105.932 86.444 1.796 130.235 2.534m51.643.659v.07c-16.782-.228-33.662-.444-50.335-.716 16.636.272 33.59.432 50.335.647m-746.536 47.279c-9.92-.443-19.816-.864-29.675-1.284 9.847.42 19.755.841 29.675 1.284m121.416 5.001c-.196-.01-.38-.01-.587-.03.207.02.391.02.587.03m-268.813-11.741c-.256-.02-.526-.02-.782-.05.256.02.526.02.782.05m3.23-68.669c-38.801-1.886-76.989-3.864-114.896-5.875 37.895 2.011 76.095 3.989 114.896 5.875m706.88 93.65" style="fill:#2a367e;fill-opacity:1;fill-rule:nonzero;stroke:none" transform="matrix(.00631 0 0 -.00691 -59.745 117.707)"/><path d="M20601.974 10401.638c0-445.154-388.393-806.012-867.524-806.012-479.094 0-867.475 360.858-867.475 806.012s388.381 806.024 867.475 806.024c479.131 0 867.524-360.87 867.524-806.024" style="fill:#fff;fill-opacity:1;fill-rule:nonzero;stroke:none" transform="matrix(.00631 0 0 -.00691 -59.745 117.707)"/><path d="M19729.839 9776.242c-366.902 0-665.401 277.335-665.401 618.247 0 340.901 298.499 618.247 665.401 618.247s665.401-277.346 665.401-618.247c0-340.912-298.5-618.247-665.401-618.247" style="fill:#d82b2e;fill-opacity:1;fill-rule:nonzero;stroke:none" transform="matrix(.00631 0 0 -.00691 -59.745 117.707)"/><path d="M19729.839 11041.15c-383.758 0-695.982-290.087-695.982-646.661 0-356.562 312.224-646.66 695.982-646.66 383.769 0 695.981 290.098 695.981 646.66 0 356.574-312.212 646.661-695.981 646.661m0-56.827c350.583 0 634.82-264.083 634.82-589.834 0-325.762-284.237-589.834-634.82-589.834-350.609 0-634.821 264.072-634.821 589.834 0 325.751 284.212 589.834 634.821 589.834" style="fill:#15192a;fill-opacity:1;fill-rule:nonzero;stroke:none" transform="matrix(.00631 0 0 -.00691 -59.745 117.707)"/><path d="M20364.659 10394.489c0-325.762-284.237-589.834-634.82-589.834-350.609 0-634.821 264.072-634.821 589.834m0 0h1269.641" style="fill:#fff;fill-opacity:1;fill-rule:nonzero;stroke:none" transform="matrix(.00631 0 0 -.00691 -59.745 117.707)"/><path d="M19095.018 10394.489h1269.641" style="fill:none;stroke:#15192a;stroke-width:58.95353317;stroke-linecap:butt;stroke-linejoin:miter;stroke-miterlimit:10;stroke-dasharray:none;stroke-opacity:1" transform="matrix(.00631 0 0 -.00691 -59.745 117.707)"/><path d="M19728.285 10171.333c-131.568 0-238.599 99.457-238.599 221.69 0 122.245 107.031 221.691 238.599 221.691s238.599-99.446 238.599-221.691c0-122.233-107.031-221.69-238.599-221.69" style="fill:#fff;fill-opacity:1;fill-rule:nonzero;stroke:none" transform="matrix(.00631 0 0 -.00691 -59.745 117.707)"/><path d="M19728.285 10643.127c-148.424 0-269.179-112.198-269.179-250.104s120.755-250.104 269.179-250.104 269.179 112.198 269.179 250.104-120.755 250.104-269.179 250.104m0-56.826c114.884 0 208.019-86.535 208.019-193.278 0-106.731-93.135-193.277-208.019-193.277-114.896 0-208.019 86.546-208.019 193.277 0 106.743 93.123 193.278 208.019 193.278" style="fill:#15192a;fill-opacity:1;fill-rule:nonzero;stroke:none" transform="matrix(.00631 0 0 -.00691 -59.745 117.707)"/><path d="M18879.758 10243.4c-.477 2.25-1.065 4.466-1.505 6.728-301.558 12.354-610.797 18.696-927.596 18.787.343-4.217.808-8.411 1.175-12.616 304.774 1.591 615.616-2.193 927.926-12.899m-1295.452 22.867c-374.546-5.479-755.294-19.378-1136.263-41.609a27791 27791 0 0 1-711.564-50.814v-14.343c540.327 42.654 1173.24 79.421 1846.421 92.298.416 4.841 1.039 9.637 1.406 14.468m-2628.724-169.388c-263.895-29.879-481.641-58.577-642.124-81.216 159.619 20.048 379.079 45.938 645.659 73.317-1.15 2.659-2.397 5.239-3.535 7.899m3779.874-1077.005c-27.694 17.296-54.8 35.357-81.344 54.02-53.099-15.627 8.734-38.78 81.344-54.02m310.267-165.947s21.736-3.76 53.784-8.496a1856 1856 0 0 0-102.358 39.334c20.122-19.175 48.574-30.838 48.574-30.838m2376.021 1017.249c-.966.523-2.287 1.125-3.596 1.682-47.595-134.144-113.208-260.65-194.038-377.18 302.426-30.992 240.556 352.404 197.634 375.498" style="fill:#29357c;fill-opacity:1;fill-rule:nonzero;stroke:none" transform="matrix(.00631 0 0 -.00691 -59.745 117.707)"/><path d="M19728.31 12189.802c-1064.62 0-1930.737-804.74-1930.737-1793.915 0-989.173 866.117-1793.913 1930.737-1793.913 1064.595 0 1930.736 804.74 1930.736 1793.913 0 989.175-866.141 1793.915-1930.736 1793.915m0-137.44c984.609 0 1782.802-741.629 1782.802-1656.475s-798.193-1656.465-1782.802-1656.465c-984.634 0-1782.827 741.62-1782.827 1656.465 0 914.846 798.193 1656.475 1782.827 1656.475M15774.997 9692.73c-420.918 0-763.343 311.317-763.343 693.985 0 382.646 342.425 693.963 763.343 693.963 187.812 0 367.783-62.941 506.776-175.093h-656.239v-962.092h735.98c-143.385-156.067-358.131-250.763-586.517-250.763m0 2470.295c-1063.232 0-1928.246-796.852-1928.246-1776.31 0-979.482 865.014-1776.333 1928.246-1776.333 1063.238 0 1928.242 796.851 1928.242 1776.333 0 131.178-15.694 262.163-46.666 389.522l-9.492 26.754s-23.069 45.665-37.98 60.747c-14.483 14.616-61.099 41.279-61.099 41.279l-27.327.545-1.162.02h-925.186l617.451 510.857 82.848 68.543-73.784 76.977c-366.082 381.987-893.077 601.063-1445.845 601.063zm0-103.083c521.148 0 1017.942-206.484 1362.997-566.524l-704.274-582.696c-166.283 173.513-406.387 273.027-658.723 273.027-482.091 0-874.276-357.539-874.276-797.034s392.185-797.056 874.276-797.056c348.664 0 650.209 187.106 790.462 456.894h-828.98v755.938h1792.453s2.336-.182 5.798-4.535c4.33-5.49 10.911-33.346 10.911-33.346 30.947-123.381 46.653-250.513 46.653-377.895 0-922.642-815.244-1673.259-1817.297-1673.259-1002.067 0-1817.307 750.617-1817.307 1673.259 0 922.632 815.24 1673.227 1817.307 1673.227" style="fill:#fff;fill-opacity:1;fill-rule:nonzero;stroke:none" transform="matrix(.00631 0 0 -.00691 -59.745 117.707)"/></svg>