<?xml version="1.0" encoding="UTF-8" standalone="no"?>
<svg
   xmlns:dc="http://purl.org/dc/elements/1.1/"
   xmlns:cc="http://creativecommons.org/ns#"
   xmlns:rdf="http://www.w3.org/1999/02/22-rdf-syntax-ns#"
   xmlns:svg="http://www.w3.org/2000/svg"
   xmlns="http://www.w3.org/2000/svg"
   xmlns:sodipodi="http://sodipodi.sourceforge.net/DTD/sodipodi-0.dtd"
   xmlns:inkscape="http://www.inkscape.org/namespaces/inkscape"
   xml:space="preserve"
   enable-background="new 0 0 280 103"
   viewBox="0 0 99.999998 60"
   height="60"
   width="100"
   y="0px"
   x="0px"
   id="Layer_1"
   version="1.1"
   inkscape:version="0.91 r13725"
   sodipodi:docname="International_Pok%C3%A9mon_logo.svg"><title
     id="title4787">Pokémon Go logo</title><metadata
     id="metadata105"><rdf:RDF><cc:Work
         rdf:about=""><dc:format>image/svg+xml</dc:format><dc:type
           rdf:resource="http://purl.org/dc/dcmitype/StillImage" /><dc:title>Pokémon Go logo</dc:title><cc:license
           rdf:resource="http://scripts.sil.org/OFL" /></cc:Work><cc:License
         rdf:about="http://scripts.sil.org/OFL"><cc:permits
           rdf:resource="http://scripts.sil.org/pub/OFL/Reproduction" /><cc:permits
           rdf:resource="http://scripts.sil.org/pub/OFL/Distribution" /><cc:permits
           rdf:resource="http://scripts.sil.org/pub/OFL/Embedding" /><cc:permits
           rdf:resource="http://scripts.sil.org/pub/OFL/DerivativeWorks" /><cc:requires
           rdf:resource="http://scripts.sil.org/pub/OFL/Notice" /><cc:requires
           rdf:resource="http://scripts.sil.org/pub/OFL/Attribution" /><cc:requires
           rdf:resource="http://scripts.sil.org/pub/OFL/ShareAlike" /><cc:requires
           rdf:resource="http://scripts.sil.org/pub/OFL/DerivativeRenaming" /><cc:requires
           rdf:resource="http://scripts.sil.org/pub/OFL/BundlingWhenSelling" /></cc:License></rdf:RDF></metadata><sodipodi:namedview
     pagecolor="#ffffff"
     bordercolor="#666666"
     borderopacity="1"
     objecttolerance="10000"
     gridtolerance="10000"
     guidetolerance="10000"
     inkscape:pageopacity="0"
     inkscape:pageshadow="2"
     inkscape:window-width="1366"
     inkscape:window-height="705"
     id="namedview103"
     showgrid="false"
     inkscape:zoom="1"
     inkscape:cx="69.41998"
     inkscape:cy="34.248002"
     inkscape:window-x="-8"
     inkscape:window-y="-8"
     inkscape:window-maximized="1"
     inkscape:current-layer="Layer_1"
     inkscape:showpageshadow="false"><inkscape:grid
       type="xygrid"
       id="grid4785" /></sodipodi:namedview><defs
     id="defs202"><clipPath
       id="clipPath18-5"
       clipPathUnits="userSpaceOnUse"><path
         inkscape:connector-curvature="0"
         id="path16-8"
         d="m 0,841.89 595.275,0 L 595.275,0 0,0 Z" /></clipPath><clipPath
       id="clipPath770-3"
       clipPathUnits="userSpaceOnUse"><path
         inkscape:connector-curvature="0"
         id="path768-1"
         d="m 101.73,480.64 0,-0.161 16.965,-28.639 6.796,6.482 -18.529,27.633 z" /></clipPath><clipPath
       id="clipPath780-2"
       clipPathUnits="userSpaceOnUse"><path
         inkscape:connector-curvature="0"
         id="path778-2"
         d="M 651.57102,220.31618 398.27317,692.37458 -66.230614,443.13041 187.06723,-28.927996 Z" /></clipPath><linearGradient
       id="linearGradient786-6"
       spreadMethod="pad"
       gradientTransform="matrix(-14.1811,26.4286,-26.4286,-14.1811,120.49731,456.56082)"
       gradientUnits="userSpaceOnUse"
       y2="0"
       x2="1"
       y1="0"
       x1="0"><stop
         id="stop782-3"
         offset="0"
         style="stop-opacity:1;stop-color:#316dbc" /><stop
         id="stop784-7"
         offset="1"
         style="stop-opacity:1;stop-color:#212d5b" /></linearGradient><clipPath
       id="clipPath796-6"
       clipPathUnits="userSpaceOnUse"><path
         inkscape:connector-curvature="0"
         id="path794-7"
         d="m 0,841.89 595.275,0 L 595.275,0 0,0 Z" /></clipPath><clipPath
       id="clipPath808-4"
       clipPathUnits="userSpaceOnUse"><path
         inkscape:connector-curvature="0"
         id="path806-8"
         d="m 307.006,529.04 -26.201,-30.047 7.624,2.194 24.948,31.146 z" /></clipPath><clipPath
       id="clipPath818-5"
       clipPathUnits="userSpaceOnUse"><path
         inkscape:connector-curvature="0"
         id="path816-2"
         d="M 305.83461,-60.323408 684.69146,345.6094 279.50624,723.76853 -99.350616,317.83572 Z" /></clipPath><linearGradient
       id="linearGradient824-4"
       spreadMethod="pad"
       gradientTransform="matrix(18.0012,19.287701,-19.287701,18.0012,293.46002,510.54974)"
       gradientUnits="userSpaceOnUse"
       y2="0"
       x2="1"
       y1="0"
       x1="0"><stop
         id="stop820-9"
         offset="0"
         style="stop-opacity:1;stop-color:#316dbc" /><stop
         id="stop822-9"
         offset="1"
         style="stop-opacity:1;stop-color:#212d5b" /></linearGradient><clipPath
       id="clipPath834-3"
       clipPathUnits="userSpaceOnUse"><path
         inkscape:connector-curvature="0"
         id="path832-8"
         d="m 0,841.89 595.275,0 L 595.275,0 0,0 Z" /></clipPath><clipPath
       id="clipPath850-7"
       clipPathUnits="userSpaceOnUse"><path
         inkscape:connector-curvature="0"
         id="path848-5"
         d="m 210.108,494.732 0.915,-18.664 7.979,3.223 -2.388,18.93 z" /></clipPath><clipPath
       id="clipPath860-5"
       clipPathUnits="userSpaceOnUse"><path
         inkscape:connector-curvature="0"
         id="path858-9"
         d="M 530.9696,135.85266 478.33276,578.05758 54.369646,527.59211 107.00649,85.387188 Z" /></clipPath><linearGradient
       id="linearGradient866-8"
       spreadMethod="pad"
       gradientTransform="matrix(-2.1466,18.033701,-18.033701,-2.1466,214.92673,478.39471)"
       gradientUnits="userSpaceOnUse"
       y2="0"
       x2="1"
       y1="0"
       x1="0"><stop
         id="stop862-1"
         offset="0"
         style="stop-opacity:1;stop-color:#316dbc" /><stop
         id="stop864-9"
         offset="1"
         style="stop-opacity:1;stop-color:#212d5b" /></linearGradient><clipPath
       id="clipPath876-2"
       clipPathUnits="userSpaceOnUse"><path
         inkscape:connector-curvature="0"
         id="path874-7"
         d="m 406.97,496.833 0.235,-19.202 6.462,3.313 2.03,9.296 -2.307,10.06 z" /></clipPath><clipPath
       id="clipPath886-9"
       clipPathUnits="userSpaceOnUse"><path
         inkscape:connector-curvature="0"
         id="path884-0"
         d="M 504.83443,131.33707 482.61331,553.28428 80.504998,532.10794 102.72612,110.16074 Z" /></clipPath><linearGradient
       id="linearGradient892-4"
       spreadMethod="pad"
       gradientTransform="matrix(-0.8572,16.277,-16.277,-0.8572,411.55888,481.86729)"
       gradientUnits="userSpaceOnUse"
       y2="0"
       x2="1"
       y1="0"
       x1="0"><stop
         id="stop888-0"
         offset="0"
         style="stop-opacity:1;stop-color:#2c59a4" /><stop
         id="stop890-0"
         offset="1"
         style="stop-opacity:1;stop-color:#212d5b" /></linearGradient><clipPath
       id="clipPath902-3"
       clipPathUnits="userSpaceOnUse"><path
         inkscape:connector-curvature="0"
         id="path900-7"
         d="m 0,841.89 595.275,0 L 595.275,0 0,0 Z" /></clipPath><clipPath
       id="clipPath922-6"
       clipPathUnits="userSpaceOnUse"><path
         inkscape:connector-curvature="0"
         id="path920-6"
         d="m 329.491,499.37 -11.408,-69.363 6.39,3.32 10.952,38.946 0.381,30.574 z" /></clipPath><clipPath
       id="clipPath932-5"
       clipPathUnits="userSpaceOnUse"><path
         inkscape:connector-curvature="0"
         id="path930-5"
         d="M 209.85608,705.33587 -79.904215,244.35684 375.48426,-41.889368 665.24456,419.08966 Z" /></clipPath><linearGradient
       id="linearGradient938-3"
       spreadMethod="pad"
       gradientTransform="matrix(-18.8899,-30.051901,30.051901,-18.8899,351.48402,505.32936)"
       gradientUnits="userSpaceOnUse"
       y2="0"
       x2="1"
       y1="0"
       x1="0"><stop
         id="stop934-2"
         offset="0"
         style="stop-opacity:1;stop-color:#2c59a4" /><stop
         id="stop936-5"
         offset="1"
         style="stop-opacity:1;stop-color:#212d5b" /></linearGradient><clipPath
       id="clipPath948-7"
       clipPathUnits="userSpaceOnUse"><path
         inkscape:connector-curvature="0"
         id="path946-0"
         d="m 0,841.89 595.275,0 L 595.275,0 0,0 Z" /></clipPath><clipPath
       id="clipPath968-2"
       clipPathUnits="userSpaceOnUse"><path
         inkscape:connector-curvature="0"
         id="path966-7"
         d="m 175.267,440.869 c 0,0 1.396,-7.34 3.195,-12.444 l 0,0 c 1.81,-5.124 6.116,-9.238 6.116,-9.238 l 0,0 c 2.767,-2.705 6.157,-4.673 9.94,-5.777 l 0,0 c 7.275,-2.094 15.486,-0.729 22.535,3.767 l 0,0 c 1.843,1.165 4.344,3.032 5.882,4.506 l 0,0 c -6.929,-4.205 -41.091,23.7 -41.091,23.7 l 0,0 z" /></clipPath><clipPath
       id="clipPath978-4"
       clipPathUnits="userSpaceOnUse"><path
         inkscape:connector-curvature="0"
         id="path976-1"
         d="M -61.148738,450.43367 180.14394,-24.110907 646.48863,213.01236 405.19595,687.55693 Z" /></clipPath><linearGradient
       id="linearGradient984-9"
       spreadMethod="pad"
       gradientTransform="matrix(12.8797,-25.3302,25.3302,12.8797,184.30418,457.12604)"
       gradientUnits="userSpaceOnUse"
       y2="0"
       x2="1"
       y1="0"
       x1="0"><stop
         id="stop980-8"
         offset="0"
         style="stop-opacity:1;stop-color:#2c5aa7" /><stop
         id="stop982-7"
         offset="1"
         style="stop-opacity:1;stop-color:#212d5b" /></linearGradient><clipPath
       id="clipPath994-3"
       clipPathUnits="userSpaceOnUse"><path
         inkscape:connector-curvature="0"
         id="path992-1"
         d="m 0,841.89 595.275,0 L 595.275,0 0,0 Z" /></clipPath><clipPath
       id="clipPath1006-9"
       clipPathUnits="userSpaceOnUse"><path
         inkscape:connector-curvature="0"
         id="path1004-7"
         d="m 124.096,457.599 -5.401,-5.759 6.405,2.75 27.401,-62.147 26.034,8.398 6.356,4.274 -54.034,56.535 z" /></clipPath><clipPath
       id="clipPath1016-1"
       clipPathUnits="userSpaceOnUse"><path
         inkscape:connector-curvature="0"
         id="path1014-7"
         d="M -44.898996,469.99686 161.60164,-8.7094791 630.2394,193.44785 423.73876,672.15419 Z" /></clipPath><linearGradient
       id="linearGradient1022-5"
       spreadMethod="pad"
       gradientTransform="matrix(14.9065,-34.556,34.556,14.9065,135.70447,465.77348)"
       gradientUnits="userSpaceOnUse"
       y2="0"
       x2="1"
       y1="0"
       x1="0"><stop
         id="stop1018-4"
         offset="0"
         style="stop-opacity:1;stop-color:#2c5aa7" /><stop
         id="stop1020-9"
         offset="1"
         style="stop-opacity:1;stop-color:#212d5b" /></linearGradient><clipPath
       id="clipPath1032-5"
       clipPathUnits="userSpaceOnUse"><path
         inkscape:connector-curvature="0"
         id="path1030-4"
         d="m 0,841.89 595.275,0 L 595.275,0 0,0 Z" /></clipPath><clipPath
       id="clipPath1212-8"
       clipPathUnits="userSpaceOnUse"><path
         inkscape:connector-curvature="0"
         id="path1210-9"
         d="m 201.129,453.117 c 0,-5.967 4.996,-10.648 11.223,-10.648 l 0,0 c 6.337,0 11.327,4.683 11.327,10.648 l 0,0 c 0,2.064 -0.682,4.012 -1.855,5.612 l 0,0 c 0.158,-0.481 0.254,-1.017 0.254,-1.586 l 0,0 c 0,-3.391 -3.084,-6.108 -6.863,-6.108 l 0,0 c -3.788,0 -6.862,2.717 -6.862,6.108 l 0,0 c 0,3.163 2.704,5.767 6.17,6.07 l 0,0 c -0.665,0.121 -1.355,0.191 -2.069,0.191 l 0,0 c -6.331,0 -11.325,-4.697 -11.325,-10.287" /></clipPath><clipPath
       id="clipPath1222-0"
       clipPathUnits="userSpaceOnUse"><path
         inkscape:connector-curvature="0"
         id="path1220-4"
         d="m 101.6699,533.22264 382.0005,0 0,-402.99893 -382.0005,0 z" /></clipPath><linearGradient
       id="linearGradient1228-6"
       spreadMethod="pad"
       gradientTransform="matrix(22.5501,0,0,-22.5501,201.12892,452.93594)"
       gradientUnits="userSpaceOnUse"
       y2="0"
       x2="1"
       y1="0"
       x1="0"><stop
         id="stop1224-1"
         offset="0"
         style="stop-opacity:1;stop-color:#3f53ab" /><stop
         id="stop1226-8"
         offset="1"
         style="stop-opacity:1;stop-color:#3e71c0" /></linearGradient><clipPath
       id="clipPath1238-3"
       clipPathUnits="userSpaceOnUse"><path
         inkscape:connector-curvature="0"
         id="path1236-6"
         d="m 287.343,502.334 4.493,-5.478 c -4.07,-1.663 -7.626,-3.957 -10.573,-6.727 l 0,0 -22.32,19.805 -7.805,-14.959 0.3,14.375 -34.898,-11.149 0.896,-18.749 5.936,1.539 0.878,-9.502 c -6.784,3.047 -14.939,2.971 -22.501,-0.224 l 0,0 c -2.242,-0.976 -4.331,-2.176 -6.256,-3.574 l 0,0 c 1.308,5.792 0.999,11.497 -1.207,16.586 l 0,0 c -2.605,6.014 -7.19,10.985 -12.809,14.12 l 0,0 c -3.94,2.625 -8.637,4.261 -13.551,4.818 l 0,0 c -12.075,2.109 -26.576,-0.057 -40.847,-6.138 l 0,0 c -5.247,-2.238 -10.141,-4.777 -14.555,-7.59 l 0,0 -5.579,-3.537 13.825,-23.362 c 0,0 3.2,-5.415 3.22,-5.412 l 0,0 5.655,2.779 0.789,0.362 25.982,-57.989 2.506,-5.572 5.801,1.869 14.058,4.502 6.161,1.958 -1.626,6.272 -7.465,28.661 c 2.147,1.59 4.152,3.275 6.002,5.041 l 0,0 c -0.417,-3.425 -0.198,-6.891 0.745,-10.21 l 0,0 c 1.951,-6.949 6.502,-12.437 12.816,-15.478 l 0,0 c 6.819,-3.277 15.138,-3.285 22.836,-0.021 l 0,0 c 3.861,1.638 7.294,4.029 10.203,6.871 l 0,0 1.06,-11.415 24.619,3.626 -0.039,22.076 51.443,-25.424 0,24.616 c 2.064,0.173 4.172,0.498 6.291,1.017 l 0,0 c 5.664,1.37 10.511,3.248 14.818,5.829 l 0,0 -2.158,-13.221 27.736,-4.366 1.52,9.98 7.245,-13.381 4.429,8.533 1.618,-14.011 31.445,-5.545 -1.666,10.582 c 4.305,-0.488 8.842,0.09 13.225,1.742 l 0,0 c 1.037,0.385 2.063,0.852 3.044,1.353 l 0,0 -1.252,-11.257 20.928,-2.953 0.158,-8.582 21.824,-6.85 28.413,85.641 -29.587,7.192 -2.813,-11.588 -2.595,12.83 -34.769,7.654 0.244,-19.334 5.24,-1.173 -0.38,-3.489 c -0.066,0.028 -0.11,0.07 -0.146,0.098 l 0,0 c -6.495,3.429 -14.547,3.78 -22.127,0.918 l 0,0 c -2.543,-0.974 -4.901,-2.252 -7.041,-3.807 l 0,0 -5.245,33.111 -23.124,0 -0.636,-3.807 -24.338,0 -2.779,-17.021 -2.018,2.494 c -5.899,7.244 -14.447,11.235 -23.918,11.432 l 0,0 20.663,11.107 -14.408,21.503 z m 9.253,1.587 15.669,18.862 7.618,-10.35 -21.783,-10.799 z m 70.306,-3.706 11.776,0 4.889,-31.766 c -6.219,-7.085 -9.241,-16.608 -7.162,-25.32 l 0,0 c 1.607,-6.754 5.758,-12.194 11.707,-15.37 l 0,0 c 0.598,-0.302 1.22,-0.601 1.858,-0.857 l 0,0 0.623,-4.117 -17.366,2.65 -4.625,30.628 -6.536,-16.895 -9.791,21.117 -0.111,0 -3.87,-24.456 -16.32,2.84 2.295,13.649 c 0.616,0.578 1.222,1.158 1.82,1.772 l 0,0 5.289,5.446 -5.14,4.604 5.461,32.499 16.463,0 4.122,-22.497 z m -105.667,-0.435 15.271,-14.542 -21.356,-22.499 20.063,-7.936 c 2.241,-4.248 5.66,-7.855 9.95,-10.514 l 0,0 c 4.146,-2.559 8.897,-4.073 13.924,-4.57 l 0,0 0.003,-14.389 -51.044,25.53 0.09,-26.749 -13.203,-1.8 -0.92,11.025 c 4.077,6.99 5.568,15.228 3.439,22.782 l 0,0 c -1.167,4.153 -3.325,7.756 -6.257,10.644 l 0,0 -1.894,22.481 -5.929,-1.537 -0.262,5.683 21.204,6.313 1.3,-21.87 z M 116.198,483.734 c 4.156,2.654 8.715,5.007 13.563,7.056 l 0,0 c 13.608,5.787 26.591,7.514 36.975,5.679 l 0,0 c 3.674,-0.413 7.562,-1.495 10.969,-3.756 l 0,0 c 4.673,-2.632 8.248,-6.379 10.309,-11.148 l 0,0 c 5.027,-11.618 -3.371,-28.336 -19.993,-38.593 l 0,0 8.692,-33.347 -14.067,-4.495 -28.865,64.463 c -1.569,-0.825 -4.468,-2.21 -7.131,-3.515 l 0,0 z m 164.078,-24.408 c -0.464,1.054 -0.822,2.124 -1.093,3.265 l 0,0 c -1.724,7.344 -0.251,13.909 3.376,19.051 l 0,0 c 1.045,1.5 2.285,2.869 3.679,4.1 l 0,0 c 3.416,3.05 7.78,5.267 12.74,6.459 l 0,0 c 11.156,2.691 20.98,-0.715 27.001,-8.105 l 0,0 -21.257,-22.624 c 1.444,-0.272 3.736,0.106 5.424,0.511 l 0,0 c 5.064,1.235 7.898,3.922 10.395,6.849 l 0,0 8.494,-7.641 2.572,-2.324 c -1.114,-1.155 -2.287,-2.244 -3.473,-3.238 l 0,0 c -4.9,-4.052 -10.482,-6.694 -17.859,-8.477 l 0,0 c -1.613,-0.369 -3.194,-0.639 -4.739,-0.774 l 0,0 c -1.054,-0.104 -2.095,-0.154 -3.115,-0.154 l 0,0 c -10e-4,0 -0.002,0 -0.003,0 l 0,0 c -10.314,0 -18.751,5.167 -22.142,13.102 m 138.008,-36.916 0.942,9.882 c 8.598,7.264 13.154,18.722 10.658,29.106 l 0,0 c -1.098,4.599 -3.462,8.603 -6.794,11.646 l 0,0 1.112,11.655 -4.978,1.323 0.332,6.224 22.682,-4.56 7.626,-36.166 7.822,32.424 17.252,-3.812 -24.3,-73.585 -12.067,3.594 -1.053,44.49 -6.069,-34.321 z m -92.435,51.096 4.845,5.17 1.444,1.533 -1.743,-10.798 z m 70.028,-42.44 c -2.597,0.514 -4.964,1.526 -7.024,2.991 l 0,0 c -3.276,2.37 -5.69,5.868 -6.753,10.264 l 0,0 c -1.24,5.278 -0.095,10.916 2.744,15.854 l 0,0 c 1.416,2.413 3.231,4.68 5.381,6.635 l 0,0 c 2.397,2.149 5.176,3.91 8.267,5.099 l 0,0 c 7.195,2.683 14.293,1.758 19.289,-1.834 l 0,0 c 1.836,-1.302 3.361,-2.96 4.562,-4.887 l 0,0 c 0.913,-1.521 1.621,-3.198 2.048,-5.031 l 0,0 c 1.533,-6.338 -0.289,-13.129 -4.291,-18.598 l 0,0 c -1.712,-2.332 -3.798,-4.427 -6.207,-6.144 l 0,0 c -1.8,-1.28 -3.778,-2.369 -5.908,-3.155 l 0,0 c -2.796,-1.066 -5.583,-1.569 -8.233,-1.569 l 0,0 c -1.332,0 -2.629,0.127 -3.875,0.375 m -130.391,33.99 6.618,6.432 c -0.283,-2.953 -0.138,-6.041 0.482,-9.172 l 0,0 z m -77.23,-28.196 c -3.159,11.201 4.19,24.538 16.014,29.631 l 0,0 c 7.55,3.187 15.128,2.431 20.555,-1.255 l 0,0 c 3.354,-2.276 5.91,-5.693 7.104,-9.976 l 0,0 c 0.149,-0.455 0.249,-0.933 0.348,-1.399 l 0,0 c 0.343,-1.633 0.48,-3.307 0.415,-4.955 l 0,0 c -0.161,-4.966 -1.985,-9.941 -5.038,-14.149 l 0,0 c -2.903,-4.07 -6.96,-7.431 -11.732,-9.485 l 0,0 c -3.211,-1.359 -6.423,-2.004 -9.469,-2.004 l 0,0 c -0.001,0 -0.002,0 -0.003,0 l 0,0 c -8.536,0 -15.791,5.054 -18.194,13.592" /></clipPath><clipPath
       id="clipPath1248-0"
       clipPathUnits="userSpaceOnUse"><path
         inkscape:connector-curvature="0"
         id="path1246-4"
         d="m 101.66991,533.22267 381.99943,0 0,-402.99998 -381.99943,0 z" /></clipPath><linearGradient
       id="linearGradient1254-8"
       spreadMethod="pad"
       gradientTransform="matrix(376.20901,0,0,-376.20901,106.94492,464.54346)"
       gradientUnits="userSpaceOnUse"
       y2="0"
       x2="1"
       y1="0"
       x1="0"><stop
         id="stop1250-2"
         offset="0"
         style="stop-opacity:1;stop-color:#3f53ab" /><stop
         id="stop1252-7"
         offset="1"
         style="stop-opacity:1;stop-color:#3e71c0" /></linearGradient><clipPath
       id="clipPath1264-8"
       clipPathUnits="userSpaceOnUse"><path
         inkscape:connector-curvature="0"
         id="path1262-0"
         d="m 0,841.89 595.275,0 L 595.275,0 0,0 Z" /></clipPath></defs><linearGradient
     gradientTransform="translate(-408,-677.5)"
     y2="714.04132"
     x2="416.7337"
     y1="732.71002"
     x1="426.75101"
     gradientUnits="userSpaceOnUse"
     id="SVGID_1_"><stop
       id="stop12"
       style="stop-color:#0070B6"
       offset="0" /><stop
       id="stop14"
       style="stop-color:#1D2C5E"
       offset="1" /></linearGradient><polygon
     transform="matrix(0.36546361,0,0,0.35411905,-1.3297973,0.15993546)"
     style="fill:url(#SVGID_1_)"
     id="polygon16"
     points="5.451,38.243 17.477,58.544 22.278,53.965 9.189,34.446 " /><polygon
     transform="matrix(0.36546361,0,0,0.35411905,-1.3297973,0.15993546)"
     style="fill:#0071b9"
     id="polygon18"
     points="184.009,22.288 183.544,24.964 189.296,23.108 188.579,19.83 " /><linearGradient
     gradientTransform="translate(-408,-677.5)"
     y2="680.94922"
     x2="561.64203"
     y1="694.57318"
     x1="548.92682"
     gradientUnits="userSpaceOnUse"
     id="SVGID_2_"><stop
       id="stop21"
       style="stop-color:#0070B6"
       offset="0" /><stop
       id="stop23"
       style="stop-color:#1D2C5E"
       offset="1" /></linearGradient><polygon
     transform="matrix(0.36546361,0,0,0.35411905,-1.3297973,0.15993546)"
     style="fill:url(#SVGID_2_)"
     id="polygon25"
     points="150.495,4.012 131.987,25.236 137.373,23.687 154.994,1.686 " /><polygon
     transform="matrix(0.36546361,0,0,0.35411905,-1.3297973,0.15993546)"
     style="fill:#1d2c5e"
     id="polygon27"
     points="249.507,33.031 254.05,30.61 252.752,41.986 " /><polygon
     transform="matrix(0.36546361,0,0,0.35411905,-1.3297973,0.15993546)"
     style="fill:#1d2c5e"
     id="polygon29"
     points="221.271,40.326 225.309,41.153 230.463,38.651 225.99,36.982 " /><linearGradient
     gradientTransform="translate(-408,-677.5)"
     y2="704.54773"
     x2="491.9368"
     y1="717.28607"
     x1="493.45309"
     gradientUnits="userSpaceOnUse"
     id="SVGID_3_"><stop
       id="stop32"
       style="stop-color:#0070B6"
       offset="0" /><stop
       id="stop34"
       style="stop-color:#1D2C5E"
       offset="1" /></linearGradient><polygon
     transform="matrix(0.36546361,0,0,0.35411905,-1.3297973,0.15993546)"
     style="fill:url(#SVGID_3_)"
     id="polygon36"
     points="82.049,28.247 82.695,41.43 88.331,39.153 86.644,25.782 " /><linearGradient
     gradientTransform="translate(-408,-677.5)"
     y2="703.336"
     x2="631.74219"
     y1="714.83398"
     x1="632.34772"
     gradientUnits="userSpaceOnUse"
     id="SVGID_4_"><stop
       id="stop39"
       style="stop-color:#125D9E"
       offset="0" /><stop
       id="stop41"
       style="stop-color:#1D2C5E"
       offset="1" /></linearGradient><polygon
     transform="matrix(0.36546361,0,0,0.35411905,-1.3297973,0.15993546)"
     style="fill:url(#SVGID_4_)"
     id="polygon43"
     points="221.105,26.761 221.271,40.326 225.837,37.986 227.27,31.42 225.641,24.313 " /><polygon
     transform="matrix(0.36546361,0,0,0.35411905,-1.3297973,0.15993546)"
     style="fill:#312370"
     id="polygon45"
     points="225.018,41.191 220.023,85.561 228.008,83.986 229.572,38.798 " /><polygon
     transform="matrix(0.36546361,0,0,0.35411905,-1.3297973,0.15993546)"
     style="fill:#21386e"
     id="polygon47"
     points="234.938,93.705 250.266,98.59 254.828,96.172 239.788,84.52 224.553,83.182 220.023,85.561 234.796,87.688 " /><polygon
     transform="matrix(0.36546361,0,0,0.35411905,-1.3297973,0.15993546)"
     style="fill:#21386e"
     id="polygon49"
     points="215.096,84.912 184.368,66.189 162.57,69.925 158.318,73.966 177.934,77.105 181.701,75.076 184.102,79.512 187.652,77.561 188.359,83.409 210.643,87.361 " /><linearGradient
     gradientTransform="translate(-408,-677.5)"
     y2="719.48871"
     x2="576.56763"
     y1="698.26068"
     x1="589.91107"
     gradientUnits="userSpaceOnUse"
     id="SVGID_5_"><stop
       id="stop52"
       style="stop-color:#125D9E"
       offset="0" /><stop
       id="stop54"
       style="stop-color:#1D2C5E"
       offset="1" /></linearGradient><polygon
     transform="matrix(0.36546361,0,0,0.35411905,-1.3297973,0.15993546)"
     style="fill:url(#SVGID_5_)"
     id="polygon56"
     points="166.377,24.969 158.318,73.966 162.832,71.621 170.568,44.11 170.838,22.514 " /><polygon
     transform="matrix(0.36546361,0,0,0.35411905,-1.3297973,0.15993546)"
     style="fill:#1d2c5e"
     id="polygon58"
     points="135.24,29.081 131.686,30.974 131.985,32.159 140.443,26.786 136.747,22.82 131.987,25.236 " /><polygon
     transform="matrix(0.36546361,0,0,0.35411905,-1.3297973,0.15993546)"
     style="fill:#21386e"
     id="polygon60"
     points="144.957,86.958 108.617,68.957 113.179,65.508 149.479,84.516 " /><polygon
     transform="matrix(0.36546361,0,0,0.35411905,-1.3297973,0.15993546)"
     style="fill:#1d2c5e"
     id="polygon62"
     points="112.032,19.963 106.525,30.406 112.344,28.644 116.543,17.516 " /><linearGradient
     gradientTransform="matrix(0.36546361,0,0,0.35411905,-150.43896,-239.75571)"
     y2="750.20251"
     x2="480.91931"
     y1="732.30957"
     x1="471.82129"
     gradientUnits="userSpaceOnUse"
     id="SVGID_6_"><stop
       id="stop65"
       style="stop-color:#105FA1"
       offset="0" /><stop
       id="stop67"
       style="stop-color:#1D2C5E"
       offset="1" /></linearGradient><path
     style="fill:url(#SVGID_6_)"
     id="path69"
     d="m 21.359644,22.506617 -1.697946,1.129286 c 0,0 0.360354,1.835753 0.82486,3.112706 0.467054,1.281557 1.578801,2.310981 1.578801,2.310981 0.714113,0.676365 1.589398,1.168593 2.565916,1.444806 1.878121,0.523739 3.997804,0.182369 5.817453,-0.941958 0.475835,-0.291793 1.121602,-0.758877 1.518502,-1.127514 -1.78858,1.051731 -10.607586,-5.928307 -10.607586,-5.928307 z"
     inkscape:connector-curvature="0" /><polygon
     transform="matrix(0.36546361,0,0,0.35411905,-1.3297973,0.15993546)"
     style="fill:#1d2c5e"
     id="polygon71"
     points="91.187,87.131 108.511,84.568 113.146,82.139 91.647,37.551 87.224,39.041 82.695,41.43 86.947,40.355 " /><linearGradient
     gradientTransform="translate(-408,-677.5)"
     y2="750.61151"
     x2="448.0217"
     y1="726.20209"
     x1="437.49219"
     gradientUnits="userSpaceOnUse"
     id="SVGID_7_"><stop
       id="stop74"
       style="stop-color:#105FA1"
       offset="0" /><stop
       id="stop76"
       style="stop-color:#1D2C5E"
       offset="1" /></linearGradient><polygon
     transform="matrix(0.37062822,0,0,0.35411905,-2.0538007,0.15993546)"
     style="fill:url(#SVGID_7_)"
     id="polygon78"
     points="17.477,58.544 22.001,56.602 41.357,100.5 59.746,94.568 64.236,91.55 26.068,51.615 21.292,54.477 " /><path
     style="fill:#1d2c5e"
     id="path80"
     d="m 76.818024,27.537941 0.09505,0.763127 c 0.578893,-0.06303 1.187029,-0.135628 1.707448,-0.315167 0.606672,-0.201141 1.924535,-0.769855 2.425577,-1.188778 -0.187842,0.06622 -3.275654,0.841741 -4.228047,0.740818"
     inkscape:connector-curvature="0" /><path
     style="fill:#1d2c5e"
     id="path82"
     d="m 53.041321,23.56862 0.252179,1.228793 c 1.360251,-0.196181 2.5279,-0.683803 3.675823,-1.352381 0.720337,-0.415736 1.511198,-1.042881 1.760806,-1.210025 -0.176153,0.109069 -5.688808,1.333613 -5.688808,1.333613 z"
     inkscape:connector-curvature="0" /><g
     transform="matrix(0.36546361,0,0,0.35411905,-1.3297973,0.15993546)"
     id="g84"><path
       style="fill:#ffcb05"
       id="path86"
       d="M 46.389,96.338 44.952,93.145 26.6,52.186 l -0.377,-0.84 -0.834,0.385 -0.557,0.256 -3.267,1.604 C 21.083,52.783 20.283,51.429 19.727,50.49 L 12.34,38.006 10.408,34.747 13.604,32.722 c 3.023,-1.928 6.437,-3.709 10.151,-5.295 7.395,-3.15 14.943,-4.816 21.826,-4.816 2.264,0 4.455,0.183 6.513,0.541 3.431,0.391 6.604,1.517 9.225,3.263 3.906,2.184 6.981,5.572 8.718,9.58 1.426,3.294 1.704,7.152 0.798,11.154 l -0.532,2.351 1.953,-1.416 c 1.316,-0.955 2.746,-1.771 4.25,-2.426 2.6,-1.099 5.29,-1.66 7.985,-1.66 2.551,0 4.963,0.505 7.17,1.498 l 1.423,0.638 -0.143,-1.553 -0.619,-6.711 -0.1,-1.064 -1.036,0.269 -3.109,0.806 -0.545,-11.427 22.774,-7.276 -0.184,8.881 1.715,0.44 4.974,-9.532 14.897,13.212 0.621,0.553 0.606,-0.57 c 2.041,-1.918 4.46,-3.457 7.189,-4.574 l 1.14,-0.466 -0.781,-0.953 -2.686,-3.274 17.103,-19.714 8.957,13.365 -13.711,7.37 -3.045,1.638 3.457,0.073 c 6.5,0.137 12.256,2.887 16.205,7.742 l 1.428,1.761 0.92,1.131 -1.528,1.622 -1.019,1.082 -3.426,3.654 -0.637,0.679 0.689,0.622 3.211,2.891 1.242,1.117 0.266,-1.648 1.232,-7.627 0.315,-1.958 0.01,0.011 0.324,-2 1.839,-11.26 16.418,0 0.77,0 0.13,-0.759 0.321,-1.928 14.785,0 3.582,22.621 0.233,1.465 1.2,-0.871 c 1.451,-1.054 3.054,-1.921 4.766,-2.576 2.279,-0.86 4.625,-1.299 6.967,-1.299 2.788,0 5.495,0.644 7.836,1.861 0.062,0.045 0.15,0.103 0.27,0.151 l 1.111,0.446 0.131,-1.192 0.268,-2.465 0.088,-0.808 -0.795,-0.177 -2.998,-0.67 -0.146,-11.792 22.857,5.031 1.717,8.485 1.775,0.035 1.771,-7.302 19.06,4.635 -19.478,58.703 -13.938,-4.377 -0.099,-5.407 -0.014,-0.775 -0.769,-0.108 -13.908,-1.963 0.787,-7.069 0.187,-1.682 -1.505,0.771 c -0.713,0.363 -1.403,0.668 -2.055,0.908 -2.274,0.86 -4.603,1.295 -6.922,1.295 -0.671,0 -1.345,-0.037 -2.001,-0.111 l -1.188,-0.133 0.186,1.18 0.979,6.217 -20.291,-3.579 -1.063,-9.226 -0.342,-2.957 -1.367,2.643 -2.336,4.505 -4.301,-7.94 -1.293,-2.385 -0.408,2.68 -0.937,6.146 -17.784,-2.799 1.379,-8.435 0.315,-1.934 -1.681,1.005 c -2.911,1.745 -6.254,3.058 -10.217,4.015 -1.385,0.338 -2.832,0.572 -4.305,0.694 l -0.834,0.07 0,0.837 0,15.918 -35.023,-17.309 -1.316,-0.649 0.001,1.467 0.024,14.804 -15.659,2.307 -0.658,-7.109 -0.178,-1.902 -1.365,1.338 c -2.069,2.025 -4.4,3.595 -6.927,4.667 -2.585,1.099 -5.252,1.655 -7.925,1.655 -2.669,0 -5.177,-0.558 -7.455,-1.649 -4.22,-2.03 -7.264,-5.713 -8.57,-10.36 C 62.87,68.121 62.701,65.816 62.99,63.45 l 0.309,-2.52 -1.838,1.75 c -1.296,1.23 -2.692,2.405 -4.152,3.484 l -0.495,0.365 0.156,0.595 5.275,20.248 0.932,3.593 -3.532,1.123 -9.932,3.18 -3.324,1.07 0,0 z m 4.458,-54.356 c -0.512,0 -1.041,0.047 -1.574,0.143 l -0.676,0.13 -0.998,0.192 0.301,0.972 0.196,0.632 2.84,9.293 0.284,0.893 0.422,1.34 1.05,-0.934 0.697,-0.621 c 2.753,-2.474 3.718,-4.986 3.137,-8.154 -0.366,-1.901 -1.838,-2.848 -2.684,-3.244 -0.884,-0.426 -1.896,-0.642 -2.995,-0.642 l 0,0 z m 76.135,0.305 -1.775,1.728 -4.675,4.543 -1.018,0.989 1.325,0.512 5.014,1.935 1.54,0.593 -0.318,-1.618 c -0.414,-2.09 -0.522,-4.182 -0.328,-6.217 l 0.235,-2.465 0,0 z m 20.416,-5.167 c -1.939,0 -3.815,0.834 -5.148,2.286 -2.022,2.208 -2.415,5.465 -0.977,8.103 l 0.381,0.715 0.613,1.143 0.863,-0.966 0.555,-0.615 6.858,-7.83 0.539,-0.62 0.865,-0.994 -1.234,-0.457 -0.769,-0.284 c -0.807,-0.316 -1.671,-0.481 -2.546,-0.481 l 0,0 z"
       inkscape:connector-curvature="0" /></g><path
     style="fill:#7d7f68"
     id="path88"
     d="m 56.37289,17.411906 c -0.02409,0.02053 -0.0464,0.04675 -0.0654,0.07366 0.02516,-0.0223 0.04968,-0.04178 0.07561,-0.06232 l -0.01061,-0.01134 z"
     inkscape:connector-curvature="0" /><polygon
     transform="matrix(0.36546361,0,0,0.35411905,-1.3297973,0.15993546)"
     style="fill:#7d7f68"
     id="polygon90"
     points="163.802,43.241 167.227,39.587 166.055,40.831 166.089,40.674 165.053,41.767 161.631,45.41 164.837,48.294 165.418,44.702 167.014,46.131 " /><polygon
     transform="matrix(0.36546361,0,0,0.35411905,-1.3297973,0.15993546)"
     style="fill:#7d7f68"
     id="polygon92"
     points="163.802,43.241 167.014,46.131 168.244,38.505 167.227,39.587 " /><path
     style="fill:#7d7f68"
     id="path94"
     d="m 42.951968,17.585424 0.019,0.0078 -0.019,-0.0078 z"
     inkscape:connector-curvature="0" /><path
     style="fill:#c7a008"
     id="path96"
     d="m 49.881893,18.70869 c 0.100127,0.09808 0.0074,0.02762 0.119867,0.101985 l 0.765652,-0.523035 c -0.113666,-0.07791 -0.226226,-0.161477 -0.329646,-0.254965 -1.111014,-0.98091 -0.822302,-3.187071 -0.101614,-4.394617 -1.897129,1.483049 -1.798456,3.766055 -0.45428,5.07063"
     inkscape:connector-curvature="0" /><path
     style="fill:#c7a008"
     id="path98"
     d="m 59.124471,19.943858 c -1.264508,1.013488 -2.705902,1.674274 -4.610327,2.120111 -0.416269,0.09242 -0.824116,0.159707 -1.223215,0.193702 -3.022743,0.2879 -5.558694,-1.057045 -6.520959,-3.238417 -0.11988,-0.264173 -0.212331,-0.531534 -0.282132,-0.816954 -0.445139,-1.837169 -0.0651,-3.478865 0.87162,-4.765734 0.09281,-0.12465 0.190413,-0.243988 0.292739,-0.365451 -0.0479,0.03965 -0.09683,0.07366 -0.136686,0.11084 -0.359983,0.310562 -0.67866,0.65087 -0.949473,1.022696 -0.937781,1.286868 -1.317862,2.929627 -0.8687,4.763963 0.06869,0.28542 0.159705,0.556675 0.277013,0.814827 0.962639,2.186331 3.499321,3.530567 6.519507,3.244793 0.402379,-0.03754 0.808773,-0.101985 1.225402,-0.199369 1.906622,-0.445836 3.346921,-1.103789 4.611418,-2.117277 0.308816,-0.246113 0.606671,-0.514536 0.895747,-0.8081 l -0.02664,-0.02479 c -0.02888,0.02408 -0.05044,0.04497 -0.07528,0.06516"
     inkscape:connector-curvature="0" /><polygon
     transform="matrix(0.36546361,0,0,0.35411905,-1.3297973,0.15993546)"
     style="fill:#c7a008"
     id="polygon100"
     points="107.129,40.185 116.37,27.199 115.995,26.853 107.079,39.377 " /><polygon
     transform="matrix(0.36546361,0,0,0.35411905,-1.3297973,0.15993546)"
     style="fill:#c7a008"
     id="polygon102"
     points="168.244,38.505 167.014,46.131 165.418,44.702 164.837,48.294 161.631,45.41 165.053,41.767 166.089,40.674 166.055,40.831 167.227,39.587 " /><polygon
     transform="matrix(0.36546361,0,0,0.35411905,-1.3297973,0.15993546)"
     style="fill:#c7a008"
     id="polygon104"
     points="156.825,17.115 160.061,15.727 154.146,8.136 152.208,10.843 " /><path
     style="fill:#c7a008"
     id="path106"
     d="M 23.242513,12.880245 C 17.783947,6.4370489 7.9482238,9.9003332 4.4130983,12.914247 l 0.13814,0.23124 c 0.8127976,-0.451857 1.6698085,-0.860511 2.5714044,-1.227023 3.5113753,-1.453305 6.8590183,-1.879309 9.5429953,-1.424269 0.948739,0.105529 1.953764,0.378201 2.828317,0.9455 1.210781,0.656891 2.128462,1.59141 2.664958,2.789042 0.952032,2.121172 0.113297,4.94173 -2.128824,7.302996 2.812243,-2.500435 4.736405,-4.892863 3.212424,-8.651483 z"
     inkscape:connector-curvature="0" /><path
     style="fill:#c7a008"
     id="path108"
     d="m 34.378918,20.38686 c -0.02559,-0.11686 -0.05116,-0.235489 -0.09025,-0.349869 -0.30736,-1.071211 -0.967747,-1.926409 -1.833539,-2.495477 -1.401184,-0.922127 -3.357147,-1.111581 -5.306527,-0.314104 -1.025487,0.429546 -1.917219,1.090687 -2.6222,1.880372 0.541985,-0.451855 1.161439,-0.828284 1.830607,-1.108747 1.944995,-0.799955 3.900958,-0.610854 5.306899,0.310209 0.86578,0.569778 1.520688,1.424621 1.834621,2.494415 0.03473,0.114734 0.0618,0.235134 0.08877,0.35589 0.08336,0.407236 0.122065,0.819077 0.105967,1.240833 -0.04057,1.233042 -0.512381,2.474583 -1.29703,3.534815 -0.12645,0.167852 -0.259483,0.324374 -0.397261,0.479478 0.446602,-0.373596 0.845318,-0.786853 1.185933,-1.249687 0.78794,-1.053504 1.258659,-2.297523 1.300313,-3.538003 0.01752,-0.413965 -0.01796,-0.832532 -0.106349,-1.240125"
     inkscape:connector-curvature="0" /><path
     style="fill:#c7a008"
     id="path110"
     d="m 29.004053,18.814217 c -0.0074,0.01168 0.791955,-0.76773 0.782823,-0.76773 -1.000279,-0.03683 -1.42312,0.877153 -1.457841,0.94904 0.205394,-0.09632 0.431983,-0.159 0.675018,-0.18131"
     inkscape:connector-curvature="0" /><path
     style="fill:#c7a008"
     id="path112"
     d="m 30.888016,19.931463 c 0.04057,0.131378 0.0618,0.262048 0.0618,0.405113 0,0.201848 -0.0464,0.395551 -0.130845,0.574025 0.160077,-0.08109 1.31677,-0.624665 0.86835,-1.776259 0.02409,0.03541 -0.828139,0.793579 -0.79927,0.797121"
     inkscape:connector-curvature="0" /><path
     style="fill:#c7a008"
     id="path114"
     d="m 26.337989,20.572419 c 0,-0.473811 0.837285,-1.623282 1.098222,-2.006794 -1.32225,0.814475 -1.891642,1.913662 -1.891642,2.779482 0,1.483405 1.34527,2.676431 2.953675,2.676431 0.760896,0 2.154413,-0.389885 3.065875,-1.819109 -0.477662,0.304542 -1.691725,1.033319 -2.328729,1.033319 -1.608046,-3.54e-4 -2.897401,-1.171779 -2.897401,-2.663329"
     inkscape:connector-curvature="0" /><polygon
     transform="matrix(0.36546361,0,0,0.35411905,-1.3297973,0.15993546)"
     style="fill:#c7a008"
     id="polygon116"
     points="106.678,61.477 106.735,78.432 109.426,78.586 108.894,59.258 " /><polygon
     transform="matrix(0.36546361,0,0,0.35411905,-1.3297973,0.15993546)"
     style="fill:#c7a008"
     id="polygon118"
     points="91.232,29.197 91.287,30.703 104.04,26.906 104.985,43.146 107.113,40.164 106.659,23.867 " /><polygon
     transform="matrix(0.36546361,0,0,0.35411905,-1.3297973,0.15993546)"
     style="fill:#c7a008"
     id="polygon120"
     points="129.783,35.012 117.804,24.018 116.37,27.199 126.913,37.104 " /><path
     style="fill:#c7a008"
     id="path122"
     d="m 45.435668,19.813541 -5.139889,-1.646652 -0.748835,0.766313 5.120511,1.985546 c 0.580721,1.060232 1.460762,1.968546 2.568845,2.63252 1.072631,0.635645 2.298405,1.016322 3.59653,1.137076 l 0,2.450505 0.793781,0.383864 0.251073,-3.681423 -6.442016,-4.027749 z"
     inkscape:connector-curvature="0" /><path
     style="fill:#c7a008"
     id="path124"
     d="m 53.689295,19.120885 c 1.262312,-0.294981 1.990314,-0.933105 2.617084,-1.635322 -0.470357,0.37395 -2.82833,0.871841 -3.224487,1.001803 l -0.77661,0.801372 c 0.354864,0.03045 0.948378,-0.06232 1.384013,-0.167853"
     inkscape:connector-curvature="0" /><path
     style="fill:#c7a008"
     id="path126"
     d="m 51.393451,10.652128 c -2.327637,0.295335 -3.540617,2.188809 -3.741254,2.41934 0.859569,-0.703633 1.936957,-1.225958 3.150297,-1.504297 2.880219,-0.674951 5.419822,0.175997 6.989492,2.05637 l 0.971397,-0.796768 C 57.208707,10.97898 54.272936,9.9793019 51.393451,10.652128"
     inkscape:connector-curvature="0" /><path
     style="fill:#c7a008"
     id="path128"
     d="m 59.200113,19.878698 c 0.280677,-0.228759 0.779543,-0.459999 1.044865,-0.729484 l -3.11667,-2.698387 c -0.238651,0.276566 -0.455013,0.732318 -0.746287,0.972057 l 2.818092,2.455814 z"
     inkscape:connector-curvature="0" /><path
     style="fill:#c7a008"
     id="path130"
     d="M 75.194265,27.109811 C 71.924463,24.50562 72.119982,18.921516 73.725106,17.149858 l -1.440661,-8.7520513 -3.151031,0.3941344 -0.140338,0.7709173 2.384283,0 1.262683,7.9407636 c -1.60658,1.777325 -2.382818,4.15842 -1.84595,6.338378 0.415524,1.684544 1.483408,3.047903 3.020544,3.836525 0.154599,0.08216 0.314305,0.153688 0.477673,0.221325 l 0.02049,0.116505 0.937412,0.143418 c 0,-3.54e-4 0.09757,-0.974182 -0.05596,-1.049962 z"
     inkscape:connector-curvature="0" /><polygon
     transform="matrix(0.36546361,0,0,0.35411905,-1.3297973,0.15993546)"
     style="fill:#c7a008"
     id="polygon132"
     points="175.001,26.9 174.63,29.078 184.464,29.078 187.361,44.959 189.543,42.755 187.249,25.99 " /><polygon
     transform="matrix(0.36546361,0,0,0.35411905,-1.3297973,0.15993546)"
     style="fill:#c7a008"
     id="polygon134"
     points="191.836,57.73 188.661,65.932 189.447,68.066 193.988,55.575 " /><polygon
     transform="matrix(0.36546361,0,0,0.35411905,-1.3297973,0.15993546)"
     style="fill:#c7a008"
     id="polygon136"
     points="182.407,52.564 180.221,54.747 177.878,69.561 180.122,70.418 " /><path
     style="fill:#c7a008"
     id="path138"
     d="m 81.47476,17.098157 c 0.470358,0.325436 0.871632,0.737276 1.173503,1.227022 0.238277,0.37572 0.418455,0.796413 0.533577,1.258185 0.39141,1.576893 -0.07677,3.28233 -1.111377,4.650646 -0.104163,0.138814 -0.21891,0.273025 -0.328554,0.404758 0.420283,-0.350224 5.525077,-3.998713 0.537601,-8.790651 -5.48561,-1.752181 -7.562174,1.715706 -7.756228,1.935614 0.579616,-0.477352 1.248422,-0.872195 1.972761,-1.140617 1.856558,-0.681326 3.683152,-0.445128 4.978717,0.455043"
     inkscape:connector-curvature="0" /><path
     style="fill:#c7a008"
     id="path140"
     d="m 78.709291,17.443777 c 0.01539,0.03364 0.787581,-0.77977 0.803296,-0.77977 -0.976156,0.03895 -1.445048,0.495411 -1.396809,0.706114 -0.0585,0.0818 -0.105969,0.162894 -0.143259,0.252486 0.208314,-0.100572 0.593515,-0.177767 0.736772,-0.17883"
     inkscape:connector-curvature="0" /><path
     style="fill:#c7a008"
     id="path142"
     d="m 80.544656,18.632555 c 0.03505,0.126774 0.05193,0.259569 0.04896,0.402279 -0.0085,0.182726 -0.05776,0.350224 -0.129371,0.506391 0.148377,-0.06479 1.331382,-0.420695 0.87966,-1.682067 0.01168,0.03576 -0.812054,0.774105 -0.79926,0.773397"
     inkscape:connector-curvature="0" /><path
     style="fill:#c7a008"
     id="path144"
     d="m 77.953152,22.637641 c 1.104071,0.04568 2.325076,-0.611563 3.200732,-1.773074 -2.246875,0.446545 -4.60886,-3.178927 -4.372047,-3.533754 -0.848973,0.596336 -1.600356,1.746516 -1.634716,2.550366 -0.0585,1.490487 1.193974,2.694137 2.806031,2.756462"
     inkscape:connector-curvature="0" /><polygon
     transform="matrix(0.36546361,0,0,0.35411905,-1.3297973,0.15993546)"
     style="fill:#c7a008"
     id="polygon146"
     points="250.629,90.15 252.07,91.114 269.658,38.329 256.495,35.287 256.33,38.379 266.948,40.735 " /><polygon
     transform="matrix(0.36546361,0,0,0.35411905,-1.3297973,0.15993546)"
     style="fill:#c7a008"
     id="polygon148"
     points="229.742,29.629 229.857,32.577 243.852,35.388 249.24,60.941 251.421,58.743 246.288,32.927 " /><polygon
     transform="matrix(0.36546361,0,0,0.35411905,-1.3297973,0.15993546)"
     style="fill:#c7a008"
     id="polygon150"
     points="240.512,58.748 236.659,80.54 238.878,81.259 242.703,56.602 " /><polygon
     transform="matrix(0.36546361,0,0,0.35411905,-1.3297973,0.15993546)"
     style="fill:#c7a008"
     id="polygon152"
     points="58.896,88.536 52.35,64.803 49.954,66.479 56.021,89.216 " /><path
     style="fill:#c7a008"
     id="path154"
     d="m 19.573621,18.874418 c -0.551849,0.567299 -1.775053,1.669671 -2.471998,2.104529 l -0.423201,-1.316614 -0.926814,-2.886779 -0.589129,-1.954383 -0.574869,0.714967 0.586931,1.957215 0.926813,2.884654 0.421375,1.32051 c 0.954229,-0.595629 2.342257,-1.713582 3.050892,-2.824099"
     inkscape:connector-curvature="0" /><path
     style="fill:#7d7f68"
     id="path156"
     d="m 53.471107,13.905065 c -0.755047,-0.281524 -1.824396,-0.19689 -2.401824,0.415381 -0.134127,0.142003 -0.395064,0.504266 -0.477662,0.666099 0.558793,-0.430609 1.553956,-0.523741 2.206305,-0.29569 l 0.673181,-0.78579 z"
     inkscape:connector-curvature="0" /><path
     style="fill:#7d7f68"
     id="path158"
     d="m 18.883261,16.512799 c -0.08473,-0.432025 -0.521515,-0.775167 -0.735679,-0.870425 -0.383002,-0.179185 -1.045587,-0.20716 -1.52946,-0.121817 0.08696,0.291085 0.18675,0.632455 0.229147,0.772333 0.196253,0.02655 0.518593,0.08321 0.687802,0.157937 0.212329,0.09915 0.58364,0.332872 0.66989,0.76773 0.115492,0.580401 0.08517,1.122912 -0.164453,1.563436 0.684513,-0.65087 1.016719,-1.358755 0.842753,-2.269194"
     inkscape:connector-curvature="0" /><g
     transform="matrix(0.36546361,0,0,0.35411905,-1.3297973,0.15993546)"
     id="g160"><g
       id="g162"><path
         style="fill:#3c5aa6"
         id="path164"
         d="M 58.588,46.145 C 57.689,41.321 51.381,38.662 45.127,42.073 l 1.612,5.521 2.536,8.159 1.157,3.716 c 4.692,-3.017 9.408,-6.642 8.156,-13.324 z m -6.212,7.418 c -0.683,-2.229 -2.181,-7.042 -2.181,-7.042 0.007,0.022 -0.295,-1.03 -0.653,-2.234 1.326,-0.237 2.6,-0.141 3.648,0.363 0.586,0.279 1.616,0.93 1.841,2.164 0.518,2.774 -0.417,4.754 -2.655,6.749 z"
         inkscape:connector-curvature="0" /></g></g><g
     transform="matrix(0.36546361,0,0,0.35411905,-1.3297973,0.15993546)"
     id="g166"><g
       id="g168"><path
         style="fill:#3567b0"
         id="path170"
         d="m 153.223,38.491 c -3.496,-3.207 -8.93,-2.958 -12.119,0.535 -3.208,3.487 -2.956,8.924 0.545,12.118 0.285,0.275 0.593,0.5 0.903,0.721 l 11.277,-12.771 c -0.199,-0.208 -0.399,-0.415 -0.606,-0.603 z m -10.648,8.983 c -1.103,-2.025 -0.88,-4.596 0.769,-6.398 1.586,-1.728 4.016,-2.22 6.088,-1.421 l -6.857,7.819 z"
         inkscape:connector-curvature="0" /></g></g><polygon
     transform="matrix(0.36546361,0,0,0.35411905,-1.3297973,0.15993546)"
     style="fill:#1e2d5f"
     id="polygon172"
     points="168.291,37.089 162.046,43.106 167.979,48.434 " /><path
     style="fill:#3466af"
     id="path174"
     d="m 81.337713,17.859158 c 0.03473,0.134212 0.05266,0.267007 0.0482,0.4083 -0.03801,0.844928 -0.857744,1.497216 -1.834992,1.45295 -0.976517,-0.03257 -1.743625,-0.750732 -1.705262,-1.593535 0.03292,-0.79004 0.759442,-1.415414 1.656652,-1.455429 -0.170302,-0.03718 -0.348291,-0.05665 -0.533947,-0.06304 -1.634716,-0.06834 -2.970854,1.053504 -3.02713,2.45015 -0.06284,1.493674 1.17277,2.711489 2.781546,2.779126 1.636913,0.06339 2.972308,-1.062358 3.037364,-2.548949 0.01901,-0.515243 -0.138139,-1.009239 -0.422479,-1.429579"
     inkscape:connector-curvature="0" /><linearGradient
     gradientTransform="matrix(0.36546361,0,0,-0.35411905,-207.45129,-327.40018)"
     y2="-982.76947"
     x2="655.63483"
     y1="-982.76947"
     x1="639.70612"
     gradientUnits="userSpaceOnUse"
     id="SVGID_8_"><stop
       id="stop177"
       style="stop-color:#3C5AA6"
       offset="0" /><stop
       id="stop179"
       style="stop-color:#2B73B9"
       offset="0.9331" /><stop
       id="stop181"
       style="stop-color:#2A75BB"
       offset="1" /></linearGradient><path
     style="fill:url(#SVGID_8_)"
     id="path183"
     d="m 31.746122,19.564951 c 0,0.848469 -0.796341,1.528377 -1.771764,1.528377 -0.977982,0 -1.7714,-0.680264 -1.7714,-1.528377 0,-0.790748 0.698027,-1.442682 1.592689,-1.518464 -0.171406,-0.0301 -0.349757,-0.04744 -0.533947,-0.04744 -1.634356,0 -2.923711,1.174612 -2.923711,2.573383 0,1.492611 1.289728,2.663328 2.897401,2.663328 1.635808,0 2.924069,-1.171425 2.924069,-2.663328 0,-0.51666 -0.176153,-1.003573 -0.479115,-1.404437 0.04098,0.120755 0.06572,0.254612 0.06572,0.396967"
     inkscape:connector-curvature="0" /><g
     transform="matrix(0.36546361,0,0,0.35411905,-1.3297973,0.15993546)"
     id="g185"><g
       id="g187"><linearGradient
         gradientTransform="matrix(1,0,0,-1,-564,-925)"
         y2="-974.57031"
         x2="838.9209"
         y1="-974.57031"
         x1="573.17767"
         gradientUnits="userSpaceOnUse"
         id="SVGID_9_"><stop
           id="stop190"
           style="stop-color:#3C5AA6"
           offset="0" /><stop
           id="stop192"
           style="stop-color:#2B73B9"
           offset="0.9331" /><stop
           id="stop194"
           style="stop-color:#2A75BB"
           offset="1" /></linearGradient><path
         style="fill:url(#SVGID_9_)"
         id="path196"
         d="m 254.02,30.598 -1.986,8.185 -1.834,-9.063 -24.559,-5.406 0.172,13.656 3.701,0.83 -0.267,2.463 c -0.048,-0.019 -0.078,-0.048 -0.104,-0.069 -4.588,-2.421 -10.276,-2.669 -15.629,-0.647 -1.796,0.687 -3.463,1.59 -4.975,2.688 l -3.705,-23.388 -16.333,0 -0.45,2.689 -17.191,0 -1.963,12.023 -1.426,-1.761 c -4.166,-5.118 -10.205,-7.937 -16.895,-8.077 l 14.596,-7.845 -10.178,-15.189 -18.389,21.189 3.174,3.87 c -2.875,1.175 -5.387,2.795 -7.468,4.752 l -15.767,-13.989 -5.513,10.566 0.212,-10.154 -24.651,7.875 0.632,13.244 4.194,-1.088 0.62,6.712 c -4.792,-2.152 -10.552,-2.099 -15.894,0.158 -1.583,0.69 -3.059,1.538 -4.419,2.524 0.924,-4.089 0.705,-8.12 -0.853,-11.715 -1.84,-4.248 -5.078,-7.759 -9.048,-9.974 -2.783,-1.854 -6.1,-3.009 -9.571,-3.402 -8.53,-1.491 -18.773,0.04 -28.854,4.335 -3.706,1.581 -7.163,3.375 -10.281,5.361 l -3.941,2.499 2.38,4.019 7.386,12.483 c 0,0 2.26,3.825 2.275,3.823 l 3.994,-1.963 0.557,-0.256 18.353,40.961 1.77,3.937 4.098,-1.32 9.93,-3.181 4.352,-1.383 -1.148,-4.43 -5.274,-20.245 c 1.517,-1.123 2.933,-2.314 4.24,-3.561 -0.295,2.419 -0.14,4.868 0.526,7.212 1.379,4.908 4.593,8.785 9.053,10.933 4.817,2.315 10.694,2.321 16.131,0.015 2.727,-1.157 5.152,-2.845 7.207,-4.854 l 0.749,8.063 17.39,-2.561 -0.027,-15.593 36.337,17.959 0,-17.389 c 1.458,-0.122 2.946,-0.352 4.442,-0.719 4.002,-0.967 7.427,-2.293 10.47,-4.116 l -1.526,9.339 19.592,3.083 1.075,-7.05 5.117,9.453 3.128,-6.027 1.143,9.896 22.213,3.916 -1.178,-7.473 c 3.041,0.344 6.246,-0.064 9.342,-1.232 0.733,-0.271 1.457,-0.601 2.15,-0.955 l -0.885,7.951 14.784,2.086 0.11,6.063 15.416,4.839 20.071,-60.495 -20.9,-5.08 z m -86.793,8.99 1.019,-1.083 -1.231,7.627 -3.211,-2.892 3.423,-3.652 z m -13.018,-31.156 5.382,7.311 -15.387,7.628 -1.063,-1.615 11.068,-13.324 z M 52.32,64.809 58.459,88.364 48.523,91.538 28.134,46.004 c -1.109,0.583 -3.157,1.561 -5.038,2.483 L 15.713,36.015 c 2.936,-1.875 6.156,-3.537 9.581,-4.984 9.612,-4.088 18.783,-5.308 26.118,-4.012 2.595,0.292 5.342,1.057 7.748,2.654 3.301,1.859 5.826,4.505 7.282,7.875 3.551,8.206 -2.381,20.015 -14.122,27.261 z m 45.681,-4.192 c -0.114,3.507 -1.402,7.021 -3.558,9.994 -2.051,2.875 -4.916,5.248 -8.287,6.699 -8.62,3.652 -17.24,0 -19.543,-8.184 -2.231,-7.913 2.96,-17.333 11.312,-20.931 5.334,-2.252 10.686,-1.718 14.52,0.887 2.368,1.606 4.174,4.021 5.017,7.047 0.106,0.321 0.176,0.658 0.247,0.988 0.241,1.153 0.338,2.335 0.292,3.5 z m 46.901,16.653 -36.055,-18.033 0.064,18.894 -9.327,1.272 -0.65,-7.788 c 2.88,-4.938 3.933,-10.757 2.43,-16.093 -0.825,-2.933 -2.349,-5.479 -4.42,-7.519 l -1.338,-15.879 -4.188,1.086 -0.185,-4.015 14.978,-4.46 0.918,15.448 11.034,-15.503 10.787,10.273 -15.085,15.892 14.172,5.606 c 1.583,3 3.998,5.549 7.028,7.427 2.929,1.808 6.285,2.877 9.835,3.228 l 0.002,10.164 0,0 z m -18.721,-26.126 -5.015,-1.935 4.675,-4.544 c -0.2,2.086 -0.097,4.267 0.34,6.479 z m 39.237,4.724 c -3.46,2.862 -7.404,4.728 -12.615,5.987 -1.139,0.261 -2.255,0.451 -3.347,0.547 -8.271,0.813 -15.21,-2.985 -17.843,-9.145 -0.328,-0.746 -0.581,-1.501 -0.772,-2.307 -1.218,-5.188 -0.178,-9.825 2.385,-13.458 0.738,-1.06 1.614,-2.026 2.598,-2.896 2.414,-2.154 5.496,-3.72 9,-4.562 7.879,-1.9 14.818,0.505 19.072,5.725 L 148.882,51.74 c 1.018,0.192 2.637,-0.075 3.832,-0.361 3.576,-0.872 5.577,-2.77 7.34,-4.838 l 6,5.398 1.818,1.642 c -0.788,0.815 -1.616,1.584 -2.454,2.287 z m 31.853,21.327 -3.266,-21.635 -4.619,11.935 -6.916,-14.917 -0.078,0 -2.733,17.275 -11.527,-2.006 1.621,-9.64 c 0.435,-0.409 0.863,-0.819 1.284,-1.252 l 3.736,-3.847 -3.631,-3.252 3.858,-22.957 11.63,0 2.911,15.892 3.262,-18.417 8.319,0 3.452,22.438 c -4.393,5.004 -6.527,11.731 -5.059,17.885 1.135,4.771 4.067,8.613 8.27,10.857 0.423,0.213 0.861,0.424 1.313,0.606 l 0.44,2.909 -12.267,-1.874 z m 28.725,-7.049 c -1.271,0.905 -2.67,1.674 -4.174,2.229 -2.969,1.131 -5.922,1.366 -8.553,0.843 -1.834,-0.362 -3.506,-1.077 -4.961,-2.112 -2.314,-1.674 -4.018,-4.146 -4.769,-7.25 -0.876,-3.729 -0.069,-7.711 1.937,-11.199 1,-1.705 2.283,-3.307 3.801,-4.688 1.693,-1.518 3.656,-2.761 5.84,-3.601 5.083,-1.896 10.096,-1.242 13.625,1.295 1.298,0.92 2.375,2.091 3.224,3.452 0.644,1.075 1.144,2.26 1.447,3.554 1.081,4.478 -0.206,9.274 -3.031,13.138 -1.21,1.647 -2.685,3.127 -4.386,4.339 z m 25.955,20.392 -8.524,-2.539 -0.743,-31.426 -4.287,24.243 -9.299,-1.484 0.666,-6.98 c 6.072,-5.131 9.291,-13.225 7.527,-20.56 -0.775,-3.248 -2.445,-6.076 -4.799,-8.226 l 0.785,-8.232 -3.516,-0.936 0.235,-4.395 16.021,3.22 5.387,25.546 5.525,-22.903 12.188,2.693 -17.166,51.979 z"
         inkscape:connector-curvature="0" /></g></g><g
     transform="matrix(0.93943959,0,0,0.93943959,14.793383,-32.383209)"
     style="font-style:normal;font-variant:normal;font-weight:normal;font-stretch:normal;font-size:4px;line-height:125%;font-family:Arial;-inkscape-font-specification:Arial;letter-spacing:0px;word-spacing:0px;fill:#000000;fill-opacity:1;stroke:none"
     id="flowRoot3115" /><g
     transform="matrix(0.0063144,0,0,-0.00691134,-59.745455,117.70706)"
     id="g12"><path
       inkscape:connector-curvature="0"
       id="path14"
       style="fill:#15192a;fill-opacity:1;fill-rule:nonzero;stroke:none"
       d="m 19728.31,8450.0084 c -914.153,0 -1723.575,554.7131 -1997.011,1358.3293 -273.424,-803.6162 -1082.833,-1358.3293 -1996.973,-1358.3293 -1154.812,0 -2094.317,872.9095 -2094.317,1945.8786 0,1072.96 939.505,1945.879 2094.317,1945.879 695.1,0 1343.401,-319.704 1734.204,-855.224 l 12.024,-16.479 -535.741,-443.256 771,0 5.578,-15.548 c 3.401,-9.501 6.679,-18.844 9.835,-28.05 273.387,803.694 1082.87,1358.557 1997.084,1358.557 1154.794,0 2094.292,-872.919 2094.292,-1945.879 0,-1072.9691 -939.498,-1945.8786 -2094.292,-1945.8786" /><path
       inkscape:connector-curvature="0"
       id="path16"
       style="fill:#4b4f50;fill-opacity:1;fill-rule:nonzero;stroke:none"
       d="m 19728.31,12364.497 c -238.93,0 -473.443,-36.687 -697.021,-109.038 -216.129,-69.931 -417.836,-171.718 -599.507,-302.521 -179.787,-129.438 -335.294,-283.892 -462.214,-459.076 -100.486,-138.713 -181.01,-287.678 -240.299,-444.325 l -720.189,0 471.743,390.306 32.011,26.492 -24.06,32.971 c -395.353,541.759 -1051.226,865.191 -1754.448,865.191 -286.011,0 -563.496,-52.064 -824.736,-154.715 -252.31,-99.162 -478.896,-241.103 -673.467,-421.878 -194.571,-180.776 -347.334,-391.306 -454.054,-625.726 -110.5,-242.728 -166.524,-500.548 -166.524,-766.291 0,-265.731 56.024,-523.5516 166.524,-766.2788 106.72,-234.4323 259.483,-444.96 454.054,-625.7346 194.571,-180.778 421.157,-322.7198 673.467,-421.8816 261.24,-102.6603 538.725,-154.7141 824.736,-154.7141 238.929,0 473.43,36.6751 697.021,109.0266 216.116,69.9409 417.811,171.7304 599.482,302.5195 179.787,129.44 335.294,283.9052 462.202,459.0904 99.349,137.1422 179.175,284.2779 238.268,438.9586 59.081,-154.6807 138.92,-301.8164 238.269,-438.9586 126.92,-175.1852 282.427,-329.6504 462.214,-459.0904 181.671,-130.7891 383.378,-232.5786 599.507,-302.5195 223.578,-72.3515 458.091,-109.0266 697.021,-109.0266 286.01,0 563.483,52.0538 824.736,154.7141 252.299,99.1618 478.886,241.1036 673.449,421.8816 194.576,180.7746 347.331,391.3023 454.055,625.7346 110.493,242.7272 166.516,500.5478 166.516,766.2788 0,265.743 -56.023,523.563 -166.516,766.291 -106.724,234.42 -259.479,444.95 -454.055,625.726 -194.563,180.775 -421.138,322.716 -673.449,421.866 -261.253,102.663 -538.726,154.727 -824.736,154.727 z m 0,-45.461 c 1143.137,0 2069.828,-861.02 2069.828,-1923.149 0,-1062.1278 -926.691,-1923.1481 -2069.828,-1923.1481 -954.262,0 -1757.555,600.0275 -1997.011,1416.1103 -239.455,-816.0828 -1042.736,-1416.1103 -1996.973,-1416.1103 -1143.147,0 -2069.853,861.0203 -2069.853,1923.1481 0,1062.129 926.706,1923.149 2069.853,1923.149 713.143,0 1341.774,-335.252 1713.947,-845.245 l -567.727,-469.715 817.629,0 c 11.963,-33.346 23.106,-67.032 33.124,-101.173 239.456,816.116 1042.749,1416.133 1997.011,1416.133" /><path
       inkscape:connector-curvature="0"
       id="path18"
       style="fill:#15192a;fill-opacity:1;fill-rule:nonzero;stroke:none"
       d="m 20835.411,10206.69 c 50.335,-7.66 100.658,-15.639 150.907,-23.81 -50.249,8.171 -100.572,16.15 -150.907,23.81" /><path
       inkscape:connector-curvature="0"
       id="path20"
       style="fill:#15192a;fill-opacity:1;fill-rule:nonzero;stroke:none"
       d="m 20582.28,10242.831 c -0.02,-0.05 -0.05,-0.102 -0.05,-0.17 20.599,-2.762 41.235,-5.433 61.834,-8.285 -20.599,2.852 -41.186,5.682 -61.785,8.455" /><path
       inkscape:connector-curvature="0"
       id="path22"
       style="fill:#15192a;fill-opacity:1;fill-rule:nonzero;stroke:none"
       d="m 21024.911,10176.549 c 50.188,-8.308 100.364,-16.786 150.43,-25.617 -50.066,8.831 -100.242,17.309 -150.43,25.617" /><path
       inkscape:connector-curvature="0"
       id="path24"
       style="fill:#15192a;fill-opacity:1;fill-rule:nonzero;stroke:none"
       d="m 20682.486,10228.988 c 50.359,-7.114 100.694,-14.377 150.968,-22.003 -50.274,7.626 -100.609,14.889 -150.968,22.003" /><path
       inkscape:connector-curvature="0"
       id="path26"
       style="fill:#15192a;fill-opacity:1;fill-rule:nonzero;stroke:none"
       d="m 18650.859,10395.774 c 70.53,-2.148 141.549,-4.728 212.862,-7.604 0,0.03 0,0.07 0,0.09 -71.362,2.864 -142.308,5.365 -212.862,7.513" /><path
       inkscape:connector-curvature="0"
       id="path28"
       style="fill:#15192a;fill-opacity:1;fill-rule:nonzero;stroke:none"
       d="m 20632.652,10166.48 c 12.416,-1.739 24.856,-3.455 37.259,-5.228 -12.403,1.773 -24.843,3.489 -37.259,5.228" /><path
       inkscape:connector-curvature="0"
       id="path30"
       style="fill:#15192a;fill-opacity:1;fill-rule:nonzero;stroke:none"
       d="m 21177.004,10150.636 c 50.115,-8.876 100.108,-18.127 150.027,-27.526 -49.919,9.399 -99.912,18.65 -150.027,27.526" /><path
       inkscape:connector-curvature="0"
       id="path32"
       style="fill:#15192a;fill-opacity:1;fill-rule:nonzero;stroke:none"
       d="m 18325.828,10334.572 c -11.547,0.182 -23.058,0.329 -34.568,0.534 11.51,-0.182 23.021,-0.352 34.568,-0.534" /><path
       inkscape:connector-curvature="0"
       id="path34"
       style="fill:#15192a;fill-opacity:1;fill-rule:nonzero;stroke:none"
       d="m 18648.4,10327.082 c -11.89,0.341 -23.755,0.693 -35.62,1.046 11.865,-0.353 23.73,-0.705 35.62,-1.046" /><path
       inkscape:connector-curvature="0"
       id="path36"
       style="fill:#15192a;fill-opacity:1;fill-rule:nonzero;stroke:none"
       d="m 18794.28,10322.229 c -0.869,0.02 -1.737,0.06 -2.581,0.08 0.844,-0.05 1.712,-0.06 2.581,-0.08" /><path
       inkscape:connector-curvature="0"
       id="path38"
       style="fill:#15192a;fill-opacity:1;fill-rule:nonzero;stroke:none"
       d="m 20821.834,10139.123 c 0.05,-0.02 0.122,-0.02 0.183,-0.05 -0.06,0.02 -0.134,0.02 -0.183,0.05" /><path
       inkscape:connector-curvature="0"
       id="path40"
       style="fill:#15192a;fill-opacity:1;fill-rule:nonzero;stroke:none"
       d="m 18294.44,10403.797 c -95.74,1.398 -190.441,2.217 -284.041,2.467 93.6,-0.25 188.325,-1.069 284.041,-2.467" /><path
       inkscape:connector-curvature="0"
       id="path42"
       style="fill:#15192a;fill-opacity:1;fill-rule:nonzero;stroke:none"
       d="m 18617.171,10396.762 c -97.636,2.819 -194.441,4.978 -290.291,6.524 95.85,-1.546 192.655,-3.705 290.291,-6.524" /><path
       inkscape:connector-curvature="0"
       id="path44"
       style="fill:#15192a;fill-opacity:1;fill-rule:nonzero;stroke:none"
       d="m 18150.371,10336.777 c -0.82,0 -1.652,0 -2.484,0.02 0.832,-0.02 1.664,-0.02 2.484,-0.02" /><path
       inkscape:connector-curvature="0"
       id="path46"
       style="fill:#15192a;fill-opacity:1;fill-rule:nonzero;stroke:none"
       d="m 17976.956,10337.618 c 11.193,-0.02 22.422,-0.07 33.663,-0.09 -11.241,0.02 -22.47,0.07 -33.663,0.09" /><path
       inkscape:connector-curvature="0"
       id="path48"
       style="fill:#15192a;fill-opacity:1;fill-rule:nonzero;stroke:none"
       d="m 18468.98,10331.867 c -0.869,0.02 -1.713,0.03 -2.557,0.06 0.844,-0.02 1.688,-0.04 2.557,-0.06" /><path
       inkscape:connector-curvature="0"
       id="path50"
       style="fill:#15192a;fill-opacity:1;fill-rule:nonzero;stroke:none"
       d="m 21312.316,10055.748 c 12.452,-2.33 24.892,-4.705 37.369,-7.081 -12.477,2.376 -24.893,4.751 -37.369,7.081" /><path
       inkscape:connector-curvature="0"
       id="path54"
       style="fill:#15192a;fill-opacity:1;fill-rule:nonzero;stroke:none"
       d="m 17945.63,10406.411 c 0,-0.03 0,-0.09 0,-0.113 11.131,0 22.128,0.05 33.271,0.05 -11.058,0 -22.213,0.07 -33.271,0.07" /><path
       inkscape:connector-curvature="0"
       id="path56"
       style="fill:#15192a;fill-opacity:1;fill-rule:nonzero;stroke:none"
       d="m 21478.672,10093.458 c 0,0.02 0.03,0.07 0.03,0.09 -37.846,7.614 -75.741,15.059 -113.673,22.321 37.932,-7.262 75.802,-14.797 113.648,-22.412" /><path
       inkscape:connector-curvature="0"
       id="path58"
       style="fill:#15192a;fill-opacity:1;fill-rule:nonzero;stroke:none"
       d="m 19724.811,12048.418 c 984.622,0 1782.778,-741.628 1782.778,-1656.475 0,-78.261 -5.982,-155.192 -17.284,-230.566 -3.413,-22.765 -7.242,-45.382 -11.608,-67.828 0,-0.02 -0.03,-0.07 -0.03,-0.09 -4.452,-22.549 -9.382,-44.995 -14.788,-67.237 0,-0.02 0,-0.06 0,-0.102 -5.456,-22.424 -11.425,-44.6658 -17.823,-66.7598 -66.848,-230.1237 -185.609,-440.4623 -344.076,-619.3627 255.528,286.6794 409.127,654.595 409.127,1055.8905 0,914.846 -798.193,1656.475 -1782.802,1656.475 -554.811,0 -1050.406,-235.477 -1377.37,-604.723 327.013,366.973 821.03,600.779 1373.871,600.779" /><path
       inkscape:connector-curvature="0"
       id="path62"
       style="fill:#15192a;fill-opacity:1;fill-rule:nonzero;stroke:none"
       d="m 18863.721,10388.261 c 0,-0.02 0,-0.06 0,-0.09 0.294,-23.185 1.529,-46.165 3.902,-68.85 0,-0.05 0,-0.07 0,-0.09 2.435,-23.367 6.092,-46.371 10.63,-69.101 74.604,-374.6444 427.854,-658.4457 852.674,-658.4457 369.727,0 685.217,214.9847 810.095,517.6757 8.966,21.639 16.868,43.722 23.791,66.237 0.02,0.03 0.02,0.09 0.05,0.136 6.728,21.969 12.623,44.245 17.369,66.93 0,0.07 0.03,0.125 0.05,0.17 4.661,22.276 8.392,44.859 11.034,67.749 3.302,28.64 5.125,57.667 5.125,87.126 0,445.143 -388.369,806.012 -867.512,806.012 -457.614,0 -832.234,-329.354 -864.869,-746.822 -1.542,-19.56 -2.594,-39.256 -2.594,-59.19 0,-3.171 0.221,-6.274 0.257,-9.445" /><path
       inkscape:connector-curvature="0"
       id="path64"
       style="fill:#15192a;fill-opacity:1;fill-rule:nonzero;stroke:none"
       d="m 20973.475,10115.188 c 12.415,-1.989 24.806,-4.034 37.222,-6.08 -12.44,2.046 -24.807,4.091 -37.222,6.08" /><path
       inkscape:connector-curvature="0"
       id="path66"
       style="fill:#15192a;fill-opacity:1;fill-rule:nonzero;stroke:none"
       d="m 16962.293,10387.216 c -40.758,-1.557 -80.928,-3.228 -120.829,-4.967 39.901,1.739 80.083,3.41 120.829,4.967" /><path
       inkscape:connector-curvature="0"
       id="path68"
       style="fill:#15192a;fill-opacity:1;fill-rule:nonzero;stroke:none"
       d="m 16693.285,10375.464 c -38.691,-1.887 -76.757,-3.864 -114.529,-5.865 37.772,2.001 75.838,3.978 114.529,5.865" /><path
       inkscape:connector-curvature="0"
       id="path70"
       style="fill:#15192a;fill-opacity:1;fill-rule:nonzero;stroke:none"
       d="m 16811.789,10380.965 c -39.62,-1.762 -78.983,-3.569 -117.722,-5.456 38.739,1.887 78.102,3.694 117.722,5.456" /><path
       inkscape:connector-curvature="0"
       id="path74"
       style="fill:#15192a;fill-opacity:1;fill-rule:nonzero;stroke:none"
       d="m 17086.693,10391.693 c -41.614,-1.409 -82.995,-2.864 -123.813,-4.443 40.818,1.579 82.199,3.034 123.813,4.443" /><path
       inkscape:connector-curvature="0"
       id="path76"
       style="fill:#15192a;fill-opacity:1;fill-rule:nonzero;stroke:none"
       d="m 14902.116,10298.612 c 2.654,-23.015 6.507,-45.7 11.278,-68.101 4.844,-22.753 10.85,-45.154 17.773,-67.191 7.107,-22.56 15.253,-44.734 24.415,-66.441 126.358,-298.645 444.318,-511.1635 815.893,-511.1635 273.619,0 518.151,115.2433 678.55,295.2234 -160.448,-177.7184 -403.426,-291.2796 -675.028,-291.2796 -482.091,0 -874.276,357.5618 -874.276,797.0557 0,191.073 74.163,366.575 197.585,504.038 -125.525,-138.031 -201.108,-315.113 -201.108,-507.993 0,-28.413 1.713,-56.485 4.918,-84.148" /><path
       inkscape:connector-curvature="0"
       id="path78"
       style="fill:#15192a;fill-opacity:1;fill-rule:nonzero;stroke:none"
       d="m 15771.475,12055.999 c 520.878,0 1017.403,-206.268 1362.446,-565.956 l 4.073,3.375 c -345.055,360.04 -841.849,566.524 -1362.997,566.524 -564.89,0 -1070.376,-238.556 -1403.953,-611.962 333.606,371.144 837.534,608.019 1400.431,608.019" /><path
       inkscape:connector-curvature="0"
       id="path80-8"
       style="fill:#15192a;fill-opacity:1;fill-rule:nonzero;stroke:none"
       d="m 17542.155,10798.013 -0.04,-37.347 c 23.669,-94.388 38.372,-190.97 43.999,-288.188 1.321,-22.867 2.042,-45.768 2.336,-68.681 0,-0.02 0,-0.05 0,-0.06 0.11,-6.99 0.33,-13.98 0.33,-20.981 0,-15.956 -0.306,-31.845 -0.783,-47.722 0,0 0,-0.05 0,-0.07 -0.697,-22.991 -1.981,-45.904 -3.694,-68.702 -26.8,-357.1991 -175.848,-683.8928 -408.882,-944.7834 260.275,289.5651 416.87,660.8789 416.87,1065.2314 0,127.382 -15.706,254.514 -46.653,377.895 l 0.02,37.358 -27.339,0.523 -1781.847,0 0,-3.933 1778.337,0 27.339,-0.545" /><path
       inkscape:connector-curvature="0"
       id="path82-4"
       style="fill:#15192a;fill-opacity:1;fill-rule:nonzero;stroke:none"
       d="m 16550.181,10368.065 c -37.564,-2.012 -74.823,-4.103 -111.422,-6.239 36.599,2.136 73.87,4.227 111.422,6.239" /><path
       inkscape:connector-curvature="0"
       id="path84"
       style="fill:#15192a;fill-opacity:1;fill-rule:nonzero;stroke:none"
       d="m 16434.111,10430.426 c 386.143,22.549 772.163,36.585 1152.006,42.052 -5.627,97.218 -20.33,193.8 -43.999,288.188 l 0.04,37.347 -27.339,0.545 -1778.337,0 0,-417.65 c 218.306,18.218 451.792,35.164 697.632,49.518" /><path
       inkscape:connector-curvature="0"
       id="path86-7"
       style="fill:#15192a;fill-opacity:1;fill-rule:nonzero;stroke:none"
       d="m 16697.737,10306.875 c -0.147,-0.02 -0.294,-0.02 -0.44,-0.03 0.146,0.01 0.293,0.01 0.44,0.03" /><path
       inkscape:connector-curvature="0"
       id="path88-8"
       style="fill:#15192a;fill-opacity:1;fill-rule:nonzero;stroke:none"
       d="m 16582.401,10300.965 c -9.211,-0.489 -18.373,-1.001 -27.535,-1.466 9.15,0.465 18.324,0.977 27.535,1.466" /><path
       inkscape:connector-curvature="0"
       id="path90"
       style="fill:#15192a;fill-opacity:1;fill-rule:nonzero;stroke:none"
       d="m 16844.326,10313.557 c -9.614,-0.397 -19.229,-0.829 -28.794,-1.25 9.565,0.421 19.18,0.853 28.794,1.25" /><path
       inkscape:connector-curvature="0"
       id="path92"
       style="fill:#15192a;fill-opacity:1;fill-rule:nonzero;stroke:none"
       d="m 17406.122,10331.776 c -10.496,-0.227 -20.978,-0.443 -31.425,-0.716 10.447,0.273 20.929,0.489 31.425,0.716" /><path
       inkscape:connector-curvature="0"
       id="path96-5"
       style="fill:#15192a;fill-opacity:1;fill-rule:nonzero;stroke:none"
       d="m 17245.906,10327.855 c -0.135,0 -0.257,0 -0.38,0 0.123,0 0.245,0 0.38,0" /><path
       inkscape:connector-curvature="0"
       id="path98-7"
       style="fill:#15192a;fill-opacity:1;fill-rule:nonzero;stroke:none"
       d="m 17119.279,10324.002 c -10.055,-0.33 -20.073,-0.659 -30.079,-1.012 9.994,0.353 20.024,0.682 30.079,1.012" /><path
       inkscape:connector-curvature="0"
       id="path100"
       style="fill:#15192a;fill-opacity:1;fill-rule:nonzero;stroke:none"
       d="m 17588.453,10403.741 c 0,0.01 0,0.03 0,0.06 -62.078,-0.897 -123.52,-1.977 -184.276,-3.307 60.695,1.33 122.259,2.364 184.276,3.251" /><path
       inkscape:connector-curvature="0"
       id="path102"
       style="fill:#15192a;fill-opacity:1;fill-rule:nonzero;stroke:none"
       d="m 17373.914,10399.831 c -87.116,-2 -172.778,-4.376 -256.873,-7.126 84.095,2.75 169.757,5.126 256.873,7.126" /><path
       inkscape:connector-curvature="0"
       id="path104"
       style="fill:#15192a;fill-opacity:1;fill-rule:nonzero;stroke:none"
       d="m 17537.665,10334.322 c -0.452,0 -0.88,-0.01 -1.308,-0.01 0.428,0 0.856,0.01 1.308,0.01" /><path
       inkscape:connector-curvature="0"
       id="path106-6"
       style="fill:#ffffff;fill-opacity:1;fill-rule:nonzero;stroke:none"
       d="m 17946.706,10337.686 c -0.734,19.321 -1.223,38.71 -1.223,58.201 0,3.478 0.122,6.933 0.147,10.411 -1.162,0 -2.3,0 -3.462,0 -0.04,-4.796 -0.195,-9.547 -0.195,-14.355 0,-18.173 0.428,-36.243 1.076,-54.257 0.232,0 0.501,0 0.783,0 0.954,0 1.908,0 2.874,0" /><path
       inkscape:connector-curvature="0"
       id="path108-2"
       style="fill:#ffffff;fill-opacity:1;fill-rule:nonzero;stroke:none"
       d="m 21327.031,10123.11 c -49.919,9.399 -99.912,18.65 -150.027,27.526 -0.538,0.07 -1.088,0.182 -1.663,0.296 -50.066,8.831 -100.242,17.309 -150.43,25.617 -12.868,2.125 -25.737,4.239 -38.593,6.331 -50.249,8.171 -100.572,16.15 -150.907,23.81 -0.66,0.09 -1.296,0.182 -1.957,0.295 -50.274,7.626 -100.609,14.889 -150.968,22.003 -12.807,1.808 -25.614,3.603 -38.421,5.388 -20.599,2.852 -41.235,5.523 -61.834,8.285 -4.746,-22.685 -10.641,-44.961 -17.369,-66.93 22.605,-3.023 45.185,-6.126 67.79,-9.251 12.416,-1.739 24.856,-3.455 37.259,-5.228 50.702,-7.149 101.331,-14.446 151.923,-22.129 0.05,-0.02 0.122,-0.02 0.183,-0.05 50.543,-7.66 101.025,-15.673 151.458,-23.89 12.415,-1.989 24.782,-4.034 37.222,-6.08 100.829,-16.684 201.401,-34.448 301.619,-53.36 12.476,-2.33 24.892,-4.705 37.369,-7.081 38.127,-7.33 76.206,-14.797 114.199,-22.446 5.406,22.242 10.336,44.688 14.788,67.237 -37.846,7.615 -75.716,15.15 -113.648,22.412 -12.66,2.444 -25.308,4.842 -37.993,7.24" /><path
       inkscape:connector-curvature="0"
       id="path110-2"
       style="fill:#ffffff;fill-opacity:1;fill-rule:nonzero;stroke:none"
       d="m 18010.619,10337.527 c 45.528,-0.114 91.227,-0.33 137.268,-0.728 0.832,-0.02 1.664,-0.02 2.484,-0.02 46.665,-0.41 93.71,-0.978 140.889,-1.671 11.51,-0.205 23.021,-0.352 34.568,-0.534 46.653,-0.75 93.477,-1.614 140.595,-2.648 0.844,-0.02 1.688,-0.04 2.557,-0.06 47.68,-1.069 95.691,-2.341 143.8,-3.739 11.865,-0.353 23.73,-0.705 35.62,-1.046 47.595,-1.455 95.325,-2.989 143.299,-4.773 0.844,-0.02 1.712,-0.06 2.581,-0.08 24.391,-0.921 48.867,-1.909 73.343,-2.909 -2.373,22.685 -3.608,45.665 -3.902,68.85 -71.313,2.876 -142.332,5.456 -212.862,7.604 -11.242,0.341 -22.459,0.67 -33.688,0.988 -97.636,2.819 -194.441,4.978 -290.291,6.524 -10.826,0.17 -21.639,0.341 -32.44,0.511 -95.716,1.398 -190.441,2.217 -284.041,2.467 -10.52,0.03 -21.027,0.06 -31.498,0.08 -11.143,0 -22.14,-0.05 -33.271,-0.05 -0.03,-3.478 -0.147,-6.933 -0.147,-10.411 0,-19.491 0.489,-38.88 1.223,-58.201 10.055,0 20.159,-0.07 30.25,-0.07 11.193,-0.02 22.422,-0.07 33.663,-0.09" /><path
       inkscape:connector-curvature="0"
       id="path112-2"
       style="fill:#2a367e;fill-opacity:1;fill-rule:nonzero;stroke:none"
       d="m 17945.63,10406.411 c 0.159,23.004 0.783,45.916 1.945,68.703 -1.138,0 -2.239,0.01 -3.388,0.01 -0.184,-3.853 -0.282,-7.74 -0.453,-11.604 l 0,-57.111 -0.04,56.202 c -0.844,-18.651 -1.345,-37.392 -1.529,-56.202 0.49,0 0.979,0 1.48,0 0.661,0 1.321,0 1.982,0" /><path
       inkscape:connector-curvature="0"
       id="path114-7"
       style="fill:#2a367e;fill-opacity:1;fill-rule:nonzero;stroke:none"
       d="m 17946.706,10337.572 c -1.223,0 -2.446,-0.02 -3.657,-0.02 0.807,-22.98 2.006,-45.858 3.816,-68.612 1.297,0 2.532,-0.02 3.792,-0.02 -1.871,22.753 -3.082,45.654 -3.951,68.657" /><path
       inkscape:connector-curvature="0"
       id="path116"
       style="fill:#2a367e;fill-opacity:1;fill-rule:nonzero;stroke:none"
       d="m 20644.065,10234.376 c 12.831,-1.785 25.614,-3.58 38.421,-5.388 50.359,-7.114 100.694,-14.377 150.968,-22.003 0.661,-0.113 1.297,-0.204 1.957,-0.295 50.335,-7.66 100.658,-15.639 150.907,-23.81 12.856,-2.092 25.725,-4.206 38.593,-6.331 50.188,-8.308 100.364,-16.786 150.43,-25.617 0.575,-0.114 1.125,-0.227 1.663,-0.296 50.115,-8.876 100.108,-18.127 150.027,-27.526 12.685,-2.398 25.333,-4.796 37.993,-7.24 37.932,-7.262 75.827,-14.707 113.673,-22.321 4.366,22.446 8.195,45.063 11.608,67.828 -287.112,57.667 -586.406,107.344 -896.991,149.203 -2.642,-22.89 -6.373,-45.473 -11.034,-67.749 20.599,-2.773 41.186,-5.603 61.785,-8.455" /><path
       inkscape:connector-curvature="0"
       id="path118"
       style="fill:#2a367e;fill-opacity:1;fill-rule:nonzero;stroke:none"
       d="m 18010.399,10406.264 c 93.6,-0.25 188.301,-1.069 284.041,-2.467 10.801,-0.17 21.614,-0.341 32.44,-0.511 95.85,-1.546 192.655,-3.705 290.291,-6.524 11.229,-0.318 22.446,-0.647 33.688,-0.988 70.554,-2.148 141.5,-4.649 212.862,-7.513 -0.04,3.171 -0.257,6.274 -0.257,9.445 0,19.934 1.052,39.63 2.594,59.19 -298.916,11.945 -605.024,18.162 -918.483,18.218 -1.162,-22.787 -1.786,-45.699 -1.945,-68.703 11.058,0 22.213,-0.07 33.271,-0.07 10.471,-0.02 20.978,-0.05 31.498,-0.08" /><path
       inkscape:connector-curvature="0"
       id="path120"
       style="fill:#2a367e;fill-opacity:1;fill-rule:nonzero;stroke:none"
       d="m 21312.316,10055.748 c -100.218,18.912 -200.79,36.676 -301.619,53.36 -12.416,2.046 -24.807,4.091 -37.222,6.08 -50.433,8.217 -100.915,16.23 -151.458,23.89 -0.06,0.02 -0.134,0.02 -0.183,0.05 -50.592,7.683 -101.221,14.98 -151.923,22.129 -12.403,1.773 -24.843,3.489 -37.259,5.228 -22.617,3.125 -45.234,6.069 -67.839,9.115 -6.923,-22.515 -14.825,-44.598 -23.791,-66.237 313.777,-41.87 615.738,-91.809 905.039,-149.9988 6.398,22.094 12.367,44.3358 17.823,66.7598 -38.018,7.66 -76.072,15.218 -114.199,22.548 -12.477,2.376 -24.917,4.751 -37.369,7.081" /><path
       inkscape:connector-curvature="0"
       id="path122-2"
       style="fill:#2a367e;fill-opacity:1;fill-rule:nonzero;stroke:none"
       d="m 18867.623,10319.229 c -24.427,0.977 -48.977,2.079 -73.343,3 -0.869,0.02 -1.737,0.03 -2.581,0.08 -47.974,1.784 -95.704,3.318 -143.299,4.773 -11.89,0.341 -23.755,0.693 -35.62,1.046 -48.109,1.398 -96.12,2.67 -143.8,3.739 -0.869,0.02 -1.713,0.03 -2.557,0.06 -47.118,1.034 -93.942,1.898 -140.595,2.648 -11.547,0.182 -23.058,0.352 -34.568,0.534 -47.179,0.693 -94.224,1.261 -140.889,1.671 -0.82,0 -1.652,0 -2.484,0.02 -46.041,0.398 -91.74,0.614 -137.268,0.728 -11.241,0.02 -22.47,0.07 -33.663,0.09 -10.152,0 -20.146,-0.05 -30.25,-0.05 0.869,-23.003 2.08,-45.904 3.951,-68.657 316.799,-0.09 626.038,-6.433 927.596,-18.787 -4.538,22.73 -8.195,45.734 -10.63,69.101" /><path
       inkscape:connector-curvature="0"
       id="path124-8"
       style="fill:#2a367e;fill-opacity:1;fill-rule:nonzero;stroke:none"
       d="m 17946.706,10337.686 c -0.966,0 -1.92,0 -2.874,0 -0.282,0 -0.551,0 -0.783,0 0,-0.05 0,-0.07 0,-0.137 1.211,0 2.434,0.02 3.657,0.02 0,0.05 0,0.07 0,0.114" /><path
       inkscape:connector-curvature="0"
       id="path126-8"
       style="fill:#2a367e;fill-opacity:1;fill-rule:nonzero;stroke:none"
       d="m 18291.26,10335.106 c -47.179,0.693 -94.224,1.261 -140.889,1.671 46.665,-0.41 93.71,-0.978 140.889,-1.671" /><path
       inkscape:connector-curvature="0"
       id="path128-7"
       style="fill:#2a367e;fill-opacity:1;fill-rule:nonzero;stroke:none"
       d="m 18794.28,10322.229 c 24.366,-0.921 48.916,-2.023 73.343,-3 0,0.02 0,0.05 0,0.09 -24.476,1 -48.952,1.988 -73.343,2.909" /><path
       inkscape:connector-curvature="0"
       id="path130-1"
       style="fill:#2a367e;fill-opacity:1;fill-rule:nonzero;stroke:none"
       d="m 21175.341,10150.932 c 0.575,-0.114 1.125,-0.227 1.663,-0.296 -0.538,0.07 -1.088,0.182 -1.663,0.296" /><path
       inkscape:connector-curvature="0"
       id="path132"
       style="fill:#2a367e;fill-opacity:1;fill-rule:nonzero;stroke:none"
       d="m 18147.887,10336.799 c -46.041,0.398 -91.74,0.614 -137.268,0.728 45.528,-0.114 91.227,-0.33 137.268,-0.728" /><path
       inkscape:connector-curvature="0"
       id="path134"
       style="fill:#2a367e;fill-opacity:1;fill-rule:nonzero;stroke:none"
       d="m 20822.017,10139.078 c 50.543,-7.66 101.025,-15.673 151.458,-23.89 -50.433,8.217 -100.915,16.23 -151.458,23.89" /><path
       inkscape:connector-curvature="0"
       id="path136"
       style="fill:#2a367e;fill-opacity:1;fill-rule:nonzero;stroke:none"
       d="m 20986.318,10182.88 c 12.856,-2.092 25.725,-4.206 38.593,-6.331 -12.868,2.125 -25.737,4.239 -38.593,6.331" /><path
       inkscape:connector-curvature="0"
       id="path138-8"
       style="fill:#2a367e;fill-opacity:1;fill-rule:nonzero;stroke:none"
       d="m 21463.884,10026.119 c 0,0.05 0,0.08 0,0.102 -37.993,7.649 -76.072,15.116 -114.199,22.446 38.127,-7.33 76.181,-14.888 114.199,-22.548" /><path
       inkscape:connector-curvature="0"
       id="path140-7"
       style="fill:#2a367e;fill-opacity:1;fill-rule:nonzero;stroke:none"
       d="m 20644.065,10234.376 c 12.807,-1.785 25.614,-3.58 38.421,-5.388 -12.807,1.808 -25.59,3.603 -38.421,5.388" /><path
       inkscape:connector-curvature="0"
       id="path142-0"
       style="fill:#2a367e;fill-opacity:1;fill-rule:nonzero;stroke:none"
       d="m 20833.454,10206.985 c 0.661,-0.113 1.297,-0.204 1.957,-0.295 -0.66,0.09 -1.296,0.182 -1.957,0.295" /><path
       inkscape:connector-curvature="0"
       id="path144-2"
       style="fill:#2a367e;fill-opacity:1;fill-rule:nonzero;stroke:none"
       d="m 18326.88,10403.286 c -10.826,0.17 -21.639,0.341 -32.44,0.511 10.801,-0.17 21.614,-0.341 32.44,-0.511" /><path
       inkscape:connector-curvature="0"
       id="path146"
       style="fill:#2a367e;fill-opacity:1;fill-rule:nonzero;stroke:none"
       d="m 18650.859,10395.774 c -11.242,0.341 -22.459,0.67 -33.688,0.988 11.229,-0.318 22.446,-0.647 33.688,-0.988" /><path
       inkscape:connector-curvature="0"
       id="path148"
       style="fill:#2a367e;fill-opacity:1;fill-rule:nonzero;stroke:none"
       d="m 17978.901,10406.343 c 10.471,-0.02 20.978,-0.05 31.498,-0.08 -10.52,0.03 -21.027,0.06 -31.498,0.08" /><path
       inkscape:connector-curvature="0"
       id="path150"
       style="fill:#2a367e;fill-opacity:1;fill-rule:nonzero;stroke:none"
       d="m 18791.699,10322.309 c -47.974,1.784 -95.704,3.318 -143.299,4.773 47.595,-1.455 95.325,-2.989 143.299,-4.773" /><path
       inkscape:connector-curvature="0"
       id="path152"
       style="fill:#2a367e;fill-opacity:1;fill-rule:nonzero;stroke:none"
       d="m 18612.78,10328.128 c -48.109,1.398 -96.12,2.67 -143.8,3.739 47.68,-1.069 95.691,-2.341 143.8,-3.739" /><path
       inkscape:connector-curvature="0"
       id="path154-8"
       style="fill:#2a367e;fill-opacity:1;fill-rule:nonzero;stroke:none"
       d="m 20669.911,10161.252 c 50.702,-7.149 101.331,-14.446 151.923,-22.129 -50.592,7.683 -101.221,14.98 -151.923,22.129" /><path
       inkscape:connector-curvature="0"
       id="path156-7"
       style="fill:#2a367e;fill-opacity:1;fill-rule:nonzero;stroke:none"
       d="m 17946.706,10337.686 c 0,-0.05 0,-0.07 0,-0.114 10.104,0 20.098,0.05 30.25,0.05 -10.091,0 -20.195,0.07 -30.25,0.07" /><path
       inkscape:connector-curvature="0"
       id="path158-1"
       style="fill:#2a367e;fill-opacity:1;fill-rule:nonzero;stroke:none"
       d="m 21010.697,10109.108 c 100.829,-16.684 201.401,-34.448 301.619,-53.36 -100.218,18.912 -200.79,36.676 -301.619,53.36" /><path
       inkscape:connector-curvature="0"
       id="path160"
       style="fill:#2a367e;fill-opacity:1;fill-rule:nonzero;stroke:none"
       d="m 20564.862,10175.731 c -0.03,-0.05 -0.03,-0.102 -0.05,-0.136 22.605,-3.046 45.222,-5.99 67.839,-9.115 -22.605,3.125 -45.185,6.228 -67.79,9.251" /><path
       inkscape:connector-curvature="0"
       id="path162"
       style="fill:#2a367e;fill-opacity:1;fill-rule:nonzero;stroke:none"
       d="m 21327.031,10123.11 c 12.685,-2.398 25.333,-4.796 37.993,-7.24 -12.66,2.444 -25.308,4.842 -37.993,7.24" /><path
       inkscape:connector-curvature="0"
       id="path164-5"
       style="fill:#2a367e;fill-opacity:1;fill-rule:nonzero;stroke:none"
       d="m 18466.423,10331.924 c -47.118,1.034 -93.942,1.898 -140.595,2.648 46.653,-0.75 93.477,-1.614 140.595,-2.648" /><path
       inkscape:connector-curvature="0"
       id="path166"
       style="fill:#ffffff;fill-opacity:1;fill-rule:nonzero;stroke:none"
       d="m 15736.479,10311.841 c -1.175,-0.09 -2.337,-0.193 -3.511,-0.261 l 0,-69.021 c 1.174,0.102 2.336,0.204 3.511,0.318 l 0,68.964" /><path
       inkscape:connector-curvature="0"
       id="path168"
       style="fill:#ffffff;fill-opacity:1;fill-rule:nonzero;stroke:none"
       d="m 13983.583,10105.028 c -1.606,-0.25 -2.963,-0.466 -4.105,-0.671 4.133,-22.662 8.735,-45.154 13.848,-67.521 1.198,0.216 2.627,0.443 4.286,0.728 -5.185,22.344 -9.848,44.847 -14.029,67.464" /><path
       inkscape:connector-curvature="0"
       id="path170-4"
       style="fill:#ffffff;fill-opacity:1;fill-rule:nonzero;stroke:none"
       d="m 14913.394,10230.511 c -531.8,-60.701 -872.851,-116.027 -929.811,-125.483 4.181,-22.617 8.844,-45.12 14.029,-67.464 58.79,9.762 400.959,65.157 933.555,125.756 -6.923,22.037 -12.929,44.438 -17.773,67.191" /><path
       inkscape:connector-curvature="0"
       id="path172"
       style="fill:#ffffff;fill-opacity:1;fill-rule:nonzero;stroke:none"
       d="m 16554.866,10299.499 c 9.162,0.465 18.324,0.977 27.535,1.466 37.907,2.011 76.095,3.989 114.896,5.875 0.146,0.01 0.293,0.01 0.44,0.03 38.763,1.875 78.151,3.682 117.795,5.432 9.565,0.421 19.18,0.853 28.794,1.25 79.949,3.467 161.611,6.615 244.874,9.433 10.006,0.353 20.024,0.682 30.079,1.012 41.748,1.364 83.741,2.659 126.247,3.853 0.123,0 0.245,0 0.38,0 42.518,1.205 85.539,2.262 128.791,3.205 10.447,0.273 20.929,0.489 31.425,0.716 43.105,0.932 86.444,1.796 130.235,2.534 0.428,0 0.856,0.01 1.308,0.01 16.673,0.272 33.553,0.488 50.335,0.716 0.477,15.877 0.783,31.766 0.783,47.722 0,7.001 -0.22,13.991 -0.33,20.981 -62.017,-0.887 -123.581,-1.921 -184.276,-3.251 -10.104,-0.227 -20.183,-0.443 -30.263,-0.659 -87.116,-2 -172.778,-4.376 -256.873,-7.126 -10.129,-0.33 -20.244,-0.671 -30.348,-1.012 -41.614,-1.409 -82.995,-2.864 -123.813,-4.443 -0.196,-0.01 -0.38,-0.01 -0.587,-0.03 -40.746,-1.557 -80.928,-3.228 -120.829,-4.967 -9.92,-0.443 -19.828,-0.864 -29.675,-1.284 -39.62,-1.762 -78.983,-3.569 -117.722,-5.456 -0.256,-0.02 -0.526,-0.02 -0.782,-0.05 -38.691,-1.887 -76.757,-3.864 -114.529,-5.865 -9.566,-0.5 -19.095,-1.011 -28.575,-1.534 -37.552,-2.012 -74.823,-4.103 -111.422,-6.239 -247.406,-14.446 -482.519,-31.562 -702.28,-49.985 l 0,-68.964 c 221.009,18.559 457.688,35.823 706.916,50.382 36.623,2.114 73.907,4.194 111.471,6.24" /><path
       inkscape:connector-curvature="0"
       id="path174-2"
       style="fill:#2a367e;fill-opacity:1;fill-rule:nonzero;stroke:none"
       d="m 15736.479,10242.877 c -1.175,-0.114 -2.337,-0.216 -3.511,-0.318 l 0,-69.01 c 1.174,0.113 2.336,0.216 3.511,0.295 l 0,69.033" /><path
       inkscape:connector-curvature="0"
       id="path176"
       style="fill:#2a367e;fill-opacity:1;fill-rule:nonzero;stroke:none"
       d="m 13972.449,10173.015 c -1.437,-0.25 -2.775,-0.466 -3.936,-0.66 3.124,-22.821 6.851,-45.472 10.965,-67.998 1.142,0.205 2.499,0.421 4.105,0.671 -4.158,22.526 -7.961,45.165 -11.134,67.987" /><path
       inkscape:connector-curvature="0"
       id="path178"
       style="fill:#2a367e;fill-opacity:1;fill-rule:nonzero;stroke:none"
       d="m 15736.479,10380.908 c -1.175,-0.102 -2.349,-0.193 -3.511,-0.284 l 0,-69.044 c 1.174,0.07 2.336,0.17 3.511,0.261 l 0,69.067" /><path
       inkscape:connector-curvature="0"
       id="path180"
       style="fill:#2a367e;fill-opacity:1;fill-rule:nonzero;stroke:none"
       d="m 13997.612,10037.564 c -1.659,-0.285 -3.088,-0.512 -4.286,-0.728 5.155,-22.492 10.779,-44.8358 16.899,-66.9753 1.301,0.2273 2.791,0.4432 4.364,0.7274 -6.169,22.1395 -11.774,44.4839 -16.977,66.9759" /><path
       inkscape:connector-curvature="0"
       id="path182"
       style="fill:#2a367e;fill-opacity:1;fill-rule:nonzero;stroke:none"
       d="m 17537.665,10334.322 c -0.452,0 -0.88,-0.01 -1.308,-0.01 -43.791,-0.738 -87.13,-1.602 -130.235,-2.534 -10.496,-0.227 -20.978,-0.443 -31.425,-0.716 -43.24,-0.943 -86.285,-2 -128.791,-3.205 -0.135,0 -0.257,0 -0.38,0 -42.506,-1.194 -84.499,-2.489 -126.247,-3.853 -10.055,-0.33 -20.085,-0.659 -30.079,-1.012 -83.263,-2.818 -164.925,-5.966 -244.874,-9.433 -9.614,-0.397 -19.229,-0.829 -28.794,-1.25 -39.644,-1.75 -79.032,-3.557 -117.795,-5.432 -0.147,-0.02 -0.294,-0.02 -0.44,-0.03 -38.801,-1.886 -77.001,-3.864 -114.896,-5.875 -9.211,-0.489 -18.385,-1.001 -27.535,-1.466 -37.564,-2.046 -74.848,-4.126 -111.471,-6.24 -249.228,-14.559 -485.907,-31.823 -706.916,-50.382 l 0,-69.033 c 222.269,18.742 460.501,36.13 711.564,50.814 380.969,22.231 761.717,36.13 1136.263,41.609 1.713,22.798 2.997,45.711 3.694,68.702 -16.745,-0.215 -33.699,-0.375 -50.335,-0.647" /><path
       inkscape:connector-curvature="0"
       id="path184"
       style="fill:#2a367e;fill-opacity:1;fill-rule:nonzero;stroke:none"
       d="m 14931.167,10163.32 c -532.596,-60.599 -874.765,-115.994 -933.555,-125.756 5.203,-22.492 10.808,-44.8364 16.977,-66.9759 68.623,11.2857 412.173,66.4299 940.993,126.2909 -9.162,21.707 -17.308,43.881 -24.415,66.441" /><path
       inkscape:connector-curvature="0"
       id="path186"
       style="fill:#2a367e;fill-opacity:1;fill-rule:nonzero;stroke:none"
       d="m 16550.181,10368.065 c 9.48,0.523 19.009,1.034 28.575,1.534 37.772,2.001 75.838,3.978 114.529,5.865 0.256,0.02 0.526,0.02 0.782,0.05 38.739,1.887 78.102,3.694 117.722,5.456 9.859,0.42 19.755,0.841 29.675,1.284 39.901,1.739 80.071,3.41 120.829,4.967 0.207,0.02 0.391,0.02 0.587,0.03 40.818,1.579 82.199,3.034 123.813,4.443 10.104,0.341 20.219,0.682 30.348,1.012 84.095,2.75 169.757,5.126 256.873,7.126 10.08,0.216 20.159,0.432 30.263,0.659 60.756,1.33 122.198,2.41 184.276,3.307 -0.294,22.913 -1.015,45.814 -2.336,68.681 -379.843,-5.467 -765.863,-19.503 -1152.006,-42.052 -245.84,-14.354 -479.326,-31.3 -697.632,-49.518 l 0,-69.067 c 219.761,18.423 454.874,35.539 702.28,49.985 36.599,2.136 73.858,4.227 111.422,6.239" /><path
       inkscape:connector-curvature="0"
       id="path188"
       style="fill:#2a367e;fill-opacity:1;fill-rule:nonzero;stroke:none"
       d="m 14902.116,10298.612 c -527.517,-60.247 -866.599,-115.119 -929.667,-125.597 3.173,-22.822 6.976,-45.461 11.134,-67.987 56.96,9.456 398.011,64.782 929.811,125.483 -4.771,22.401 -8.624,45.086 -11.278,68.101" /><path
       inkscape:connector-curvature="0"
       id="path190"
       style="fill:#2a367e;fill-opacity:1;fill-rule:nonzero;stroke:none"
       d="m 17536.357,10334.31 c -43.791,-0.738 -87.13,-1.602 -130.235,-2.534 43.105,0.932 86.444,1.796 130.235,2.534" /><path
       inkscape:connector-curvature="0"
       id="path192"
       style="fill:#2a367e;fill-opacity:1;fill-rule:nonzero;stroke:none"
       d="m 17588,10334.969 c 0,0.02 0,0.07 0,0.07 -16.782,-0.228 -33.662,-0.444 -50.335,-0.716 16.636,0.272 33.59,0.432 50.335,0.647" /><path
       inkscape:connector-curvature="0"
       id="path194"
       style="fill:#2a367e;fill-opacity:1;fill-rule:nonzero;stroke:none"
       d="m 17374.697,10331.06 c -43.252,-0.943 -86.273,-2 -128.791,-3.205 42.506,1.205 85.551,2.262 128.791,3.205" /><path
       inkscape:connector-curvature="0"
       id="path196-0"
       style="fill:#2a367e;fill-opacity:1;fill-rule:nonzero;stroke:none"
       d="m 17245.526,10327.855 c -42.506,-1.194 -84.499,-2.489 -126.247,-3.853 41.748,1.364 83.741,2.659 126.247,3.853" /><path
       inkscape:connector-curvature="0"
       id="path198"
       style="fill:#2a367e;fill-opacity:1;fill-rule:nonzero;stroke:none"
       d="m 16554.866,10299.499 c -37.564,-2.046 -74.848,-4.126 -111.471,-6.24 36.623,2.114 73.907,4.194 111.471,6.24" /><path
       inkscape:connector-curvature="0"
       id="path200"
       style="fill:#2a367e;fill-opacity:1;fill-rule:nonzero;stroke:none"
       d="m 16841.464,10382.249 c -9.92,-0.443 -19.816,-0.864 -29.675,-1.284 9.847,0.42 19.755,0.841 29.675,1.284" /><path
       inkscape:connector-curvature="0"
       id="path202"
       style="fill:#2a367e;fill-opacity:1;fill-rule:nonzero;stroke:none"
       d="m 16962.88,10387.25 c -0.196,-0.01 -0.38,-0.01 -0.587,-0.03 0.207,0.02 0.391,0.02 0.587,0.03" /><path
       inkscape:connector-curvature="0"
       id="path204"
       style="fill:#2a367e;fill-opacity:1;fill-rule:nonzero;stroke:none"
       d="m 16694.067,10375.509 c -0.256,-0.02 -0.526,-0.02 -0.782,-0.05 0.256,0.02 0.526,0.02 0.782,0.05" /><path
       inkscape:connector-curvature="0"
       id="path206"
       style="fill:#2a367e;fill-opacity:1;fill-rule:nonzero;stroke:none"
       d="m 17089.2,10322.99 c -83.263,-2.818 -164.925,-5.966 -244.874,-9.433 79.949,3.467 161.611,6.615 244.874,9.433" /><path
       inkscape:connector-curvature="0"
       id="path208"
       style="fill:#2a367e;fill-opacity:1;fill-rule:nonzero;stroke:none"
       d="m 16578.756,10369.599 c -9.566,-0.5 -19.095,-1.011 -28.575,-1.534 9.48,0.523 19.009,1.034 28.575,1.534" /><path
       inkscape:connector-curvature="0"
       id="path210"
       style="fill:#2a367e;fill-opacity:1;fill-rule:nonzero;stroke:none"
       d="m 17117.041,10392.705 c -10.129,-0.33 -20.244,-0.671 -30.348,-1.012 10.104,0.341 20.219,0.682 30.348,1.012" /><path
       inkscape:connector-curvature="0"
       id="path212"
       style="fill:#2a367e;fill-opacity:1;fill-rule:nonzero;stroke:none"
       d="m 16815.532,10312.307 c -39.644,-1.75 -79.032,-3.557 -117.795,-5.432 38.763,1.875 78.151,3.682 117.795,5.432" /><path
       inkscape:connector-curvature="0"
       id="path214"
       style="fill:#2a367e;fill-opacity:1;fill-rule:nonzero;stroke:none"
       d="m 16697.297,10306.84 c -38.801,-1.886 -76.989,-3.864 -114.896,-5.875 37.895,2.011 76.095,3.989 114.896,5.875" /><path
       inkscape:connector-curvature="0"
       id="path216"
       style="fill:#2a367e;fill-opacity:1;fill-rule:nonzero;stroke:none"
       d="m 17404.177,10400.49 c -10.104,-0.227 -20.183,-0.443 -30.263,-0.659 10.08,0.216 20.159,0.432 30.263,0.659" /><path
       inkscape:connector-curvature="0"
       id="path218"
       style="fill:#ffffff;fill-opacity:1;fill-rule:nonzero;stroke:none"
       d="m 20601.974,10401.638 c 0,-445.1542 -388.393,-806.0119 -867.524,-806.0119 -479.094,0 -867.475,360.8577 -867.475,806.0119 0,445.154 388.381,806.024 867.475,806.024 479.131,0 867.524,-360.87 867.524,-806.024" /><path
       inkscape:connector-curvature="0"
       id="path220"
       style="fill:#d82b2e;fill-opacity:1;fill-rule:nonzero;stroke:none"
       d="m 19729.839,9776.2422 c -366.902,0 -665.401,277.3348 -665.401,618.2468 0,340.901 298.499,618.247 665.401,618.247 366.901,0 665.401,-277.346 665.401,-618.247 0,-340.912 -298.5,-618.2468 -665.401,-618.2468" /><path
       inkscape:connector-curvature="0"
       id="path222"
       style="fill:#15192a;fill-opacity:1;fill-rule:nonzero;stroke:none"
       d="m 19729.839,11041.15 c -383.758,0 -695.982,-290.087 -695.982,-646.661 0,-356.562 312.224,-646.6599 695.982,-646.6599 383.769,0 695.981,290.0979 695.981,646.6599 0,356.574 -312.212,646.661 -695.981,646.661 z m 0,-56.827 c 350.583,0 634.82,-264.083 634.82,-589.834 0,-325.762 -284.237,-589.8336 -634.82,-589.8336 -350.609,0 -634.821,264.0716 -634.821,589.8336 0,325.751 284.212,589.834 634.821,589.834" /><path
       inkscape:connector-curvature="0"
       id="path224"
       style="fill:#ffffff;fill-opacity:1;fill-rule:nonzero;stroke:none"
       d="m 20364.659,10394.489 c 0,-325.762 -284.237,-589.8336 -634.82,-589.8336 -350.609,0 -634.821,264.0716 -634.821,589.8336" /><path
       inkscape:connector-curvature="0"
       id="path226"
       style="fill:#ffffff;fill-opacity:1;fill-rule:nonzero;stroke:none"
       d="m 19095.018,10394.489 1269.641,0" /><path
       inkscape:connector-curvature="0"
       id="path228"
       style="fill:none;stroke:#15192a;stroke-width:58.95353317;stroke-linecap:butt;stroke-linejoin:miter;stroke-miterlimit:10;stroke-dasharray:none;stroke-opacity:1"
       d="m 19095.018,10394.489 1269.641,0" /><path
       inkscape:connector-curvature="0"
       id="path230"
       style="fill:#ffffff;fill-opacity:1;fill-rule:nonzero;stroke:none"
       d="m 19728.285,10171.333 c -131.568,0 -238.599,99.457 -238.599,221.69 0,122.245 107.031,221.691 238.599,221.691 131.568,0 238.599,-99.446 238.599,-221.691 0,-122.233 -107.031,-221.69 -238.599,-221.69" /><path
       inkscape:connector-curvature="0"
       id="path232"
       style="fill:#15192a;fill-opacity:1;fill-rule:nonzero;stroke:none"
       d="m 19728.285,10643.127 c -148.424,0 -269.179,-112.198 -269.179,-250.104 0,-137.906 120.755,-250.104 269.179,-250.104 148.424,0 269.179,112.198 269.179,250.104 0,137.906 -120.755,250.104 -269.179,250.104 z m 0,-56.826 c 114.884,0 208.019,-86.535 208.019,-193.278 0,-106.731 -93.135,-193.277 -208.019,-193.277 -114.896,0 -208.019,86.546 -208.019,193.277 0,106.743 93.123,193.278 208.019,193.278" /><path
       inkscape:connector-curvature="0"
       id="path362"
       style="fill:#29357c;fill-opacity:1;fill-rule:nonzero;stroke:none"
       d="m 18879.758,10243.4 c -0.477,2.25 -1.065,4.466 -1.505,6.728 -301.558,12.354 -610.797,18.696 -927.596,18.787 0.343,-4.217 0.808,-8.411 1.175,-12.616 304.774,1.591 615.616,-2.193 927.926,-12.899" /><path
       inkscape:connector-curvature="0"
       id="path372"
       style="fill:#29357c;fill-opacity:1;fill-rule:nonzero;stroke:none"
       d="m 17584.306,10266.267 c -374.546,-5.479 -755.294,-19.378 -1136.263,-41.609 -251.063,-14.684 -489.295,-32.072 -711.564,-50.814 l 0,-14.343 c 540.327,42.654 1173.24,79.421 1846.421,92.298 0.416,4.841 1.039,9.637 1.406,14.468" /><path
       inkscape:connector-curvature="0"
       id="path376"
       style="fill:#29357c;fill-opacity:1;fill-rule:nonzero;stroke:none"
       d="m 14955.582,10096.879 c -263.895,-29.879 -481.641,-58.577 -642.124,-81.216 159.619,20.048 379.079,45.938 645.659,73.317 -1.15,2.659 -2.397,5.239 -3.535,7.899" /><path
       inkscape:connector-curvature="0"
       id="path378"
       style="fill:#29357c;fill-opacity:1;fill-rule:nonzero;stroke:none"
       d="m 18735.456,9019.8736 c -27.694,17.2968 -54.8,35.3573 -81.344,54.0202 -53.099,-15.6272 8.734,-38.7794 81.344,-54.0202" /><path
       inkscape:connector-curvature="0"
       id="path380"
       style="fill:#29357c;fill-opacity:1;fill-rule:nonzero;stroke:none"
       d="m 19045.723,8853.9273 c 0,0 21.736,-3.7596 53.784,-8.4967 -34.653,12.1461 -68.781,25.2877 -102.358,39.334 20.122,-19.1743 48.574,-30.8373 48.574,-30.8373" /><path
       inkscape:connector-curvature="0"
       id="path382"
       style="fill:#29357c;fill-opacity:1;fill-rule:nonzero;stroke:none"
       d="m 21421.744,9871.1762 c -0.966,0.5228 -2.287,1.1251 -3.596,1.682 -47.595,-134.1441 -113.208,-260.6502 -194.038,-377.1793 302.426,-30.9931 240.556,352.4031 197.634,375.4973" /><path
       inkscape:connector-curvature="0"
       id="path384"
       style="fill:#ffffff;fill-opacity:1;fill-rule:nonzero;stroke:none"
       d="m 19728.31,12189.802 c -1064.62,0 -1930.737,-804.74 -1930.737,-1793.915 0,-989.1731 866.117,-1793.9126 1930.737,-1793.9126 1064.595,0 1930.736,804.7395 1930.736,1793.9126 0,989.175 -866.141,1793.915 -1930.736,1793.915 z m 0,-137.44 c 984.609,0 1782.802,-741.629 1782.802,-1656.475 0,-914.8454 -798.193,-1656.4646 -1782.802,-1656.4646 -984.634,0 -1782.827,741.6192 -1782.827,1656.4646 0,914.846 798.193,1656.475 1782.827,1656.475" /><path
       inkscape:connector-curvature="0"
       id="path386"
       style="fill:#ffffff;fill-opacity:1;fill-rule:nonzero;stroke:none"
       d="m 15774.997,9692.7303 c -420.918,0 -763.343,311.3167 -763.343,693.9847 0,382.646 342.425,693.963 763.343,693.963 187.812,0 367.783,-62.941 506.776,-175.093 l -656.239,0 0,-962.0917 735.98,0 c -143.385,-156.0677 -358.131,-250.763 -586.517,-250.763 z m 0,2470.2947 c -1063.232,0 -1928.246,-796.852 -1928.246,-1776.31 0,-979.4817 865.014,-1776.3326 1928.246,-1776.3326 1063.238,0 1928.242,796.8509 1928.242,1776.3326 0,131.178 -15.694,262.163 -46.666,389.522 l -9.492,26.754 c 0,0 -23.069,45.665 -37.98,60.747 -14.483,14.616 -61.099,41.279 -61.099,41.279 l -27.327,0.545 -1.162,0.02 -925.186,0 617.451,510.857 82.848,68.543 -73.784,76.977 c -366.082,381.987 -893.077,601.063 -1445.845,601.063 z m 0,-103.083 c 521.148,0 1017.942,-206.484 1362.997,-566.524 l -704.274,-582.696 c -166.283,173.513 -406.387,273.027 -658.723,273.027 -482.091,0 -874.276,-357.539 -874.276,-797.034 0,-439.4939 392.185,-797.0557 874.276,-797.0557 348.664,0 650.209,187.1057 790.462,456.8937 l -828.98,0 0,755.938 1792.453,0 c 0,0 2.336,-0.182 5.798,-4.535 4.33,-5.49 10.911,-33.346 10.911,-33.346 30.947,-123.381 46.653,-250.513 46.653,-377.895 0,-922.6418 -815.244,-1673.2588 -1817.297,-1673.2588 -1002.067,0 -1817.307,750.617 -1817.307,1673.2588 0,922.632 815.24,1673.227 1817.307,1673.227" /></g></svg>