<svg xmlns="http://www.w3.org/2000/svg" width="921.26" height="96.378"><path d="m108.324 477.494-100.411-.017v60.548h13.199v-15.94h87.212c7.519 0 13.366-5.964 13.366-13.382l.167-17.86c0-7.418-6.014-13.35-13.533-13.35m.167 29.054c0 1.136-1.002 2.205-2.004 2.222H21.112v-17.977l85.04.033a2.307 2.307 0 0 1 2.34 2.306zM249.502 490.843c0-7.335-5.848-13.35-13.199-13.35h-85.375c-7.351 0-13.533 5.965-13.533 13.383v33.816c0 7.418 6.182 13.35 13.533 13.35h85.208c7.351 0 13.366-5.965 13.366-13.4zm-13.366 31.66c0 1.153-1.002 2.223-2.005 2.223H152.6c-.835 0-1.838-.752-1.838-1.638v-30.407c0-1.02 1.17-1.871 2.34-1.871l80.863.016c1.17 0 2.172 1.053 2.172 2.29zM540.88 490.81h94.229v-13.316h-96.402c-7.351 0-13.533 5.964-13.533 13.382v33.816c0 7.418 6.015 13.45 13.366 13.45l96.569-.1v-13.316h-94.731c-.835 0-1.67-.736-1.67-1.638v-30.407c0-1.02 1.002-1.871 2.171-1.871M366.955 517.408c7.184-.25 12.865-6.165 12.865-13.433v-13.132c0-7.401-6.015-13.316-13.366-13.35v-.016l-100.913-.017v60.548h13.366v-15.922h74.18c7.352 0 13.367 6.031 13.367 13.45v2.388h13.533v-.167c0-9.022-5.347-16.807-13.032-20.35m-.501-10.86c0 1.136-.836 2.205-2.005 2.222h-85.542v-17.977l85.208.033a2.307 2.307 0 0 1 2.339 2.306zM509.302 515.57c0-7.401-6.015-13.45-13.366-13.45l-85.04.017c-1.17 0-2.172-.852-2.172-2.088v-9.072c0-1.237 1.002-2.156 2.172-2.156h96.401v-11.294H408.39c-7.35 0-13.031 6.115-13.031 13.45v9.072c0 7.434 6.014 13.45 13.366 13.45l85.04-.018c1.17 0 2.172.852 2.172 2.089v9.105c0 1.253-1.002 2.089-2.172 2.089h-96.569v11.31h98.741c7.351 0 13.366-5.997 13.366-13.399zM744.877 477.41v24.627h-81.031V477.41h-13.2v60.548h13.2v-22.605h81.03v22.605h13.367V477.41zM891.902 488.821v-11.31H773.948v60.564h117.954v-11.311H787.313v-13.316h104.589v-11.31H787.313V488.82z" style="fill:#af0342;fill-rule:nonzero;stroke:none;stroke-width:.28299999;stroke-linecap:butt;stroke-linejoin:miter;stroke-miterlimit:3.86400008;stroke-dasharray:none" transform="translate(9.787 -460.642)scale(1.00208)"/></svg>