<svg version="1.1" id="D_VIS" xmlns="http://www.w3.org/2000/svg" xmlns:xlink="http://www.w3.org/1999/xlink" x="0px" y="0px" viewBox="1531.2 -80.2 1096.1 292.8" style="enable-background:new 1531.2 -80.2 1096.1 292.8;" xml:space="preserve">
 <style type="text/css">
  .st0{fill:#FFFFFF;}
 </style>
 <g>
  <path class="st0" d="M2542.5,75.4l17.2-45l17.1,45H2542.5z M2577.5,4.9h-35.6l-49.8,122h30.9l11.3-29.8h50.8l11.4,29.8h30.9
		L2577.5,4.9z M2326.1,105.7c-20.1,0-36.4-18.1-36.4-40.5s16.3-40.5,36.4-40.5c20.1,0,36.4,18.2,36.4,40.5
		S2346.2,105.7,2326.1,105.7 M2326.1,0.7c-35.6,0-64.4,28.9-64.4,64.5s28.9,64.4,64.5,64.4c35.6,0,64.4-28.9,64.4-64.4
		C2390.5,29.6,2361.7,0.7,2326.1,0.7 M2071.7,105.7c-20.1,0-36.4-18.1-36.4-40.5s16.3-40.5,36.4-40.5c20.1,0,36.4,18.2,36.4,40.5
		S2091.8,105.7,2071.7,105.7 M2071.7,0.7c-35.6,0-64.4,28.9-64.4,64.5c0,35.6,28.9,64.4,64.5,64.4c35.6,0,64.4-28.9,64.4-64.4
		C2136.2,29.6,2107.3,0.7,2071.7,0.7C2071.7,0.7,2071.7,0.7,2071.7,0.7 M2231,4.9l-31.6,49.4l-31.6-49.4H2137l48.9,76.5v45.5h27.2
		V81.4l48.9-76.5L2231,4.9z M2498.5,4.9h-104.3v23.4h38.6v98.6h27.2V28.3h38.5V4.9z M1897.2,28.3h38.7v98.6h27.2V28.3h38.5V4.9
		h-104.4V28.3z">
  </path>
  <path class="st0" d="M1650.8,68.8c0-1.2,0-2.3,0-3.4c-31.7-4.7-54.4-17.6-54.4-32.7c0-0.7,0-1.4,0.1-2c-8.1,9.7-12.7,21-12.7,33
		c0,34.3,37.6,62.4,85.5,65.4C1658.6,120.8,1650.8,96.9,1650.8,68.8z">
  </path>
  <path class="st0" d="M1677.6,22.2c-7.2,0-13.3,11.1-15.7,26.8c5,0.5,10.3,0.7,15.7,0.7c5.4,0,10.7-0.3,15.7-0.7
		C1690.9,33.4,1684.8,22.2,1677.6,22.2z">
  </path>
  <path class="st0" d="M1652.3,47.9c3.7-24.6,13.6-42.3,25.4-42.3c11.7,0,21.7,17.7,25.3,42.3c22.3-3.5,37.9-11.4,37.9-20.6
		c0-12.4-28.3-22.5-63.2-22.5s-63.2,10.1-63.2,22.5C1614.4,36.5,1630,44.4,1652.3,47.9z">
  </path>
  <path class="st0" d="M1531.2-80.2v292.8H1824V-80.2H1531.2z M1677.6,137.3c-60.7,0-109.8-31.8-109.8-71c0-27.9,24.8-52,61-63.6
		c13.6-4.4,30.5-7,48.8-7c18.3,0,35.2,2.6,48.8,7c36.1,11.6,61,35.8,61,63.6C1787.4,105.5,1738.3,137.3,1677.6,137.3z">
  </path>
  <path class="st0" d="M1677.6,67.3c-5.8,0-11.4-0.3-16.9-0.8c0.4,22.4,7.8,40.2,16.9,40.2c9.1,0,16.4-17.8,16.9-40.2
		C1689,67,1683.4,67.3,1677.6,67.3z">
  </path>
  <path class="st0" d="M1758.8,32.7c0,15.1-22.7,28-54.4,32.7c0,1.1,0,2.3,0,3.4c0,28.1-7.8,52-18.6,60.2
		c47.9-2.9,85.5-31.1,85.5-65.4c0-12-4.6-23.3-12.7-33C1758.8,31.3,1758.8,32,1758.8,32.7z">
  </path>
 </g>
</svg>