<svg xmlns="http://www.w3.org/2000/svg" xml:space="preserve" id="D_VIS" x="0" y="0" viewBox="1531.2 -80.2 1096.1 292.8"><style>.st0{fill:#fff}</style><path d="m2542.5 75.4 17.2-45 17.1 45zm35-70.5h-35.6l-49.8 122h30.9l11.3-29.8h50.8l11.4 29.8h30.9zm-251.4 100.8c-20.1 0-36.4-18.1-36.4-40.5s16.3-40.5 36.4-40.5 36.4 18.2 36.4 40.5-16.3 40.5-36.4 40.5m0-105c-35.6 0-64.4 28.9-64.4 64.5s28.9 64.4 64.5 64.4 64.4-28.9 64.4-64.4c-.1-35.6-28.9-64.5-64.5-64.5m-254.4 105c-20.1 0-36.4-18.1-36.4-40.5s16.3-40.5 36.4-40.5 36.4 18.2 36.4 40.5-16.3 40.5-36.4 40.5m0-105c-35.6 0-64.4 28.9-64.4 64.5s28.9 64.4 64.5 64.4 64.4-28.9 64.4-64.4c0-35.6-28.9-64.5-64.5-64.5M2231 4.9l-31.6 49.4-31.6-49.4H2137l48.9 76.5v45.5h27.2V81.4L2262 4.9zm267.5 0h-104.3v23.4h38.6v98.6h27.2V28.3h38.5zm-601.3 23.4h38.7v98.6h27.2V28.3h38.5V4.9h-104.4zM1650.8 68.8v-3.4c-31.7-4.7-54.4-17.6-54.4-32.7 0-.7 0-1.4.1-2-8.1 9.7-12.7 21-12.7 33 0 34.3 37.6 62.4 85.5 65.4-10.7-8.3-18.5-32.2-18.5-60.3M1677.6 22.2c-7.2 0-13.3 11.1-15.7 26.8 5 .5 10.3.7 15.7.7s10.7-.3 15.7-.7c-2.4-15.6-8.5-26.8-15.7-26.8" class="st0"/><path d="M1652.3 47.9c3.7-24.6 13.6-42.3 25.4-42.3 11.7 0 21.7 17.7 25.3 42.3 22.3-3.5 37.9-11.4 37.9-20.6 0-12.4-28.3-22.5-63.2-22.5s-63.2 10.1-63.2 22.5c-.1 9.2 15.5 17.1 37.8 20.6" class="st0"/><path d="M1531.2-80.2v292.8H1824V-80.2zm146.4 217.5c-60.7 0-109.8-31.8-109.8-71 0-27.9 24.8-52 61-63.6 13.6-4.4 30.5-7 48.8-7s35.2 2.6 48.8 7c36.1 11.6 61 35.8 61 63.6 0 39.2-49.1 71-109.8 71" class="st0"/><path d="M1677.6 67.3c-5.8 0-11.4-.3-16.9-.8.4 22.4 7.8 40.2 16.9 40.2s16.4-17.8 16.9-40.2c-5.5.5-11.1.8-16.9.8M1758.8 32.7c0 15.1-22.7 28-54.4 32.7v3.4c0 28.1-7.8 52-18.6 60.2 47.9-2.9 85.5-31.1 85.5-65.4 0-12-4.6-23.3-12.7-33 .2.7.2 1.4.2 2.1" class="st0"/></svg>